# Blender v2.75 (sub 0) OBJ File: 'grabby_stuff3.blend'
# www.blender.org
mtllib grabby_stuff3.mtl
o Cube
v 3.501662 0.080194 -1.377337
v 3.501662 0.080194 1.377337
v -3.501662 0.080194 1.377337
v -3.501661 0.080194 -1.377337
v 3.662037 -0.080194 -1.511702
v 3.662033 -0.080194 1.511704
v -3.662037 -0.080194 1.340135
v -3.662035 -0.080194 -1.393780
v 3.662035 0.080194 -1.511703
v 3.662035 0.080194 1.511703
v -3.662034 0.080194 -1.511704
v -3.662036 0.080194 1.511703
v 0.999295 0.487994 -0.393061
v 0.999295 0.487994 0.393061
v -0.999295 0.487994 -0.393061
v -0.999295 0.487994 0.393061
v -2.571444 0.097885 -1.334637
v 2.571445 0.097885 -1.334637
v -0.286193 0.470303 -0.435761
v 0.286193 0.470303 -0.435761
v 2.808572 0.093375 1.345522
v -2.808573 0.093375 1.345522
v 0.467974 0.474813 0.424876
v -0.467975 0.474813 0.424876
v 0.881590 0.487994 -0.344472
v -0.881589 0.487994 -0.344472
v 0.881590 0.487994 0.344472
v -0.881590 0.487994 0.344471
v -3.362624 0.060069 1.372215
v -3.362623 0.060069 -1.361700
v -3.362624 0.060069 1.547179
v -3.362623 0.060069 -1.476226
v -3.512303 -0.080194 1.340135
v -3.512301 -0.080194 -1.393780
v -3.212890 0.060069 1.372215
v -3.212889 0.060069 -1.361700
v -3.359833 -0.080194 1.340135
v -3.359831 -0.080194 -1.393780
v -3.060420 0.060069 1.372215
v -3.060419 0.060069 -1.361700
v -3.191080 -0.080194 1.340135
v -3.191078 -0.080194 -1.393780
v -2.891667 0.060069 1.372215
v -2.891666 0.060069 -1.361700
v -3.030625 -0.080194 1.340135
v -3.030623 -0.080194 -1.393780
v -2.731213 0.060069 1.372215
v -2.731211 0.060069 -1.361700
v -2.880891 -0.080194 1.340135
v -2.880889 -0.080194 -1.393780
v -2.581479 0.060069 1.372215
v -2.581477 0.060069 -1.361700
v -2.728421 -0.080194 1.340135
v -2.728419 -0.080194 -1.393780
v -2.429008 0.060069 1.372215
v -2.429007 0.060069 -1.361700
v -2.559668 -0.080194 1.340135
v -2.559666 -0.080194 -1.393780
v -2.260256 0.060069 1.372215
v -2.260254 0.060069 -1.361700
v -2.391079 -0.080194 1.340135
v -2.391077 -0.080194 -1.393780
v -2.091666 0.060069 1.372215
v -2.091665 0.060069 -1.361700
v -2.241345 -0.080194 1.340135
v -2.241343 -0.080194 -1.393780
v -1.941933 0.060069 1.372215
v -1.941931 0.060069 -1.361700
v -2.088875 -0.080194 1.340135
v -2.088873 -0.080194 -1.393780
v -1.789462 0.060069 1.372215
v -1.789461 0.060069 -1.361700
v -1.920122 -0.080194 1.340135
v -1.920120 -0.080194 -1.393780
v -1.620709 0.060069 1.372215
v -1.620708 0.060069 -1.361700
v -1.759667 -0.080194 1.340135
v -1.759666 -0.080194 -1.393780
v -1.460255 0.060069 1.372215
v -1.460253 0.060069 -1.361700
v -1.609933 -0.080194 1.340135
v -1.609932 -0.080194 -1.393780
v -1.310521 0.060069 1.372215
v -1.310519 0.060069 -1.361700
v -1.457463 -0.080194 1.340135
v -1.457461 -0.080194 -1.393780
v -1.158051 0.060069 1.372215
v -1.158049 0.060069 -1.361700
v -1.288710 -0.080194 1.340135
v -1.288708 -0.080194 -1.393780
v -0.989298 0.060069 1.372215
v -0.989296 0.060069 -1.361700
v -1.116364 -0.080194 1.340135
v -1.116362 -0.080194 -1.393780
v -0.816951 0.060069 1.372215
v -0.816950 0.060069 -1.361700
v -0.966630 -0.080194 1.340135
v -0.966628 -0.080194 -1.393780
v -0.667217 0.060069 1.372215
v -0.667216 0.060069 -1.361700
v -0.814159 -0.080194 1.340135
v -0.814158 -0.080194 -1.393780
v -0.514747 0.060069 1.372215
v -0.514745 0.060069 -1.361700
v -0.645406 -0.080194 1.340135
v -0.645405 -0.080194 -1.393780
v -0.345994 0.060069 1.372215
v -0.345993 0.060069 -1.361700
v -0.484952 -0.080194 1.340135
v -0.484950 -0.080194 -1.393780
v -0.185539 0.060069 1.372215
v -0.185538 0.060069 -1.361700
v -0.335218 -0.080194 1.340135
v -0.335216 -0.080194 -1.393780
v -0.035806 0.060069 1.372215
v -0.035804 0.060069 -1.361700
v -0.182748 -0.080194 1.340135
v -0.182746 -0.080194 -1.393780
v 0.116665 0.060069 1.372215
v 0.116666 0.060069 -1.361700
v -0.013995 -0.080194 1.340135
v -0.013993 -0.080194 -1.393780
v 0.285418 0.060069 1.372215
v 0.285419 0.060069 -1.361700
v 0.154594 -0.080194 1.340135
v 0.154596 -0.080194 -1.393780
v 0.454007 0.060069 1.372215
v 0.454008 0.060069 -1.361700
v 0.304328 -0.080194 1.340135
v 0.304330 -0.080194 -1.393780
v 0.603741 0.060069 1.372215
v 0.603742 0.060069 -1.361700
v 0.456799 -0.080194 1.340135
v 0.456800 -0.080194 -1.393780
v 0.756211 0.060069 1.372215
v 0.756212 0.060069 -1.361700
v 0.625552 -0.080194 1.340135
v 0.625553 -0.080194 -1.393780
v 0.924964 0.060069 1.372215
v 0.924965 0.060069 -1.361700
v 0.786006 -0.080194 1.340135
v 0.786008 -0.080194 -1.393780
v 1.085418 0.060069 1.372215
v 1.085420 0.060069 -1.361700
v 0.935740 -0.080194 1.340135
v 0.935742 -0.080194 -1.393780
v 1.235152 0.060069 1.372215
v 1.235154 0.060069 -1.361700
v 1.088210 -0.080194 1.340135
v 1.088212 -0.080194 -1.393780
v 1.387623 0.060069 1.372215
v 1.387624 0.060069 -1.361700
v 1.256963 -0.080194 1.340135
v 1.256965 -0.080194 -1.393780
v 1.556376 0.060069 1.372215
v 1.556377 0.060069 -1.361700
v 1.424197 -0.080194 1.340135
v 1.424199 -0.080194 -1.393780
v 1.723610 0.060069 1.372215
v 1.723611 0.060069 -1.361700
v 1.573931 -0.080194 1.340135
v 1.573933 -0.080194 -1.393780
v 1.873344 0.060069 1.372215
v 1.873345 0.060069 -1.361700
v 1.726402 -0.080194 1.340135
v 1.726403 -0.080194 -1.393780
v 2.025814 0.060069 1.372215
v 2.025815 0.060069 -1.361700
v 1.895155 -0.080194 1.340135
v 1.895156 -0.080194 -1.393780
v 2.194567 0.060069 1.372215
v 2.194568 0.060069 -1.361700
v 2.055609 -0.080194 1.340135
v 2.055611 -0.080194 -1.393780
v 2.355021 0.060069 1.372215
v 2.355023 0.060069 -1.361700
v 2.205343 -0.080194 1.340135
v 2.205345 -0.080194 -1.393780
v 2.504755 0.060069 1.372215
v 2.504757 0.060069 -1.361700
v 2.357813 -0.080194 1.340135
v 2.357815 -0.080194 -1.393780
v 2.657226 0.060069 1.372215
v 2.657227 0.060069 -1.361700
v 2.526566 -0.080194 1.340135
v 2.526568 -0.080194 -1.393780
v 2.825979 0.060069 1.372215
v 2.825980 0.060069 -1.361700
v 2.695155 -0.080194 1.340135
v 2.695157 -0.080194 -1.393780
v 2.994568 0.060069 1.372215
v 2.994569 0.060069 -1.361700
v 2.844889 -0.080194 1.340135
v 2.844891 -0.080194 -1.393780
v 3.144302 0.060069 1.372215
v 3.144303 0.060069 -1.361700
v 2.997360 -0.080194 1.340135
v 2.997361 -0.080194 -1.393780
v 3.296772 0.060069 1.372215
v 3.296773 0.060069 -1.361700
v 3.166112 -0.080194 1.340135
v 3.166114 -0.080194 -1.393780
v 3.465525 0.060069 1.372215
v 3.465526 0.060069 -1.361700
v 3.326567 -0.080194 1.340135
v 3.326569 -0.080194 -1.393780
v 3.625979 0.060069 1.372215
v 3.625981 0.060069 -1.361700
vn -0.000000 1.000000 0.000000
vn -1.000000 0.000000 -0.000000
vn 0.010300 0.471600 -0.881800
vn 1.000000 -0.000000 0.000000
vn 0.007600 0.345000 0.938600
vn 0.000000 -1.000000 0.000000
vn 0.000000 0.923800 -0.382800
vn -0.000000 0.923800 0.382800
vn -0.424200 0.905600 -0.000000
usemtl Material
s off
f 5//1 8//1 7//1 6//1
f 9//2 5//2 6//2 10//2
f 10//3 6//3 7//3 12//3
f 12//4 7//4 8//4 11//4
f 5//5 9//5 11//5 8//5
f 11//6 9//6 1//6 4//6
f 12//6 3//6 2//6 10//6
f 17//7 18//7 1//7 4//7
f 20//7 19//7 15//7 13//7
f 18//7 20//7 13//7 1//7
f 19//7 17//7 4//7 15//7
f 21//8 22//8 3//8 2//8
f 22//8 24//8 16//8 3//8
f 23//8 21//8 2//8 14//8
f 24//8 23//8 14//8 16//8
f 11//6 4//6 3//6 12//6
f 9//6 10//6 2//6 1//6
f 26//1 25//1 13//1 15//1
f 27//1 28//1 16//1 14//1
f 25//1 27//1 14//1 13//1
f 28//1 26//1 15//1 16//1
f 8//9 7//9 29//9 30//9
f 34//9 33//9 35//9 36//9
f 38//9 37//9 39//9 40//9
f 42//9 41//9 43//9 44//9
f 46//9 45//9 47//9 48//9
f 50//9 49//9 51//9 52//9
f 54//9 53//9 55//9 56//9
f 58//9 57//9 59//9 60//9
f 62//9 61//9 63//9 64//9
f 66//9 65//9 67//9 68//9
f 70//9 69//9 71//9 72//9
f 74//9 73//9 75//9 76//9
f 78//9 77//9 79//9 80//9
f 82//9 81//9 83//9 84//9
f 86//9 85//9 87//9 88//9
f 90//9 89//9 91//9 92//9
f 94//9 93//9 95//9 96//9
f 98//9 97//9 99//9 100//9
f 102//9 101//9 103//9 104//9
f 106//9 105//9 107//9 108//9
f 110//9 109//9 111//9 112//9
f 114//9 113//9 115//9 116//9
f 118//9 117//9 119//9 120//9
f 122//9 121//9 123//9 124//9
f 126//9 125//9 127//9 128//9
f 130//9 129//9 131//9 132//9
f 134//9 133//9 135//9 136//9
f 138//9 137//9 139//9 140//9
f 142//9 141//9 143//9 144//9
f 146//9 145//9 147//9 148//9
f 150//9 149//9 151//9 152//9
f 154//9 153//9 155//9 156//9
f 158//9 157//9 159//9 160//9
f 162//9 161//9 163//9 164//9
f 166//9 165//9 167//9 168//9
f 170//9 169//9 171//9 172//9
f 174//9 173//9 175//9 176//9
f 178//9 177//9 179//9 180//9
f 182//9 181//9 183//9 184//9
f 186//9 185//9 187//9 188//9
f 190//9 189//9 191//9 192//9
f 194//9 193//9 195//9 196//9
f 198//9 197//9 199//9 200//9
f 202//9 201//9 203//9 204//9
f 206//9 205//9 207//9 208//9
l 31 32
