# Blender v2.75 (sub 0) OBJ File: 'grabby_stuff3.blend'
# www.blender.org
mtllib grabby_stuff3.mtl
o Cube2_Cube.001
v -3.662037 -0.080194 1.340135
v -3.662035 -0.080194 -1.393780
v -3.362624 0.060069 1.372215
v -3.362623 0.060069 -1.361700
v -3.512303 -0.080194 1.340135
v -3.512301 -0.080194 -1.393780
v -3.212890 0.060069 1.372215
v -3.212889 0.060069 -1.361700
v -3.359833 -0.080194 1.340135
v -3.359831 -0.080194 -1.393780
v -3.060420 0.060069 1.372215
v -3.060419 0.060069 -1.361700
v -3.191080 -0.080194 1.340135
v -3.191078 -0.080194 -1.393780
v -2.891667 0.060069 1.372215
v -2.891666 0.060069 -1.361700
v -3.030625 -0.080194 1.340135
v -3.030623 -0.080194 -1.393780
v -2.731213 0.060069 1.372215
v -2.731211 0.060069 -1.361700
v -2.880891 -0.080194 1.340135
v -2.880889 -0.080194 -1.393780
v -2.581479 0.060069 1.372215
v -2.581477 0.060069 -1.361700
v -2.728421 -0.080194 1.340135
v -2.728419 -0.080194 -1.393780
v -2.429008 0.060069 1.372215
v -2.429007 0.060069 -1.361700
v -2.559668 -0.080194 1.340135
v -2.559666 -0.080194 -1.393780
v -2.260256 0.060069 1.372215
v -2.260254 0.060069 -1.361700
v -2.391079 -0.080194 1.340135
v -2.391077 -0.080194 -1.393780
v -2.091666 0.060069 1.372215
v -2.091665 0.060069 -1.361700
v -2.241345 -0.080194 1.340135
v -2.241343 -0.080194 -1.393780
v -1.941933 0.060069 1.372215
v -1.941931 0.060069 -1.361700
v -2.088875 -0.080194 1.340135
v -2.088873 -0.080194 -1.393780
v -1.789462 0.060069 1.372215
v -1.789461 0.060069 -1.361700
v -1.920122 -0.080194 1.340135
v -1.920120 -0.080194 -1.393780
v -1.620709 0.060069 1.372215
v -1.620708 0.060069 -1.361700
v -1.759667 -0.080194 1.340135
v -1.759666 -0.080194 -1.393780
v -1.460255 0.060069 1.372215
v -1.460253 0.060069 -1.361700
v -1.609933 -0.080194 1.340135
v -1.609932 -0.080194 -1.393780
v -1.310521 0.060069 1.372215
v -1.310519 0.060069 -1.361700
v -1.457463 -0.080194 1.340135
v -1.457461 -0.080194 -1.393780
v -1.158051 0.060069 1.372215
v -1.158049 0.060069 -1.361700
v -1.288710 -0.080194 1.340135
v -1.288708 -0.080194 -1.393780
v -0.989298 0.060069 1.372215
v -0.989296 0.060069 -1.361700
v -1.116364 -0.080194 1.340135
v -1.116362 -0.080194 -1.393780
v -0.816951 0.060069 1.372215
v -0.816950 0.060069 -1.361700
v -0.966630 -0.080194 1.340135
v -0.966628 -0.080194 -1.393780
v -0.667217 0.060069 1.372215
v -0.667216 0.060069 -1.361700
v -0.814159 -0.080194 1.340135
v -0.814158 -0.080194 -1.393780
v -0.514747 0.060069 1.372215
v -0.514745 0.060069 -1.361700
v -0.645406 -0.080194 1.340135
v -0.645405 -0.080194 -1.393780
v -0.345994 0.060069 1.372215
v -0.345993 0.060069 -1.361700
v -0.484952 -0.080194 1.340135
v -0.484950 -0.080194 -1.393780
v -0.185539 0.060069 1.372215
v -0.185538 0.060069 -1.361700
v -0.335218 -0.080194 1.340135
v -0.335216 -0.080194 -1.393780
v -0.035806 0.060069 1.372215
v -0.035804 0.060069 -1.361700
v -0.182748 -0.080194 1.340135
v -0.182746 -0.080194 -1.393780
v 0.116665 0.060069 1.372215
v 0.116666 0.060069 -1.361700
v -0.013995 -0.080194 1.340135
v -0.013993 -0.080194 -1.393780
v 0.285418 0.060069 1.372215
v 0.285419 0.060069 -1.361700
v 0.154594 -0.080194 1.340135
v 0.154596 -0.080194 -1.393780
v 0.454007 0.060069 1.372215
v 0.454008 0.060069 -1.361700
v 0.304328 -0.080194 1.340135
v 0.304330 -0.080194 -1.393780
v 0.603741 0.060069 1.372215
v 0.603742 0.060069 -1.361700
v 0.456799 -0.080194 1.340135
v 0.456800 -0.080194 -1.393780
v 0.756211 0.060069 1.372215
v 0.756212 0.060069 -1.361700
v 0.625552 -0.080194 1.340135
v 0.625553 -0.080194 -1.393780
v 0.924964 0.060069 1.372215
v 0.924965 0.060069 -1.361700
v 0.786006 -0.080194 1.340135
v 0.786008 -0.080194 -1.393780
v 1.085418 0.060069 1.372215
v 1.085420 0.060069 -1.361700
v 0.935740 -0.080194 1.340135
v 0.935742 -0.080194 -1.393780
v 1.235152 0.060069 1.372215
v 1.235154 0.060069 -1.361700
v 1.088210 -0.080194 1.340135
v 1.088212 -0.080194 -1.393780
v 1.387623 0.060069 1.372215
v 1.387624 0.060069 -1.361700
v 1.256963 -0.080194 1.340135
v 1.256965 -0.080194 -1.393780
v 1.556376 0.060069 1.372215
v 1.556377 0.060069 -1.361700
v 1.424197 -0.080194 1.340135
v 1.424199 -0.080194 -1.393780
v 1.723610 0.060069 1.372215
v 1.723611 0.060069 -1.361700
v 1.573931 -0.080194 1.340135
v 1.573933 -0.080194 -1.393780
v 1.873344 0.060069 1.372215
v 1.873345 0.060069 -1.361700
v 1.726402 -0.080194 1.340135
v 1.726403 -0.080194 -1.393780
v 2.025814 0.060069 1.372215
v 2.025815 0.060069 -1.361700
v 1.895155 -0.080194 1.340135
v 1.895156 -0.080194 -1.393780
v 2.194567 0.060069 1.372215
v 2.194568 0.060069 -1.361700
v 2.055609 -0.080194 1.340135
v 2.055611 -0.080194 -1.393780
v 2.355021 0.060069 1.372215
v 2.355023 0.060069 -1.361700
v 2.205343 -0.080194 1.340135
v 2.205345 -0.080194 -1.393780
v 2.504755 0.060069 1.372215
v 2.504757 0.060069 -1.361700
v 2.357813 -0.080194 1.340135
v 2.357815 -0.080194 -1.393780
v 2.657226 0.060069 1.372215
v 2.657227 0.060069 -1.361700
v 2.526566 -0.080194 1.340135
v 2.526568 -0.080194 -1.393780
v 2.825979 0.060069 1.372215
v 2.825980 0.060069 -1.361700
v 2.695155 -0.080194 1.340135
v 2.695157 -0.080194 -1.393780
v 2.994568 0.060069 1.372215
v 2.994569 0.060069 -1.361700
v 2.844889 -0.080194 1.340135
v 2.844891 -0.080194 -1.393780
v 3.144302 0.060069 1.372215
v 3.144303 0.060069 -1.361700
v 2.997360 -0.080194 1.340135
v 2.997361 -0.080194 -1.393780
v 3.296772 0.060069 1.372215
v 3.296773 0.060069 -1.361700
v 3.166112 -0.080194 1.340135
v 3.166114 -0.080194 -1.393780
v 3.465525 0.060069 1.372215
v 3.465526 0.060069 -1.361700
v 3.326567 -0.080194 1.340135
v 3.326569 -0.080194 -1.393780
v 3.625979 0.060069 1.372215
v 3.625981 0.060069 -1.361700
vn -0.424200 0.905600 -0.000000
usemtl Material
s off
f 2//1 1//1 3//1 4//1
f 6//1 5//1 7//1 8//1
f 10//1 9//1 11//1 12//1
f 14//1 13//1 15//1 16//1
f 18//1 17//1 19//1 20//1
f 22//1 21//1 23//1 24//1
f 26//1 25//1 27//1 28//1
f 30//1 29//1 31//1 32//1
f 34//1 33//1 35//1 36//1
f 38//1 37//1 39//1 40//1
f 42//1 41//1 43//1 44//1
f 46//1 45//1 47//1 48//1
f 50//1 49//1 51//1 52//1
f 54//1 53//1 55//1 56//1
f 58//1 57//1 59//1 60//1
f 62//1 61//1 63//1 64//1
f 66//1 65//1 67//1 68//1
f 70//1 69//1 71//1 72//1
f 74//1 73//1 75//1 76//1
f 78//1 77//1 79//1 80//1
f 82//1 81//1 83//1 84//1
f 86//1 85//1 87//1 88//1
f 90//1 89//1 91//1 92//1
f 94//1 93//1 95//1 96//1
f 98//1 97//1 99//1 100//1
f 102//1 101//1 103//1 104//1
f 106//1 105//1 107//1 108//1
f 110//1 109//1 111//1 112//1
f 114//1 113//1 115//1 116//1
f 118//1 117//1 119//1 120//1
f 122//1 121//1 123//1 124//1
f 126//1 125//1 127//1 128//1
f 130//1 129//1 131//1 132//1
f 134//1 133//1 135//1 136//1
f 138//1 137//1 139//1 140//1
f 142//1 141//1 143//1 144//1
f 146//1 145//1 147//1 148//1
f 150//1 149//1 151//1 152//1
f 154//1 153//1 155//1 156//1
f 158//1 157//1 159//1 160//1
f 162//1 161//1 163//1 164//1
f 166//1 165//1 167//1 168//1
f 170//1 169//1 171//1 172//1
f 174//1 173//1 175//1 176//1
f 178//1 177//1 179//1 180//1
o Cube
v 3.501662 0.080194 -1.377337
v 3.501662 0.080194 1.377337
v -3.501662 0.080194 1.377337
v -3.501661 0.080194 -1.377337
v 3.662037 -0.080194 -1.511702
v 3.662033 -0.080194 1.511704
v -3.662037 -0.080194 1.340135
v -3.662035 -0.080194 -1.393780
v 3.662035 0.080194 -1.511703
v 3.662035 0.080194 1.511703
v -3.662034 0.080194 -1.511704
v -3.662036 0.080194 1.511703
v 0.999295 0.487994 -0.393061
v 0.999295 0.487994 0.393061
v -0.999295 0.487994 -0.393061
v -0.999295 0.487994 0.393061
v -2.571444 0.097885 -1.334637
v 2.571445 0.097885 -1.334637
v -0.286193 0.470303 -0.435761
v 0.286193 0.470303 -0.435761
v 2.808572 0.093375 1.345522
v -2.808573 0.093375 1.345522
v 0.467974 0.474813 0.424876
v -0.467975 0.474813 0.424876
v 0.881590 0.487994 -0.344472
v -0.881589 0.487994 -0.344472
v 0.881590 0.487994 0.344472
v -0.881590 0.487994 0.344471
v -3.362624 0.060069 1.547179
v -3.362623 0.060069 -1.476226
vn -0.000000 1.000000 0.000000
vn -1.000000 0.000000 -0.000000
vn 0.010300 0.471600 -0.881800
vn 1.000000 -0.000000 0.000000
vn 0.007600 0.345000 0.938600
vn 0.000000 -1.000000 0.000000
vn 0.000000 0.923800 -0.382800
vn -0.000000 0.923800 0.382800
usemtl Material
s off
f 185//2 188//2 187//2 186//2
f 189//3 185//3 186//3 190//3
f 190//4 186//4 187//4 192//4
f 192//5 187//5 188//5 191//5
f 185//6 189//6 191//6 188//6
f 191//7 189//7 181//7 184//7
f 192//7 183//7 182//7 190//7
f 197//8 198//8 181//8 184//8
f 200//8 199//8 195//8 193//8
f 198//8 200//8 193//8 181//8
f 199//8 197//8 184//8 195//8
f 201//9 202//9 183//9 182//9
f 202//9 204//9 196//9 183//9
f 203//9 201//9 182//9 194//9
f 204//9 203//9 194//9 196//9
f 191//7 184//7 183//7 192//7
f 189//7 190//7 182//7 181//7
f 206//2 205//2 193//2 195//2
f 207//2 208//2 196//2 194//2
f 205//2 207//2 194//2 193//2
f 208//2 206//2 195//2 196//2
l 209 210
