# Blender v2.77 (sub 0) OBJ File: 'top_light.blend'
# www.blender.org
mtllib top_light.mtl
o Icosphere.002
v 0.000000 -0.041708 -5.114291
v -1.749191 -0.041708 -4.805862
v -3.287403 -0.041708 -3.917774
v -4.429106 -0.041708 -2.557146
v -5.036594 -0.041708 -0.888087
v -5.036593 -0.041708 0.888088
v -4.429106 -0.041708 2.557146
v -3.287403 -0.041708 3.917774
v -1.749191 -0.041708 4.805862
v -0.000001 -0.041708 5.114291
v 1.749190 -0.041708 4.805862
v 3.287402 -0.041708 3.917775
v 4.429105 -0.041708 2.557147
v 5.036593 -0.041708 0.888090
v 5.036594 -0.041708 -0.888085
v 4.429108 -0.041708 -2.557143
v 3.287406 -0.041708 -3.917772
v 1.749194 -0.041708 -4.805861
v -1.537676 0.000000 -4.224730
v -0.000000 0.000000 -4.495864
v -2.889886 0.000000 -3.444032
v -3.893533 0.000000 -2.247932
v -4.427562 0.000000 -0.780698
v -4.427562 0.000000 0.780699
v -3.893533 0.000000 2.247933
v -2.889886 0.000000 3.444032
v -1.537676 0.000000 4.224730
v -0.000001 0.000000 4.495864
v 1.537675 0.000000 4.224730
v 2.889885 0.000000 3.444032
v 3.893532 0.000000 2.247933
v 4.427562 0.000000 0.780701
v 4.427563 0.000000 -0.780697
v 3.893534 0.000000 -2.247930
v 2.889888 0.000000 -3.444030
v 1.537679 0.000000 -4.224730
v -1.537676 0.253819 -4.224730
v -0.000000 0.253819 -4.495864
v -2.889886 0.253819 -3.444032
v -3.893533 0.253819 -2.247932
v -4.427562 0.253819 -0.780698
v -4.427562 0.253819 0.780699
v -3.893533 0.253819 2.247933
v -2.889886 0.253819 3.444032
v -1.537676 0.253819 4.224730
v -0.000001 0.253819 4.495864
v 1.537675 0.253819 4.224730
v 2.889885 0.253819 3.444032
v 3.893532 0.253819 2.247933
v 4.427562 0.253819 0.780701
v 4.427563 0.253819 -0.780697
v 3.893534 0.253819 -2.247930
v 2.889888 0.253819 -3.444030
v 1.537679 0.253819 -4.224730
v -1.749191 0.253819 -4.805862
v 0.000000 0.253819 -5.114291
v -3.287403 0.253819 -3.917774
v -4.429106 0.253819 -2.557146
v -5.036594 0.253819 -0.888087
v -5.036593 0.253819 0.888088
v -4.429106 0.253819 2.557146
v -3.287403 0.253819 3.917774
v -1.749191 0.253819 4.805862
v -0.000001 0.253819 5.114291
v 1.749190 0.253819 4.805862
v 3.287402 0.253819 3.917775
v 4.429105 0.253819 2.557147
v 5.036593 0.253819 0.888090
v 5.036594 0.253819 -0.888085
v 4.429108 0.253819 -2.557143
v 3.287406 0.253819 -3.917772
v 1.749194 0.253819 -4.805861
vn 0.7660 0.0000 0.6428
vn -0.7660 0.0000 0.6428
vn 0.5000 0.0000 0.8660
vn -0.9397 0.0000 0.3420
vn 0.1736 0.0000 0.9848
vn -1.0000 0.0000 -0.0000
vn -0.1736 0.0000 0.9848
vn -0.5000 0.0000 0.8660
vn -0.9397 0.0000 -0.3420
vn -0.7660 0.0000 -0.6428
vn -0.5000 0.0000 -0.8660
vn -0.1736 0.0000 -0.9848
vn 0.1736 0.0000 -0.9848
vn 0.0000 1.0000 0.0000
vn 0.9397 0.0000 0.3420
vn 1.0000 0.0000 -0.0000
vn 0.9397 0.0000 -0.3420
vn 0.7660 0.0000 -0.6428
vn 0.5000 0.0000 -0.8660
g Icosphere.002_Icosphere.002_top_light_exterior
usemtl top_light_exterior
s off
f 21//1 40//1 22//1
f 34//2 53//2 35//2
f 12//3 65//3 11//3
f 19//3 39//3 21//3
f 33//4 52//4 34//4
f 11//5 64//5 10//5
f 20//5 37//5 19//5
f 32//6 51//6 33//6
f 10//7 63//7 9//7
f 9//8 62//8 8//8
f 31//9 50//9 32//9
f 30//10 49//10 31//10
f 8//2 61//2 7//2
f 29//11 48//11 30//11
f 7//4 60//4 6//4
f 28//12 47//12 29//12
f 6//6 59//6 5//6
f 1//13 72//13 18//13
f 38//14 55//14 37//14
f 39//14 55//14 57//14
f 40//14 57//14 58//14
f 40//14 59//14 41//14
f 41//14 60//14 42//14
f 42//14 61//14 43//14
f 44//14 61//14 62//14
f 45//14 62//14 63//14
f 45//14 64//14 46//14
f 46//14 65//14 47//14
f 47//14 66//14 48//14
f 48//14 67//14 49//14
f 49//14 68//14 50//14
f 50//14 69//14 51//14
f 51//14 70//14 52//14
f 52//14 71//14 53//14
f 53//14 72//14 54//14
f 54//14 56//14 38//14
f 13//1 66//1 12//1
f 35//8 54//8 36//8
f 22//15 41//15 23//15
f 14//15 67//15 13//15
f 36//7 38//7 20//7
f 23//16 42//16 24//16
f 15//16 68//16 14//16
f 2//12 56//12 1//12
f 24//17 43//17 25//17
f 16//17 69//17 15//17
f 3//11 55//11 2//11
f 25//18 44//18 26//18
f 17//18 70//18 16//18
f 4//10 57//10 3//10
f 26//19 45//19 27//19
f 18//19 71//19 17//19
f 5//9 58//9 4//9
f 27//13 46//13 28//13
f 21//1 39//1 40//1
f 34//2 52//2 53//2
f 12//3 66//3 65//3
f 19//3 37//3 39//3
f 33//4 51//4 52//4
f 11//5 65//5 64//5
f 20//5 38//5 37//5
f 32//6 50//6 51//6
f 10//7 64//7 63//7
f 9//8 63//8 62//8
f 31//9 49//9 50//9
f 30//10 48//10 49//10
f 8//2 62//2 61//2
f 29//11 47//11 48//11
f 7//4 61//4 60//4
f 28//12 46//12 47//12
f 6//6 60//6 59//6
f 1//13 56//13 72//13
f 38//14 56//14 55//14
f 39//14 37//14 55//14
f 40//14 39//14 57//14
f 40//14 58//14 59//14
f 41//14 59//14 60//14
f 42//14 60//14 61//14
f 44//14 43//14 61//14
f 45//14 44//14 62//14
f 45//14 63//14 64//14
f 46//14 64//14 65//14
f 47//14 65//14 66//14
f 48//14 66//14 67//14
f 49//14 67//14 68//14
f 50//14 68//14 69//14
f 51//14 69//14 70//14
f 52//14 70//14 71//14
f 53//14 71//14 72//14
f 54//14 72//14 56//14
f 13//1 67//1 66//1
f 35//8 53//8 54//8
f 22//15 40//15 41//15
f 14//15 68//15 67//15
f 36//7 54//7 38//7
f 23//16 41//16 42//16
f 15//16 69//16 68//16
f 2//12 55//12 56//12
f 24//17 42//17 43//17
f 16//17 70//17 69//17
f 3//11 57//11 55//11
f 25//18 43//18 44//18
f 17//18 71//18 70//18
f 4//10 58//10 57//10
f 26//19 44//19 45//19
f 18//19 72//19 71//19
f 5//9 59//9 58//9
f 27//13 45//13 46//13
o Icosphere.001
v 0.840223 0.603023 2.585985
v -2.199775 0.603022 1.598212
v -2.199775 0.603022 -1.598212
v 0.840223 0.603023 -2.585985
v 2.719067 0.603019 0.000000
v 0.000000 1.141004 0.000000
v 2.891228 0.167776 0.939402
v 2.891228 0.167776 -0.939402
v 0.000000 0.167776 3.040013
v 1.786876 0.167776 2.459421
v -2.891228 0.167776 0.939402
v -1.786876 0.167776 2.459421
v -1.786876 0.167776 -2.459421
v -2.891228 0.167776 -0.939402
v 1.786876 0.167776 -2.459421
v 0.000000 0.167776 -3.040013
v 2.092105 0.679437 1.519997
v -0.799125 0.679438 2.459406
v -2.585980 0.679437 0.000000
v -0.799125 0.679438 -2.459406
v 2.092105 0.679437 -1.519997
v 0.493867 0.995656 1.519992
v 1.598225 0.995654 0.000000
v -1.292986 0.995656 0.939399
v -1.292986 0.995656 -0.939399
v 0.493867 0.995656 -1.519992
vn 0.1860 0.9401 0.2858
vn -0.2144 0.9401 0.2652
vn -0.3185 0.9401 -0.1219
vn 0.0175 0.9401 -0.3406
vn 0.3293 0.9401 -0.0886
vn 0.0904 0.9937 -0.0657
vn 0.1922 0.9714 -0.1396
vn 0.1860 0.9401 -0.2858
vn -0.0345 0.9937 -0.1062
vn -0.0734 0.9714 -0.2259
vn -0.2144 0.9401 -0.2652
vn -0.1117 0.9937 0.0000
vn -0.2376 0.9714 0.0000
vn -0.3185 0.9401 0.1219
vn -0.0345 0.9937 0.1062
vn -0.0734 0.9714 0.2259
vn 0.0175 0.9401 0.3406
vn 0.0904 0.9937 0.0657
vn 0.1922 0.9714 0.1396
vn 0.3293 0.9401 0.0886
vn 0.6362 0.7379 -0.2253
vn 0.6948 0.5123 -0.5048
vn 0.4109 0.7379 -0.5354
vn -0.0177 0.7379 -0.6747
vn -0.2654 0.5123 -0.8168
vn -0.3822 0.7379 -0.5562
vn -0.6471 0.7379 -0.1917
vn -0.8588 0.5123 0.0000
vn -0.6471 0.7379 0.1917
vn -0.3822 0.7379 0.5562
vn -0.2654 0.5123 0.8168
vn -0.0177 0.7379 0.6747
vn 0.4109 0.7379 0.5354
vn 0.6948 0.5123 0.5048
vn 0.6362 0.7379 0.2253
vn 0.2874 0.3678 -0.8844
vn -0.7523 0.3678 -0.5466
vn -0.7523 0.3678 0.5466
vn 0.2874 0.3678 0.8844
vn 0.9299 0.3678 0.0000
g Icosphere.001_Icosphere.001_top_light_glass
usemtl top_light_glass
s off
f 73//20 89//20 94//20
f 74//21 90//21 96//21
f 75//22 91//22 97//22
f 76//23 92//23 98//23
f 77//24 93//24 95//24
f 95//25 98//25 78//25
f 95//26 93//26 98//26
f 93//27 76//27 98//27
f 98//28 97//28 78//28
f 98//29 92//29 97//29
f 92//30 75//30 97//30
f 97//31 96//31 78//31
f 97//32 91//32 96//32
f 91//33 74//33 96//33
f 96//34 94//34 78//34
f 96//35 90//35 94//35
f 90//36 73//36 94//36
f 94//37 95//37 78//37
f 94//38 89//38 95//38
f 89//39 77//39 95//39
f 80//40 93//40 77//40
f 80//41 87//41 93//41
f 87//42 76//42 93//42
f 88//43 92//43 76//43
f 88//44 85//44 92//44
f 85//45 75//45 92//45
f 86//46 91//46 75//46
f 86//47 83//47 91//47
f 83//48 74//48 91//48
f 84//49 90//49 74//49
f 84//50 81//50 90//50
f 81//51 73//51 90//51
f 82//52 89//52 73//52
f 82//53 79//53 89//53
f 79//54 77//54 89//54
f 87//55 88//55 76//55
f 85//56 86//56 75//56
f 83//57 84//57 74//57
f 81//58 82//58 73//58
f 79//59 80//59 77//59
o Icosphere
v 0.000000 -0.041708 -5.114291
v -1.749191 -0.041708 -4.805862
v -3.287403 -0.041708 -3.917774
v -4.429106 -0.041708 -2.557146
v -5.036594 -0.041708 -0.888087
v -5.036593 -0.041708 0.888088
v -4.429106 -0.041708 2.557146
v -3.287403 -0.041708 3.917774
v -1.749191 -0.041708 4.805862
v -0.000001 -0.041708 5.114291
v 1.749190 -0.041708 4.805862
v 3.287402 -0.041708 3.917775
v 4.429105 -0.041708 2.557147
v 5.036593 -0.041708 0.888090
v 5.036594 -0.041708 -0.888085
v 4.429108 -0.041708 -2.557143
v 3.287406 -0.041708 -3.917772
v 1.749194 -0.041708 -4.805861
v 0.000000 0.324533 3.618944
v 1.237752 0.324533 3.400695
v 2.326212 0.324533 2.772272
v 3.134097 0.324533 1.809472
v 3.563964 0.324533 0.628423
v 3.563964 0.324533 -0.628423
v 3.134097 0.324533 -1.809472
v 2.326212 0.324533 -2.772272
v 1.237752 0.324533 -3.400695
v 0.000001 0.324533 -3.618944
v -1.237751 0.324533 -3.400695
v -2.326211 0.324533 -2.772272
v -3.134097 0.324533 -1.809473
v -3.563963 0.324533 -0.628424
v -3.563964 0.324533 0.628421
v -3.134098 0.324533 1.809470
v -2.326214 0.324533 2.772270
v -1.237754 0.324533 3.400694
v 0.951595 0.324533 2.614487
v 0.000000 0.324533 2.782279
v 1.788414 0.324533 2.131349
v 2.409524 0.324533 1.391139
v 2.740010 0.324533 0.483137
v 2.740010 0.324533 -0.483138
v 2.409524 0.324533 -1.391139
v 1.788414 0.324533 -2.131349
v 0.951596 0.324533 -2.614487
v 0.000001 0.324533 -2.782279
v -0.951595 0.324533 -2.614487
v -1.788414 0.324533 -2.131350
v -2.409524 0.324533 -1.391140
v -2.740010 0.324533 -0.483139
v -2.740010 0.324533 0.483136
v -2.409525 0.324533 1.391138
v -1.788416 0.324533 2.131348
v -0.951597 0.324533 2.614486
v -1.537676 0.000000 -4.224730
v -0.000000 0.000000 -4.495864
v -2.889886 0.000000 -3.444032
v -3.893533 0.000000 -2.247932
v -4.427562 0.000000 -0.780698
v -4.427562 0.000000 0.780699
v -3.893533 0.000000 2.247933
v -2.889886 0.000000 3.444032
v -1.537676 0.000000 4.224730
v -0.000001 0.000000 4.495864
v 1.537675 0.000000 4.224730
v 2.889885 0.000000 3.444032
v 3.893532 0.000000 2.247933
v 4.427562 0.000000 0.780701
v 4.427563 0.000000 -0.780697
v 3.893534 0.000000 -2.247930
v 2.889888 0.000000 -3.444030
v 1.537679 0.000000 -4.224730
vn 0.0000 1.0000 0.0000
vn 0.0611 0.9361 0.3464
vn 0.1759 0.9361 0.3046
vn 0.2695 0.9361 0.2261
vn 0.3306 0.9361 0.1203
vn 0.3518 0.9361 0.0000
vn 0.3306 0.9361 -0.1203
vn 0.2695 0.9361 -0.2261
vn 0.1759 0.9361 -0.3046
vn 0.0611 0.9361 -0.3464
vn -0.0611 0.9361 -0.3464
vn -0.1759 0.9361 -0.3046
vn -0.2695 0.9361 -0.2261
vn -0.3306 0.9361 -0.1203
vn -0.3518 0.9361 -0.0000
vn -0.3306 0.9361 0.1203
vn -0.2695 0.9361 0.2261
vn -0.1759 0.9361 0.3046
vn -0.0611 0.9361 0.3464
vn 0.0000 -1.0000 -0.0000
g Icosphere_Icosphere_top_light_middle
usemtl top_light_middle
s off
f 136//60 118//60 135//60
f 135//60 119//60 137//60
f 138//60 119//60 120//60
f 138//60 121//60 139//60
f 139//60 122//60 140//60
f 140//60 123//60 141//60
f 141//60 124//60 142//60
f 142//60 125//60 143//60
f 143//60 126//60 144//60
f 144//60 127//60 145//60
f 145//60 128//60 146//60
f 146//60 129//60 147//60
f 147//60 130//60 148//60
f 148//60 131//60 149//60
f 149//60 132//60 150//60
f 150//60 133//60 151//60
f 151//60 134//60 152//60
f 152//60 117//60 136//60
f 163//61 117//61 162//61
f 164//62 118//62 163//62
f 165//63 119//63 164//63
f 166//64 120//64 165//64
f 167//65 121//65 166//65
f 168//66 122//66 167//66
f 169//67 123//67 168//67
f 170//68 124//68 169//68
f 154//69 125//69 170//69
f 154//70 127//70 126//70
f 153//71 128//71 127//71
f 155//72 129//72 128//72
f 156//73 130//73 129//73
f 157//74 131//74 130//74
f 158//75 132//75 131//75
f 159//76 133//76 132//76
f 160//77 134//77 133//77
f 161//78 117//78 134//78
f 111//79 105//79 103//79
f 136//60 117//60 118//60
f 135//60 118//60 119//60
f 138//60 137//60 119//60
f 138//60 120//60 121//60
f 139//60 121//60 122//60
f 140//60 122//60 123//60
f 141//60 123//60 124//60
f 142//60 124//60 125//60
f 143//60 125//60 126//60
f 144//60 126//60 127//60
f 145//60 127//60 128//60
f 146//60 128//60 129//60
f 147//60 129//60 130//60
f 148//60 130//60 131//60
f 149//60 131//60 132//60
f 150//60 132//60 133//60
f 151//60 133//60 134//60
f 152//60 134//60 117//60
f 163//61 118//61 117//61
f 164//62 119//62 118//62
f 165//63 120//63 119//63
f 166//64 121//64 120//64
f 167//65 122//65 121//65
f 168//66 123//66 122//66
f 169//67 124//67 123//67
f 170//68 125//68 124//68
f 154//69 126//69 125//69
f 154//70 153//70 127//70
f 153//71 155//71 128//71
f 155//72 156//72 129//72
f 156//73 157//73 130//73
f 157//74 158//74 131//74
f 158//75 159//75 132//75
f 159//76 160//76 133//76
f 160//77 161//77 134//77
f 161//78 162//78 117//78
f 101//79 100//79 99//79
f 99//79 116//79 115//79
f 115//79 114//79 113//79
f 113//79 112//79 115//79
f 111//79 110//79 109//79
f 109//79 108//79 107//79
f 107//79 106//79 105//79
f 105//79 104//79 103//79
f 103//79 102//79 112//79
f 101//79 99//79 115//79
f 115//79 112//79 101//79
f 111//79 109//79 105//79
f 107//79 105//79 109//79
f 103//79 112//79 111//79
f 112//79 102//79 101//79
