# Blender v2.77 (sub 0) OBJ File: 'arenaSP.blend'
# www.blender.org
mtllib arenaSP.mtl
o Tunnel_Icosphere.002
v 0.320336 -0.004698 0.242079
v 0.341557 -0.004698 0.211635
v 0.595008 0.022987 0.446041
v 0.621910 0.050208 0.430456
v 0.627666 0.024091 0.400125
v 0.610119 -0.004698 0.398839
v 0.588898 -0.004698 0.429284
v 0.359104 0.029118 0.212920
v 0.353348 0.055235 0.243251
v 0.326446 0.028014 0.258836
vt 0.4137 0.9517
vt 0.4083 0.9648
vt 0.4083 0.9648
vt 0.4239 0.9593
vt 0.4139 0.9756
vt 0.4239 0.9593
vt 0.4242 0.9723
vt 0.4139 0.9756
vt 0.7975 0.4245
vt 0.8041 0.4139
vt 0.8041 0.4139
vt 0.4137 0.9517
vt 0.4242 0.9723
vt 0.7975 0.4245
vn 0.3898 -0.7165 -0.5785
vn -0.7262 0.4661 -0.5053
vn -0.5426 0.2956 0.7863
vn 0.5457 0.2991 -0.7828
vn 0.0000 1.0000 0.0000
vn -0.3995 -0.7308 0.5535
vn -0.7262 0.4652 -0.5062
vn -0.7386 0.4352 -0.5149
vn -0.5527 0.2566 0.7929
vn 0.5411 0.3448 -0.7670
g Tunnel_Icosphere.002_None
usemtl None
s off
f 9/1/1 3/2/1 10/3/1
f 3/2/2 5/4/2 7/5/2
f 8/6/3 6/7/3 5/4/3
f 10/3/4 7/5/4 1/8/4
f 1/9/5 6/10/5 2/11/5
f 9/1/6 5/4/6 4/12/6
f 9/1/1 4/12/1 3/2/1
f 6/7/7 7/5/7 5/4/7
f 3/2/8 4/12/8 5/4/8
f 8/6/9 2/13/9 6/7/9
f 10/3/10 3/2/10 7/5/10
f 1/9/5 7/14/5 6/10/5
f 9/1/6 8/6/6 5/4/6
o Pedestal_Cylinder_Cylinder.001
v 0.021823 0.042520 -0.015159
v 0.021823 0.067780 -0.015159
v 0.032761 0.042520 -0.008844
v 0.032761 0.067780 -0.008844
v 0.032761 0.042520 0.003787
v 0.032761 0.067780 0.003787
v 0.021823 0.042520 0.010102
v 0.021823 0.067780 0.010102
v 0.010885 0.042520 0.003787
v 0.010885 0.067780 0.003787
v 0.010885 0.042520 -0.008844
v 0.010885 0.067780 -0.008844
vn 0.5000 0.0000 -0.8660
vn 1.0000 0.0000 0.0000
vn 0.5000 0.0000 0.8660
vn -0.5000 0.0000 0.8660
vn 0.0000 1.0000 0.0000
vn -0.5000 0.0000 -0.8660
vn -1.0000 0.0000 0.0000
vn 0.0000 -1.0000 0.0000
g Pedestal_Cylinder_Cylinder.001_None_NONE
usemtl None_NONE
s off
f 12//11 13//11 11//11
f 14//12 15//12 13//12
f 16//13 17//13 15//13
f 18//14 19//14 17//14
f 12//15 20//15 16//15
f 22//16 11//16 21//16
f 20//17 21//17 19//17
f 13//18 17//18 21//18
f 12//11 14//11 13//11
f 14//12 16//12 15//12
f 16//13 18//13 17//13
f 18//14 20//14 19//14
f 16//15 14//15 12//15
f 12//15 22//15 20//15
f 20//15 18//15 16//15
f 22//16 12//16 11//16
f 20//17 22//17 21//17
f 21//18 11//18 13//18
f 13//18 15//18 17//18
f 17//18 19//18 21//18
o Crystal_Cylinder
v 0.024299 0.203454 -0.035380
v 0.024299 0.270195 -0.035380
v 0.056036 0.203454 -0.012321
v 0.056036 0.270195 -0.012321
v 0.043913 0.203454 0.024988
v 0.043913 0.270195 0.024988
v 0.004684 0.203454 0.024988
v 0.004684 0.270195 0.024988
v -0.007439 0.203454 -0.012321
v -0.007439 0.270195 -0.012321
v 0.024299 0.321838 -0.002009
v 0.004684 0.203454 0.024988
v 0.043913 0.203454 0.024988
v 0.056036 0.203454 -0.012321
v 0.024299 0.203454 -0.035380
v -0.007439 0.203454 -0.012321
v 0.024299 0.152125 -0.002009
vn 0.5878 0.0000 -0.8090
vn 0.9511 0.0000 0.3090
vn -0.0000 0.0000 1.0000
vn -0.5878 0.0000 -0.8090
vn -0.9511 0.0000 0.3090
vn -0.8428 0.4633 0.2739
vn 0.8428 0.4633 0.2739
vn -0.5209 0.4633 -0.7170
vn 0.5209 0.4633 -0.7170
vn -0.0000 0.4633 0.8862
vn 0.8417 -0.4655 0.2735
vn -0.0000 -0.4655 0.8850
vn 0.5202 -0.4655 -0.7160
vn -0.8417 -0.4655 0.2735
vn -0.5202 -0.4655 -0.7160
g Crystal_Cylinder_None_NONE
usemtl None_NONE
s off
f 24//19 25//19 23//19
f 26//20 27//20 25//20
f 28//21 29//21 27//21
f 32//22 23//22 31//22
f 30//23 31//23 29//23
f 25//21 35//21 36//21
f 29//21 38//21 34//21
f 27//21 34//21 35//21
f 23//21 36//21 37//21
f 31//21 37//21 38//21
f 32//24 30//24 33//24
f 28//25 26//25 33//25
f 24//26 32//26 33//26
f 26//27 24//27 33//27
f 30//28 28//28 33//28
f 36//29 35//29 39//29
f 35//30 34//30 39//30
f 37//31 36//31 39//31
f 34//32 38//32 39//32
f 38//33 37//33 39//33
f 24//19 26//19 25//19
f 26//20 28//20 27//20
f 28//21 30//21 29//21
f 32//22 24//22 23//22
f 30//23 32//23 31//23
f 25//21 27//21 35//21
f 29//21 31//21 38//21
f 27//21 29//21 34//21
f 23//21 25//21 36//21
f 31//21 23//21 37//21
o Pedestal_Icosphere.001
v -0.071149 -0.002321 -0.067325
v -0.064987 -0.002321 0.077636
v 0.049072 -0.002321 0.114500
v 0.062153 -0.002321 -0.107723
v 0.134505 -0.002321 -0.008140
v -0.033502 0.013674 0.053700
v 0.038409 0.013674 0.076851
v 0.051676 0.013674 -0.072972
v 0.098174 0.013674 -0.008972
v -0.037662 0.013674 -0.045920
v -0.063410 0.013674 0.076445
v 0.050648 0.013674 0.113310
v 0.063730 0.013674 -0.108914
v 0.136082 0.013674 -0.009331
v -0.069572 0.013674 -0.068516
v -0.005602 0.030408 0.032475
v 0.027536 0.030408 0.043012
v 0.040974 0.030408 -0.040213
v 0.063690 0.030408 -0.008943
v -0.007923 0.030408 -0.025438
v -0.033116 0.030408 0.053397
v 0.038795 0.030408 0.076549
v 0.052062 0.030408 -0.073275
v 0.098560 0.030408 -0.009274
v -0.037276 0.030408 -0.046222
v -0.005355 0.042896 0.032242
v 0.027783 0.042896 0.042779
v 0.041221 0.042896 -0.040445
v 0.063938 0.042896 -0.009175
v -0.007676 0.042896 -0.025670
vn -0.9940 0.1011 0.0423
vn -0.3064 0.0243 0.9516
vn 0.8029 -0.1226 -0.5834
vn 0.8199 -0.0383 0.5712
vn -0.2898 -0.0426 -0.9561
vn -0.3060 0.1006 0.9467
vn 0.0000 1.0000 0.0000
vn -0.2892 -0.0121 -0.9572
vn -0.9988 0.0238 0.0417
vn 0.8087 -0.0293 -0.5875
vn 0.8206 -0.0086 0.5714
vn -0.2898 -0.0106 -0.9570
vn -0.3029 0.0237 0.9527
vn -0.9990 0.0205 0.0400
vn 0.8087 -0.0269 -0.5875
vn 0.8208 -0.0056 0.5712
vn -0.0000 -1.0000 0.0000
vn 0.8088 -0.0269 -0.5875
g Pedestal_Icosphere.001_None_NONE
usemtl None_NONE
s off
f 40//34 50//34 54//34
f 46//35 60//35 45//35
f 43//36 53//36 44//36
f 44//37 51//37 42//37
f 43//38 54//38 52//38
f 42//39 50//39 41//39
f 46//40 50//40 51//40
f 47//40 53//40 52//40
f 49//40 52//40 54//40
f 49//40 50//40 45//40
f 46//40 53//40 48//40
f 57//41 69//41 67//41
f 49//42 60//42 64//42
f 47//43 63//43 48//43
f 48//44 61//44 46//44
f 47//45 64//45 62//45
f 56//40 60//40 61//40
f 57//40 63//40 62//40
f 59//40 62//40 64//40
f 59//40 60//40 55//40
f 56//40 63//40 58//40
f 69//40 66//40 68//40
f 56//46 65//46 55//46
f 59//47 65//47 69//47
f 57//48 68//48 58//48
f 58//49 66//49 56//49
f 40//50 43//50 44//50
f 40//34 41//34 50//34
f 46//35 61//35 60//35
f 43//36 52//36 53//36
f 44//37 53//37 51//37
f 43//38 40//38 54//38
f 42//39 51//39 50//39
f 46//40 45//40 50//40
f 47//40 48//40 53//40
f 49//40 47//40 52//40
f 49//40 54//40 50//40
f 46//40 51//40 53//40
f 57//41 59//41 69//41
f 49//42 45//42 60//42
f 47//43 62//43 63//43
f 48//44 63//44 61//44
f 47//45 49//45 64//45
f 56//40 55//40 60//40
f 57//40 58//40 63//40
f 59//40 57//40 62//40
f 59//40 64//40 60//40
f 56//40 61//40 63//40
f 68//40 67//40 69//40
f 69//40 65//40 66//40
f 56//46 66//46 65//46
f 59//47 55//47 65//47
f 57//51 67//51 68//51
f 58//49 68//49 66//49
f 44//50 42//50 41//50
f 41//50 40//50 44//50
o Arena_Sphere_Icosphere
v 0.408782 1.277383 -0.283491
v -0.138108 1.254726 -0.473096
v -0.138108 1.254726 0.449965
v -0.457777 1.254726 0.009978
v 0.420110 1.254726 0.295226
v 0.669756 0.755431 -0.473095
v 0.254493 0.469507 -0.758338
v -0.208132 0.755435 -0.758338
v -0.607741 0.469507 -0.451545
v -0.750700 0.755438 -0.011565
v -0.582406 0.469507 0.463283
v 0.254493 0.469507 0.735207
v -0.208132 0.755435 0.735207
v 0.812716 0.469507 0.009981
v 0.669756 0.755431 0.449964
v -0.351093 -0.002185 0.295226
v 0.166144 -0.002185 0.463280
v 0.177471 -0.002185 -0.451551
v 0.497142 -0.002185 -0.011565
v -0.376424 -0.002185 -0.283491
v 0.320336 -0.004698 0.242079
v 0.341557 -0.004698 0.211635
v 0.359104 0.029118 0.212920
v 0.353348 0.055235 0.243251
v 0.326446 0.028014 0.258836
vt 0.8414 0.0000
vt 0.9918 0.0609
vt 0.9918 0.2579
vt 0.5887 0.6686
vt 0.4996 0.5071
vt 0.7494 0.4067
vt 0.2514 0.2783
vt 0.0916 0.3343
vt 0.0000 0.1750
vt 0.2514 0.1594
vt 0.5028 0.0560
vt 0.5028 0.2783
vt 0.3389 0.3343
vt 0.4996 0.3865
vt 0.4996 0.5963
vt 0.0891 0.6686
vt 0.2498 0.7207
vt 0.2498 0.9305
vt 0.0891 0.6686
vt 0.0000 0.5071
vt 0.2498 0.4067
vt 0.5028 0.1702
vt 0.5941 0.0000
vt 0.7498 0.0723
vt 0.2535 0.8395
vt 0.4996 0.7313
vt 0.4996 0.9409
vt 1.0000 0.3961
vt 1.0000 0.5959
vt 0.8410 0.6559
vt 0.8007 0.7460
vt 0.9961 0.7331
vt 0.9961 0.9428
vt 0.4996 0.8291
vt 0.7275 0.8332
vt 0.5958 1.0000
vt 0.8414 0.3187
vt 0.7498 0.1594
vt 0.5937 0.3343
vt 0.7494 0.6164
vt 0.0916 0.0000
vt 0.2514 0.0560
vt 0.3430 0.3343
vt 0.3430 0.0000
vt 0.3439 0.6686
vt 0.2498 0.4959
vt 0.1026 0.9950
vt 0.0000 0.8301
vt 0.0941 0.3343
vt 0.2498 0.6164
vt 0.7498 0.2821
vt 0.5920 0.3318
vt 0.3438 1.0000
vt 0.3497 0.6686
vt 0.7494 0.4932
vt 0.8415 0.3343
vt 0.8354 0.9949
vt 0.7463 0.8333
vt 0.7941 0.7566
vt 0.8490 0.6686
vt 0.7457 0.9373
vt 0.5900 0.6686
vt 0.7457 0.7277
vt 0.7463 0.8262
vt 0.7358 0.8230
vt 0.7361 0.8434
vt 0.7463 0.8397
vn 0.2774 0.4403 -0.8539
vn 0.0210 -0.9997 -0.0152
vn -0.8944 -0.4472 0.0000
vn -0.2764 -0.4472 0.8507
vn 0.7221 -0.4167 0.5522
vn 0.7483 -0.4167 -0.5161
vn -0.2647 -0.4283 -0.8640
vn -0.7330 0.4678 0.4938
vn 0.2560 0.4719 0.8437
vn 0.8916 0.4511 -0.0390
vn 0.0011 1.0000 0.0035
vn -0.6964 0.4738 -0.5389
vn 0.2775 0.4403 -0.8539
vn 0.2764 0.4472 -0.8507
vn 0.0337 -0.9992 0.0223
vn -0.0108 -0.9992 -0.0389
vn 0.7420 -0.4565 0.4910
vn 0.7399 -0.4283 0.5187
vn 0.7328 -0.4237 -0.5324
vn 0.7208 -0.4173 -0.5534
vn -0.2377 -0.4565 -0.8574
vn -0.3020 -0.4167 -0.8574
vn -0.6962 0.4678 0.5445
vn -0.7111 0.4768 0.5167
vn 0.2999 0.4852 0.8213
vn 0.3165 0.4523 0.8338
vn 0.8972 0.4416 0.0045
vn 0.8898 0.4545 -0.0417
vn 0.0030 1.0000 -0.0093
vn 0.0024 1.0000 0.0016
vn -0.0079 1.0000 0.0057
vn 0.0037 1.0000 -0.0002
vn -0.7386 0.4352 -0.5149
vn -0.6992 0.4740 -0.5352
vn -0.7507 0.4092 -0.5187
vn -0.7466 0.4085 -0.5251
vn -0.7045 0.4946 -0.5090
g Arena_Sphere_Icosphere_None
usemtl None
s off
f 81/15/52 86/16/52 85/17/52
f 72/18/53 73/19/53 70/20/53
f 75/21/54 83/22/54 84/23/54
f 77/24/55 75/25/55 70/26/55
f 78/27/56 77/28/56 71/29/56
f 80/30/57 79/31/57 73/32/57
f 81/33/58 82/34/58 74/35/58
f 88/36/59 83/37/59 75/38/59
f 77/39/60 89/40/60 87/41/60
f 80/42/61 85/43/61 89/44/61
f 91/45/62 87/46/62 89/47/62
f 84/48/63 93/49/63 81/50/63
f 85/17/64 80/51/64 81/15/64
f 82/52/65 81/15/65 80/51/65
f 71/53/66 70/20/66 73/19/66
f 74/54/67 72/18/67 70/20/67
f 84/23/54 74/55/54 70/56/54
f 70/56/54 75/21/54 84/23/54
f 70/26/55 71/57/55 77/24/55
f 77/24/55 76/58/55 75/25/55
f 71/29/68 73/59/68 79/60/68
f 79/60/69 78/27/69 71/29/69
f 73/32/70 72/61/70 80/30/70
f 82/62/71 80/30/71 72/61/71
f 72/63/72 74/35/72 82/34/72
f 84/64/73 81/33/73 74/35/73
f 75/38/74 76/65/74 87/66/74
f 87/66/75 88/36/75 75/38/75
f 87/41/76 76/67/76 77/39/76
f 77/39/77 78/68/77 89/40/77
f 89/44/78 78/69/78 79/70/78
f 79/70/79 80/42/79 89/44/79
f 85/71/80 86/72/80 90/73/80
f 90/73/81 91/45/81 89/47/81
f 88/74/82 87/46/82 91/45/82
f 89/47/83 85/71/83 90/73/83
f 86/75/84 81/50/84 93/49/84
f 84/48/85 83/76/85 93/49/85
f 88/77/86 91/78/86 92/79/86
f 88/77/84 92/79/84 93/49/84
f 94/80/87 90/81/87 86/75/87
f 83/76/88 88/77/88 93/49/88
f 93/49/84 94/80/84 86/75/84
