# Blender v2.75 (sub 0) OBJ File: 'arenaSPtextured.blend'
# www.blender.org
mtllib arenaSPtextured.mtl
o Tunnel_Icosphere.002
v 0.320336 -0.004698 0.242079
v 0.341557 -0.004698 0.211635
v 0.595008 0.022987 0.446041
v 0.621910 0.050208 0.430456
v 0.627666 0.024091 0.400125
v 0.610119 -0.004698 0.398839
v 0.588898 -0.004698 0.429284
v 0.359104 0.029118 0.212920
v 0.353348 0.055235 0.243251
v 0.326446 0.028014 0.258836
v 0.320336 -0.004698 0.242079
v 0.341557 -0.004698 0.211635
v 0.359104 0.029118 0.212920
v 0.353348 0.055235 0.243251
v 0.326446 0.028014 0.258836
v 0.320336 -0.004698 0.242079
v 0.341557 -0.004698 0.211635
v 0.359104 0.029118 0.212920
v 0.353348 0.055235 0.243251
v 0.326446 0.028014 0.258836
v 0.320336 -0.005224 0.242079
v 0.341557 -0.005224 0.211635
v 0.359104 0.029118 0.212920
v 0.353348 0.055235 0.243251
v 0.326446 0.028014 0.258836
v 0.309546 -0.005224 0.235078
v 0.329609 -0.005224 0.203859
v 0.333829 0.031044 0.195517
v 0.318822 0.060294 0.219063
v 0.303360 0.030305 0.242921
v 0.326446 0.028014 0.258836
v 0.353348 0.055235 0.243251
v 0.303360 0.030305 0.242921
v 0.318822 0.060294 0.219063
v 0.325407 0.030074 0.260708
v 0.352308 0.057295 0.245122
v 0.302320 0.032365 0.244792
v 0.317782 0.062354 0.220935
v 0.325407 0.030074 0.260708
v 0.352308 0.057295 0.245122
v 0.302320 0.032365 0.244792
v 0.317782 0.062354 0.220935
v 0.325407 0.030074 0.260708
v 0.352308 0.057295 0.245122
v 0.302320 0.032365 0.244792
v 0.317782 0.062354 0.220935
v 0.354618 0.057172 0.241749
v 0.360375 0.031056 0.211418
v 0.320093 0.062232 0.217562
v 0.335100 0.032982 0.194015
v 0.342883 -0.005833 0.209629
v 0.360429 0.028509 0.210914
v 0.330934 -0.005833 0.201853
v 0.335154 0.030436 0.193511
v 0.319008 -0.005903 0.243974
v 0.325119 0.027335 0.260731
v 0.308219 -0.005903 0.236972
v 0.302032 0.029626 0.244815
vt 0.413705 0.951679
vt 0.408340 0.964818
vt 0.413906 0.975615
vt 0.423880 0.959267
vt 0.424212 0.972259
vt 0.797472 0.424530
vt 0.804053 0.413908
vt 0.000000 0.000000
vn 0.389800 -0.716500 -0.578500
vn -0.726200 0.466100 -0.505300
vn -0.552700 0.256600 0.792900
vn 0.541100 0.344800 -0.767000
vn 0.000000 1.000000 -0.000000
vn -0.399500 -0.730800 0.553500
vn 0.000000 0.000000 1.000000
vn -0.820400 0.000000 -0.571800
vn -0.939500 0.000000 0.342600
vn -0.711600 0.385600 -0.587300
vn -0.676500 0.278000 -0.682000
vn 0.364600 -0.687600 -0.627900
vn -0.470400 -0.710900 0.522800
vn -0.877800 0.267800 -0.397200
vn -0.537200 0.244300 0.807300
vn 0.133900 0.969400 -0.205800
vn 0.524200 0.269600 -0.807800
vn -0.153400 0.959500 0.236400
vn -0.817600 0.371900 -0.439600
vn -0.726200 0.465200 -0.506200
vn -0.738600 0.435200 -0.514900
vn -0.542600 0.295600 0.786300
vn 0.545700 0.299100 -0.782800
vn 0.073100 0.000000 -0.997300
vn 0.339900 -0.697300 -0.631100
vn -0.446000 -0.688900 0.571500
vn -0.877800 0.267900 -0.397200
vn -0.528400 0.248200 0.811900
vn 0.562800 0.287300 -0.775000
vn 0.816400 0.014700 0.577300
vn 0.802200 -0.066200 0.593400
vn 0.857500 -0.033600 0.513500
vn 0.561900 -0.066000 -0.824600
vn 0.837900 0.027900 0.545100
vn -0.115300 -0.992400 -0.043000
vn -0.567600 -0.171500 0.805300
vn 0.817000 -0.095100 0.568700
vn 0.829800 -0.082500 0.551900
vn 0.819200 -0.099600 0.564800
g Tunnel_Icosphere.002_None
usemtl None
s off
f 9/1/1 4/1/1 3/2/1
f 7/3/2 3/2/2 5/4/2
f 8/4/3 2/5/3 6/5/3
f 10/2/4 3/2/4 7/3/4
f 1/6/5 7/6/5 6/7/5
f 9/1/6 8/4/6 5/4/6
f 9/1/7 10/2/7 15/2/7
f 2/5/7 8/4/7 13/4/7
f 10/2/7 1/3/7 11/3/7
f 1/6/7 2/7/7 12/7/7
f 8/4/7 9/1/7 14/1/7
f 12/5/7 13/4/7 18/4/7
f 15/2/7 11/3/7 16/3/7
f 13/4/7 14/1/7 19/1/7
f 11/6/7 12/7/7 17/7/7
f 14/1/7 15/2/7 20/2/7
f 18/4/7 19/1/7 24/1/7
f 17/7/8 22/7/8 21/6/8
f 19/1/7 20/2/7 25/2/7
f 17/5/7 18/4/7 23/4/7
f 20/2/9 16/3/9 21/3/9
f 24/1/7 25/2/7 31/2/7
f 22/5/10 23/4/10 52/4/10
f 21/6/5 22/7/5 27/7/5
f 29/1/7 24/1/7 32/1/7
f 38/1/7 36/1/7 40/1/7
f 31/2/11 35/2/11 36/1/11
f 40/1/7 39/2/7 43/2/7
f 36/1/7 35/2/7 39/2/7
f 35/2/7 37/2/7 41/2/7
f 43/2/12 45/2/12 46/1/12
f 39/2/7 41/2/7 45/2/7
f 42/1/7 40/1/7 44/1/7
f 48/4/13 47/1/13 49/1/13
f 23/4/14 24/1/14 47/1/14
f 51/5/15 52/4/15 54/4/15
f 22/7/16 51/7/16 53/7/16
f 55/3/17 57/3/17 58/2/17
f 26/6/18 57/6/18 55/6/18
f 25/2/19 21/3/19 55/3/19
f 10/2/1 9/1/1 3/2/1
f 5/4/20 6/5/20 7/3/20
f 3/2/21 4/1/21 5/4/21
f 5/4/22 8/4/22 6/5/22
f 1/3/23 10/2/23 7/3/23
f 2/7/5 1/6/5 6/7/5
f 4/1/6 9/1/6 5/4/6
f 14/1/7 9/1/7 15/2/7
f 12/5/7 2/5/7 13/4/7
f 15/2/7 10/2/7 11/3/7
f 11/6/7 1/6/7 12/7/7
f 13/4/7 8/4/7 14/1/7
f 17/5/7 12/5/7 18/4/7
f 20/2/7 15/2/7 16/3/7
f 18/4/7 13/4/7 19/1/7
f 16/6/7 11/6/7 17/7/7
f 19/1/7 14/1/7 20/2/7
f 23/4/7 18/4/7 24/1/7
f 16/6/8 17/7/8 21/6/8
f 24/1/7 19/1/7 25/2/7
f 22/5/24 17/5/24 23/4/24
f 25/2/7 20/2/7 21/3/7
f 32/1/7 24/1/7 31/2/7
f 51/5/10 22/5/10 52/4/10
f 26/6/5 21/6/5 27/7/5
f 34/1/7 29/1/7 32/1/7
f 42/1/7 38/1/7 40/1/7
f 32/1/11 31/2/11 36/1/11
f 44/1/7 40/1/7 43/2/7
f 40/1/7 36/1/7 39/2/7
f 39/2/7 35/2/7 41/2/7
f 44/1/25 43/2/25 46/1/25
f 43/2/7 39/2/7 45/2/7
f 46/1/7 42/1/7 44/1/7
f 50/4/26 48/4/26 49/1/26
f 48/4/27 23/4/27 47/1/27
f 53/5/28 51/5/28 54/4/28
f 27/7/16 22/7/16 53/7/16
f 56/2/29 55/3/29 58/2/29
f 21/6/18 26/6/18 55/6/18
f 56/2/19 25/2/19 55/3/19
g Tunnel_Icosphere.002_None_NONE
usemtl None_NONE
f 26/8/30 30/8/30 58/3/30
f 29/8/31 28/8/31 50/1/31
f 30/8/7 29/1/7 34/2/7
f 34/2/32 38/2/32 37/8/32
f 58/8/7 30/8/7 33/8/7
f 37/8/7 38/2/7 42/2/7
f 41/8/7 42/2/7 46/2/7
f 58/8/33 37/2/33 35/8/33
f 28/8/34 27/7/34 53/4/34
f 47/8/35 36/1/35 38/8/35
f 38/2/7 34/1/7 29/8/7
f 50/8/36 54/4/36 52/8/36
f 28/8/37 54/8/37 50/8/37
f 57/8/30 26/8/30 58/3/30
f 49/8/31 29/8/31 50/1/31
f 33/8/7 30/8/7 34/2/7
f 33/8/32 34/2/32 37/8/32
f 37/8/38 58/8/38 33/8/38
f 41/8/7 37/8/7 42/2/7
f 45/8/7 41/8/7 46/2/7
f 56/2/33 58/8/33 35/8/33
f 54/8/34 28/8/34 53/4/34
f 49/1/35 47/8/35 38/8/35
f 49/8/39 38/2/39 29/8/39
f 48/4/36 50/8/36 52/8/36
o Crystal_Cylinder
v 0.028525 0.203454 -0.020805
v 0.028525 0.270195 -0.020805
v 0.060262 0.203454 0.002254
v 0.060262 0.270195 0.002254
v 0.048140 0.203454 0.039563
v 0.048140 0.270195 0.039563
v 0.008910 0.203454 0.039563
v 0.008910 0.270195 0.039563
v -0.003212 0.203454 0.002254
v -0.003212 0.270195 0.002254
v 0.028525 0.321838 0.012566
v 0.008910 0.203454 0.039563
v 0.048140 0.203454 0.039563
v 0.060262 0.203454 0.002254
v 0.028525 0.203454 -0.020805
v -0.003212 0.203454 0.002254
v 0.028525 0.152125 0.012566
vn 0.587800 0.000000 -0.809000
vn 0.951100 0.000000 0.309000
vn -0.000000 0.000000 1.000000
vn -0.587800 0.000000 -0.809000
vn -0.951100 0.000000 0.309000
vn -0.842800 0.463300 0.273900
vn 0.842800 0.463300 0.273900
vn -0.520900 0.463300 -0.717000
vn 0.520900 0.463300 -0.717000
vn -0.000000 0.463300 0.886200
vn 0.841700 -0.465500 0.273500
vn -0.000000 -0.465500 0.885000
vn 0.520200 -0.465500 -0.716000
vn -0.841700 -0.465500 0.273500
vn -0.520200 -0.465500 -0.716000
g Crystal_Cylinder_None_NONE
usemtl None_NONE
s off
f 60//40 62//40 61//40
f 62//41 64//41 63//41
f 64//42 66//42 65//42
f 68//43 60//43 59//43
f 66//44 68//44 67//44
f 61//42 63//42 71//42
f 65//42 67//42 74//42
f 63//42 65//42 70//42
f 59//42 61//42 72//42
f 67//42 59//42 73//42
f 68//45 66//45 69//45
f 64//46 62//46 69//46
f 60//47 68//47 69//47
f 62//48 60//48 69//48
f 66//49 64//49 69//49
f 72//50 71//50 75//50
f 71//51 70//51 75//51
f 73//52 72//52 75//52
f 70//53 74//53 75//53
f 74//54 73//54 75//54
f 59//40 60//40 61//40
f 61//41 62//41 63//41
f 63//42 64//42 65//42
f 67//43 68//43 59//43
f 65//44 66//44 67//44
f 72//42 61//42 71//42
f 70//42 65//42 74//42
f 71//42 63//42 70//42
f 73//42 59//42 72//42
f 74//42 67//42 73//42
o Arena_Sphere_Icosphere
v 0.408782 1.277383 -0.283491
v -0.138108 1.254726 -0.473096
v -0.138108 1.254726 0.449965
v -0.457777 1.254726 0.009978
v 0.420110 1.254726 0.295226
v 0.669756 0.755431 -0.473095
v 0.254493 0.469507 -0.758338
v -0.208132 0.755435 -0.758338
v -0.607741 0.469507 -0.451545
v -0.750700 0.755438 -0.011565
v -0.582406 0.469507 0.463283
v 0.254493 0.469507 0.735207
v -0.208132 0.755435 0.735207
v 0.812716 0.469507 0.009981
v 0.669756 0.755431 0.449964
v -0.351093 -0.002185 0.295226
v 0.166144 -0.002185 0.463280
v 0.177471 -0.002185 -0.451551
v 0.497142 -0.002185 -0.011565
v -0.376424 -0.002185 -0.283491
v 0.320336 -0.004698 0.242079
v 0.341557 -0.004698 0.211635
v 0.359104 0.029118 0.212920
v 0.353348 0.055235 0.243251
v 0.326446 0.028014 0.258836
vt 0.841375 0.318734
vt 0.749822 0.159367
vt 0.841374 0.000000
vt 0.749398 0.406708
vt 0.749398 0.616443
vt 0.588735 0.668610
vt 0.091550 0.000000
vt 0.251423 0.056047
vt 0.251423 0.278296
vt 0.502847 0.278298
vt 0.251423 0.159370
vt 0.502847 0.056050
vt 0.499599 0.596256
vt 0.249799 0.495894
vt 0.338933 0.334349
vt 0.102622 0.994989
vt 0.000000 0.830143
vt 0.089113 0.668615
vt 0.249799 0.406710
vt 0.249799 0.616447
vt 0.749822 0.072296
vt 0.592006 0.331757
vt 0.502847 0.170233
vt 0.499599 0.940878
vt 0.253491 0.839549
vt 0.499599 0.731313
vt 0.841039 0.655884
vt 0.841456 0.334349
vt 1.000000 0.396081
vt 0.996117 0.942797
vt 0.800720 0.746009
vt 0.996117 0.733139
vt 0.595778 0.999996
vt 0.499599 0.829060
vt 0.727455 0.833218
vt 0.991835 0.257860
vt 0.991835 0.060870
vt 0.499599 0.507066
vt 0.593746 0.334349
vt 0.000000 0.174981
vt 0.091552 0.334349
vt 0.342976 0.334348
vt 0.342974 0.000000
vt 0.343947 0.668614
vt 0.499599 0.386520
vt 0.249799 0.930508
vt 0.249799 0.720701
vt 0.000000 0.507070
vt 0.094147 0.334349
vt 0.749822 0.282059
vt 0.594129 0.000000
vt 0.343849 1.000000
vt 0.349674 0.668614
vt 0.749398 0.493196
vt 1.000000 0.595870
vt 0.794141 0.756567
vt 0.835408 0.994878
vt 0.746341 0.833274
vt 0.848953 0.668610
vt 0.745705 0.937299
vt 0.745705 0.727737
vt 0.746341 0.826228
vt 0.735756 0.823005
vt 0.736107 0.843404
vt 0.746341 0.839665
vt 0.589959 0.668610
vn 0.276400 0.447200 -0.850700
vn -0.010800 -0.999200 -0.038900
vn -0.894400 -0.447200 -0.000000
vn -0.276400 -0.447200 0.850700
vn 0.739900 -0.428300 0.518700
vn 0.720800 -0.417300 -0.553400
vn -0.302000 -0.416700 -0.857400
vn -0.711100 0.476800 0.516700
vn 0.256000 0.471900 0.843700
vn 0.889800 0.454500 -0.041700
vn 0.001100 1.000000 0.003500
vn -0.696400 0.473800 -0.538900
vn 0.277500 0.440300 -0.853900
vn 0.277400 0.440300 -0.853900
vn 0.033700 -0.999200 0.022300
vn 0.021000 -0.999700 -0.015200
vn 0.742000 -0.456500 0.491000
vn 0.722100 -0.416700 0.552200
vn 0.732800 -0.423700 -0.532400
vn 0.748300 -0.416700 -0.516100
vn -0.237700 -0.456500 -0.857400
vn -0.264700 -0.428300 -0.864000
vn -0.696200 0.467800 0.544500
vn -0.733000 0.467800 0.493800
vn 0.299900 0.485200 0.821300
vn 0.316500 0.452300 0.833800
vn 0.897200 0.441600 0.004500
vn 0.891600 0.451100 -0.039000
vn 0.003000 1.000000 -0.009300
vn 0.002400 1.000000 0.001600
vn -0.007900 1.000000 0.005700
vn 0.003700 1.000000 -0.000200
vn -0.738600 0.435200 -0.514900
vn -0.750700 0.409200 -0.518700
vn -0.746600 0.408500 -0.525100
vn -0.699200 0.474000 -0.535200
vn -0.704500 0.494600 -0.509000
g Arena_Sphere_Icosphere_Material
usemtl Material
s off
f 86/9/55 88/10/55 87/11/55
f 76/12/56 80/13/56 78/14/56
f 80/15/57 76/16/57 81/17/57
f 76/18/58 83/19/58 81/20/58
f 77/21/59 85/22/59 84/23/59
f 78/24/60 88/25/60 86/26/60
f 80/27/61 90/28/61 87/26/61
f 81/29/62 93/30/62 94/31/62
f 93/32/63 83/33/63 95/34/63
f 95/35/64 85/36/64 86/37/64
f 95/38/65 97/39/65 93/40/65
f 87/41/66 90/42/66 99/43/66
f 87/11/67 91/44/67 86/9/67
f 91/44/68 87/11/68 92/45/68
f 79/46/69 77/47/69 76/12/69
f 76/12/70 78/14/70 79/46/70
f 81/17/57 90/48/57 80/15/57
f 90/48/57 81/17/57 89/49/57
f 83/19/58 76/18/58 77/50/58
f 83/19/58 82/51/58 81/20/58
f 85/22/71 77/21/71 79/52/71
f 77/21/72 84/23/72 83/53/72
f 86/26/73 79/54/73 78/24/73
f 79/54/74 86/26/74 85/55/74
f 88/56/75 78/57/75 80/27/75
f 80/27/76 87/26/76 88/56/76
f 93/30/77 81/29/77 82/58/77
f 81/29/78 94/31/78 89/59/78
f 83/33/79 93/32/79 82/60/79
f 83/33/80 84/61/80 95/34/80
f 85/36/81 95/35/81 84/62/81
f 95/35/82 86/37/82 91/63/82
f 96/64/83 91/65/83 92/66/83
f 96/64/84 97/39/84 95/38/84
f 93/40/85 97/39/85 94/67/85
f 95/38/86 91/65/86 96/64/86
f 99/43/87 92/68/87 87/41/87
f 94/69/88 97/70/88 98/71/88
f 100/72/89 96/73/89 92/68/89
f 94/69/87 98/71/87 99/43/87
f 99/43/87 100/72/87 92/68/87
f 99/43/90 90/42/90 89/74/90
f 89/74/91 94/69/91 99/43/91
o Cylinders.001_Icosphere.004
v 0.176605 0.000348 -0.440300
v 0.176605 0.551275 -0.440300
v 0.179351 0.000348 -0.437093
v 0.179351 0.551275 -0.437093
v 0.177947 0.000348 -0.433111
v 0.177947 0.551275 -0.433111
v 0.173797 0.000348 -0.432336
v 0.173797 0.551275 -0.432336
v 0.171050 0.000348 -0.435543
v 0.171050 0.551275 -0.435543
v 0.172454 0.000348 -0.439525
v 0.172454 0.551275 -0.439525
vt 0.000000 0.000000
vn 0.759500 0.000000 -0.650500
vn 0.943100 0.000000 0.332500
vn 0.183600 0.000000 0.983000
vn -0.759500 0.000000 0.650500
vn 0.000000 1.000000 -0.000000
vn -0.183600 0.000000 -0.983000
vn -0.943100 0.000000 -0.332500
vn 0.000000 -1.000000 -0.000000
g Cylinders.001_Icosphere.004_None_NONE
usemtl None_NONE
s off
f 102/75/92 104/75/92 103/75/92
f 104/75/93 106/75/93 105/75/93
f 106/75/94 108/75/94 107/75/94
f 108/75/95 110/75/95 109/75/95
f 104/75/96 112/75/96 110/75/96
f 112/75/97 102/75/97 101/75/97
f 110/75/98 112/75/98 111/75/98
f 101/75/99 103/75/99 109/75/99
f 101/75/92 102/75/92 103/75/92
f 103/75/93 104/75/93 105/75/93
f 105/75/94 106/75/94 107/75/94
f 107/75/95 108/75/95 109/75/95
f 108/75/96 106/75/96 104/75/96
f 104/75/96 110/75/96 108/75/96
f 104/75/96 102/75/96 112/75/96
f 111/75/97 112/75/97 101/75/97
f 109/75/98 110/75/98 111/75/98
f 109/75/99 111/75/99 101/75/99
f 105/75/99 107/75/99 109/75/99
f 109/75/99 103/75/99 105/75/99
o Cylinders.002_Icosphere.005
v 0.164539 0.000348 0.449645
v 0.164539 0.551275 0.449645
v 0.167286 0.000348 0.452852
v 0.167286 0.551275 0.452852
v 0.165882 0.000348 0.456834
v 0.165882 0.551275 0.456834
v 0.161731 0.000348 0.457609
v 0.161731 0.551275 0.457609
v 0.158985 0.000348 0.454402
v 0.158985 0.551275 0.454402
v 0.160389 0.000348 0.450420
v 0.160389 0.551275 0.450420
vt 0.000000 0.000000
vn 0.759500 0.000000 -0.650500
vn 0.943100 0.000000 0.332500
vn 0.183600 0.000000 0.983000
vn -0.759500 0.000000 0.650500
vn 0.000000 1.000000 -0.000000
vn -0.183600 0.000000 -0.983000
vn -0.943100 0.000000 -0.332500
vn 0.000000 -1.000000 -0.000000
g Cylinders.002_Icosphere.005_None_NONE
usemtl None_NONE
s off
f 114/76/100 116/76/100 115/76/100
f 116/76/101 118/76/101 117/76/101
f 118/76/102 120/76/102 119/76/102
f 120/76/103 122/76/103 121/76/103
f 116/76/104 124/76/104 122/76/104
f 124/76/105 114/76/105 113/76/105
f 122/76/106 124/76/106 123/76/106
f 113/76/107 115/76/107 121/76/107
f 113/76/100 114/76/100 115/76/100
f 115/76/101 116/76/101 117/76/101
f 117/76/102 118/76/102 119/76/102
f 119/76/103 120/76/103 121/76/103
f 120/76/104 118/76/104 116/76/104
f 116/76/104 122/76/104 120/76/104
f 116/76/104 114/76/104 124/76/104
f 123/76/105 124/76/105 113/76/105
f 121/76/106 122/76/106 123/76/106
f 121/76/107 123/76/107 113/76/107
f 117/76/107 119/76/107 121/76/107
f 121/76/107 115/76/107 117/76/107
o Cylinders.003_Icosphere.006
v -0.342989 0.000348 0.286965
v -0.342989 0.551275 0.286965
v -0.340243 0.000348 0.290172
v -0.340243 0.551275 0.290172
v -0.341647 0.000348 0.294154
v -0.341647 0.551275 0.294154
v -0.345797 0.000348 0.294929
v -0.345797 0.551275 0.294929
v -0.348544 0.000348 0.291722
v -0.348544 0.551275 0.291722
v -0.347140 0.000348 0.287740
v -0.347140 0.551275 0.287740
vt 0.000000 0.000000
vn 0.759500 0.000000 -0.650500
vn 0.943100 0.000000 0.332500
vn 0.183600 0.000000 0.983000
vn -0.759500 0.000000 0.650500
vn 0.000000 1.000000 -0.000000
vn -0.183600 0.000000 -0.983000
vn -0.943100 0.000000 -0.332500
vn 0.000000 -1.000000 -0.000000
g Cylinders.003_Icosphere.006_None_NONE
usemtl None_NONE
s off
f 126/77/108 128/77/108 127/77/108
f 128/77/109 130/77/109 129/77/109
f 130/77/110 132/77/110 131/77/110
f 132/77/111 134/77/111 133/77/111
f 128/77/112 136/77/112 134/77/112
f 136/77/113 126/77/113 125/77/113
f 134/77/114 136/77/114 135/77/114
f 125/77/115 127/77/115 133/77/115
f 125/77/108 126/77/108 127/77/108
f 127/77/109 128/77/109 129/77/109
f 129/77/110 130/77/110 131/77/110
f 131/77/111 132/77/111 133/77/111
f 132/77/112 130/77/112 128/77/112
f 128/77/112 134/77/112 132/77/112
f 128/77/112 126/77/112 136/77/112
f 135/77/113 136/77/113 125/77/113
f 133/77/114 134/77/114 135/77/114
f 133/77/115 135/77/115 125/77/115
f 129/77/115 131/77/115 133/77/115
f 133/77/115 127/77/115 129/77/115
o Cylinders.004_Icosphere.007
v -0.365232 0.000348 -0.280380
v -0.365232 0.551275 -0.280380
v -0.362485 0.000348 -0.277174
v -0.362485 0.551275 -0.277174
v -0.363889 0.000348 -0.273192
v -0.363889 0.551275 -0.273192
v -0.368040 0.000348 -0.272417
v -0.368040 0.551275 -0.272417
v -0.370786 0.000348 -0.275623
v -0.370786 0.551275 -0.275623
v -0.369382 0.000348 -0.279605
v -0.369382 0.551275 -0.279605
vt 0.000000 0.000000
vn 0.759500 0.000000 -0.650500
vn 0.943100 0.000000 0.332500
vn 0.183600 0.000000 0.983000
vn -0.759500 0.000000 0.650500
vn 0.000000 1.000000 -0.000000
vn -0.183600 0.000000 -0.983000
vn -0.943100 0.000000 -0.332500
vn 0.000000 -1.000000 -0.000000
g Cylinders.004_Icosphere.007_None_NONE
usemtl None_NONE
s off
f 138/78/116 140/78/116 139/78/116
f 140/78/117 142/78/117 141/78/117
f 142/78/118 144/78/118 143/78/118
f 144/78/119 146/78/119 145/78/119
f 140/78/120 148/78/120 146/78/120
f 148/78/121 138/78/121 137/78/121
f 146/78/122 148/78/122 147/78/122
f 137/78/123 139/78/123 145/78/123
f 137/78/116 138/78/116 139/78/116
f 139/78/117 140/78/117 141/78/117
f 141/78/118 142/78/118 143/78/118
f 143/78/119 144/78/119 145/78/119
f 144/78/120 142/78/120 140/78/120
f 140/78/120 146/78/120 144/78/120
f 140/78/120 138/78/120 148/78/120
f 147/78/121 148/78/121 137/78/121
f 145/78/122 146/78/122 147/78/122
f 145/78/123 147/78/123 137/78/123
f 141/78/123 143/78/123 145/78/123
f 145/78/123 139/78/123 141/78/123
o Cylinders.000_Icosphere.008
v 0.485973 0.000348 -0.014438
v 0.485973 0.551275 -0.014438
v 0.488720 0.000348 -0.011232
v 0.488720 0.551275 -0.011232
v 0.487316 0.000348 -0.007250
v 0.487316 0.551275 -0.007250
v 0.483166 0.000348 -0.006474
v 0.483166 0.551275 -0.006474
v 0.480419 0.000348 -0.009681
v 0.480419 0.551275 -0.009681
v 0.481823 0.000348 -0.013663
v 0.481823 0.551275 -0.013663
vt 0.000000 0.000000
vn 0.759500 0.000000 -0.650500
vn 0.943100 0.000000 0.332500
vn 0.183600 0.000000 0.983000
vn -0.759500 0.000000 0.650500
vn 0.000000 1.000000 0.000000
vn -0.183600 0.000000 -0.983000
vn -0.943100 0.000000 -0.332500
vn 0.000000 -1.000000 -0.000000
g Cylinders.000_Icosphere.008_None_NONE
usemtl None_NONE
s off
f 150/79/124 152/79/124 151/79/124
f 152/79/125 154/79/125 153/79/125
f 154/79/126 156/79/126 155/79/126
f 156/79/127 158/79/127 157/79/127
f 152/79/128 150/79/128 156/79/128
f 160/79/129 150/79/129 149/79/129
f 158/79/130 160/79/130 159/79/130
f 149/79/131 151/79/131 157/79/131
f 149/79/124 150/79/124 151/79/124
f 151/79/125 152/79/125 153/79/125
f 153/79/126 154/79/126 155/79/126
f 155/79/127 156/79/127 157/79/127
f 156/79/128 154/79/128 152/79/128
f 160/79/128 158/79/128 156/79/128
f 156/79/128 150/79/128 160/79/128
f 159/79/129 160/79/129 149/79/129
f 157/79/130 158/79/130 159/79/130
f 157/79/131 159/79/131 149/79/131
f 153/79/131 155/79/131 157/79/131
f 157/79/131 151/79/131 153/79/131
