# Blender v2.77 (sub 0) OBJ File: 'romb_lights.blend'
# www.blender.org
mtllib romb_lights.mtl
o 5_Plane.009
v 8.055625 0.000000 -0.034967
v 5.555520 0.000000 3.503371
v 5.548748 0.000000 -3.563746
v 3.599371 0.000000 -0.026111
v 5.554528 0.000000 2.726043
v 7.504896 0.000000 -0.034265
v 5.549740 0.000000 -2.786420
v 3.048642 0.000000 -0.025408
v 3.599371 0.236803 -0.026111
v 5.554528 0.236803 2.726043
v 7.504896 0.236803 -0.034265
v 5.549740 0.236803 -2.786420
vn 0.0000 1.0000 0.0000
vn -0.8167 0.0000 -0.5771
vn 0.8167 0.0000 0.5771
vn 0.8152 0.0000 -0.5791
vn -0.8152 0.0000 0.5791
vn -0.3807 -0.8847 -0.2690
vn 0.3801 -0.8847 -0.2700
vn 0.3807 -0.8847 0.2690
vn -0.3801 -0.8847 0.2700
g 5_Plane.009_None
usemtl None
s off
f 5//1 1//1 6//1
f 5//1 8//1 2//1
f 7//1 1//1 3//1
f 7//1 8//1 4//1
f 4//2 12//2 7//2
f 6//3 10//3 5//3
f 7//4 11//4 6//4
f 5//5 9//5 4//5
f 1//6 10//6 11//6
f 8//7 10//7 2//7
f 8//8 12//8 9//8
f 1//9 12//9 3//9
f 5//1 2//1 1//1
f 5//1 4//1 8//1
f 7//1 6//1 1//1
f 7//1 3//1 8//1
f 4//2 9//2 12//2
f 6//3 11//3 10//3
f 7//4 12//4 11//4
f 5//5 10//5 9//5
f 1//6 2//6 10//6
f 8//7 9//7 10//7
f 8//8 3//8 12//8
f 1//9 11//9 12//9
o 4_Plane.007
v 2.483902 0.000000 0.008116
v -0.016204 0.000000 3.546454
v -0.022977 0.000000 -3.520663
v -1.972353 0.000000 0.016972
v -0.017196 0.000000 2.769127
v 1.933173 0.000000 0.008819
v -0.021985 0.000000 -2.743336
v -2.523082 0.000000 0.017675
v -1.972353 0.236803 0.016972
v -0.017196 0.236803 2.769127
v 1.933173 0.236803 0.008819
v -0.021985 0.236803 -2.743336
v 2.483902 0.000000 0.008116
v -0.016204 0.000000 3.546454
v -0.022977 0.000000 -3.520663
v -1.972353 0.000000 0.016972
v -0.017196 0.000000 2.769127
v 1.933173 0.000000 0.008819
v -0.021985 0.000000 -2.743336
v -2.523082 0.000000 0.017675
v -1.972353 0.236803 0.016972
v -0.017196 0.236803 2.769127
v 1.933173 0.236803 0.008819
v -0.021985 0.236803 -2.743336
vn 0.0000 1.0000 0.0000
vn 0.8152 0.0000 -0.5791
vn -0.8152 0.0000 0.5791
vn -0.8167 0.0000 -0.5771
vn 0.8167 0.0000 0.5771
vn 0.3807 -0.8847 0.2690
vn -0.3801 -0.8847 0.2700
vn -0.3807 -0.8847 -0.2690
vn 0.3801 -0.8847 -0.2700
g 4_Plane.007_None
usemtl None
s off
f 17//10 13//10 18//10
f 17//10 20//10 14//10
f 19//10 13//10 15//10
f 19//10 20//10 16//10
f 19//11 23//11 18//11
f 17//12 21//12 16//12
f 16//13 24//13 19//13
f 18//14 22//14 17//14
f 20//15 24//15 21//15
f 13//16 24//16 15//16
f 13//17 22//17 23//17
f 20//18 22//18 14//18
f 29//10 25//10 30//10
f 29//10 32//10 26//10
f 31//10 25//10 27//10
f 31//10 32//10 28//10
f 31//11 35//11 30//11
f 29//12 33//12 28//12
f 28//13 36//13 31//13
f 30//14 34//14 29//14
f 32//15 36//15 33//15
f 25//16 36//16 27//16
f 25//17 34//17 35//17
f 32//18 34//18 26//18
f 17//10 14//10 13//10
f 17//10 16//10 20//10
f 19//10 18//10 13//10
f 19//10 15//10 20//10
f 19//11 24//11 23//11
f 17//12 22//12 21//12
f 16//13 21//13 24//13
f 18//14 23//14 22//14
f 20//15 15//15 24//15
f 13//16 23//16 24//16
f 13//17 14//17 22//17
f 20//18 21//18 22//18
f 29//10 26//10 25//10
f 29//10 28//10 32//10
f 31//10 30//10 25//10
f 31//10 27//10 32//10
f 31//11 36//11 35//11
f 29//12 34//12 33//12
f 28//13 33//13 36//13
f 30//14 35//14 34//14
f 32//15 27//15 36//15
f 25//16 35//16 36//16
f 25//17 26//17 34//17
f 32//18 33//18 34//18
o 6_Plane.004
v -2.847513 0.000000 7.506656
v -0.378376 0.000000 3.968318
v -5.354391 0.000000 3.977877
v -2.853336 0.000000 1.183755
v -4.827120 0.000000 3.977204
v -2.848463 0.000000 6.762440
v -0.874678 0.000000 3.968991
v -2.885254 0.000000 0.439539
v -5.354391 0.000000 3.977877
v -4.827120 0.000000 3.977204
v -2.853336 0.236803 1.183755
v -4.827120 0.236803 3.977204
v -2.848463 0.236803 6.762440
v -0.874678 0.236803 3.968991
v -2.847513 0.000000 7.506656
v -0.378376 0.000000 3.968318
v -5.354391 0.000000 3.977877
v -2.853336 0.000000 1.183755
v -4.827120 0.000000 3.977204
v -2.848463 0.000000 6.762440
v -0.874678 0.000000 3.968991
v -2.885254 0.000000 0.439539
v -5.354391 0.000000 3.977877
v -4.827120 0.000000 3.977204
v -2.853336 0.236803 1.183755
v -4.827120 0.236803 3.977204
v -2.848463 0.236803 6.762440
v -0.874678 0.236803 3.968991
vn 0.0000 1.0000 0.0000
vn 0.0000 0.0000 1.0000
vn 0.8152 0.0000 -0.5791
vn -0.8167 0.0000 -0.5771
vn -0.8152 0.0000 0.5791
vn 0.8167 0.0000 0.5771
vn -0.4123 -0.8632 -0.2913
vn -0.4115 -0.8633 0.2923
vn 0.3938 -0.8761 0.2783
vn 1.0000 0.0000 -0.0013
vn -0.0013 0.0000 -1.0000
vn -0.3980 -0.8744 -0.2777
vn 0.3805 -0.8858 0.2655
g 6_Plane.004_None
usemtl None
s off
f 42//19 39//19 37//19
f 42//19 38//19 43//19
f 40//19 38//19 44//19
f 40//19 39//19 41//19
f 41//20 45//20 39//20
f 40//21 50//21 43//21
f 41//22 47//22 40//22
f 42//23 48//23 41//23
f 43//24 49//24 42//24
f 48//21 49//21 42//21
f 38//25 49//25 50//25
f 38//26 47//26 44//26
f 39//27 47//27 48//27
f 56//19 53//19 51//19
f 56//19 52//19 57//19
f 54//19 52//19 58//19
f 54//19 53//19 55//19
f 55//20 59//20 53//20
f 54//21 64//21 57//21
f 55//22 61//22 54//22
f 56//23 62//23 55//23
f 57//24 63//24 56//24
f 62//21 63//21 56//21
f 52//25 63//25 64//25
f 52//26 61//26 58//26
f 53//27 61//27 62//27
f 42//19 41//19 39//19
f 42//19 37//19 38//19
f 40//19 43//19 38//19
f 40//19 44//19 39//19
f 41//20 46//20 45//20
f 40//21 47//21 50//21
f 41//22 48//22 47//22
f 42//23 49//23 48//23
f 43//24 50//24 49//24
f 42//21 46//21 48//21
f 39//20 45//20 48//20
f 49//28 37//28 42//28
f 46//29 39//29 48//29
f 38//30 37//30 49//30
f 38//26 50//26 47//26
f 39//31 44//31 47//31
f 56//19 55//19 53//19
f 56//19 51//19 52//19
f 54//19 57//19 52//19
f 54//19 58//19 53//19
f 55//20 60//20 59//20
f 54//21 61//21 64//21
f 55//22 62//22 61//22
f 56//23 63//23 62//23
f 57//24 64//24 63//24
f 56//21 60//21 62//21
f 53//20 59//20 62//20
f 63//28 51//28 56//28
f 60//29 53//29 62//29
f 52//30 51//30 63//30
f 52//26 64//26 61//26
f 53//31 58//31 61//31
o 2_Plane.003
v 5.273436 0.000000 -3.897667
v 2.773330 0.000000 -0.359329
v 2.766558 0.000000 -7.426445
v 0.817182 0.000000 -3.888811
v 2.772339 0.000000 -1.136656
v 4.722706 0.000000 -3.896964
v 2.767549 0.000000 -6.649119
v 0.266452 0.000000 -3.888108
v 0.817182 0.236803 -3.888811
v 2.772339 0.236803 -1.136656
v 4.722706 0.236803 -3.896964
v 2.767549 0.236803 -6.649119
vn 0.0000 1.0000 0.0000
vn 0.8152 0.0000 -0.5791
vn -0.8152 0.0000 0.5791
vn -0.8167 0.0000 -0.5771
vn 0.8167 0.0000 0.5771
vn -0.3801 -0.8847 0.2700
vn -0.3807 -0.8847 -0.2690
vn 0.3807 -0.8847 0.2690
vn 0.3801 -0.8847 -0.2700
g 2_Plane.003_None
usemtl None
s off
f 69//32 65//32 70//32
f 69//32 72//32 66//32
f 71//32 65//32 67//32
f 71//32 72//32 68//32
f 71//33 75//33 70//33
f 69//34 73//34 68//34
f 68//35 76//35 71//35
f 70//36 74//36 69//36
f 65//37 76//37 67//37
f 65//38 74//38 75//38
f 72//39 76//39 73//39
f 72//40 74//40 66//40
f 69//32 66//32 65//32
f 69//32 68//32 72//32
f 71//32 70//32 65//32
f 71//32 67//32 72//32
f 71//33 76//33 75//33
f 69//34 74//34 73//34
f 68//35 73//35 76//35
f 70//36 75//36 74//36
f 65//37 75//37 76//37
f 65//38 66//38 74//38
f 72//39 67//39 76//39
f 72//40 73//40 74//40
o 1_Plane.001
v -2.861058 0.000000 -7.394496
v -5.361164 0.000000 -3.856158
v -0.385149 0.000000 -3.865717
v -2.855269 0.000000 -1.098131
v -0.900250 0.000000 -3.865021
v -2.860075 0.000000 -6.623745
v -4.815093 0.000000 -3.856855
v -2.885254 0.000000 -0.327379
v -2.855269 0.236803 -1.098131
v -0.900250 0.236803 -3.865021
v -2.860075 0.236803 -6.623745
v -4.815093 0.236803 -3.856855
vn 0.0000 1.0000 0.0000
vn -0.8152 0.0000 0.5791
vn 0.8167 0.0000 0.5771
vn 0.8152 0.0000 -0.5791
vn -0.8167 0.0000 -0.5771
vn 0.3701 -0.8920 -0.2597
vn 0.3833 -0.8830 0.2708
vn -0.3867 -0.8814 0.2713
vn -0.4009 -0.8712 -0.2833
vn 0.3826 -0.8830 -0.2718
vn -0.4001 -0.8712 0.2843
g 1_Plane.001_None
usemtl None
s off
f 82//41 79//41 77//41
f 82//41 78//41 83//41
f 80//41 78//41 84//41
f 80//41 79//41 81//41
f 80//42 88//42 83//42
f 81//43 85//43 80//43
f 82//44 86//44 81//44
f 83//45 87//45 82//45
f 78//46 85//46 84//46
f 78//47 87//47 88//47
f 79//48 87//48 77//48
f 85//49 79//49 84//49
f 82//41 81//41 79//41
f 82//41 77//41 78//41
f 80//41 83//41 78//41
f 80//41 84//41 79//41
f 80//42 85//42 88//42
f 81//43 86//43 85//43
f 82//44 87//44 86//44
f 83//45 88//45 87//45
f 78//50 88//50 85//50
f 78//47 77//47 87//47
f 79//51 86//51 87//51
f 85//49 86//49 79//49
o 3_Plane.000
v -8.182603 0.000000 0.036142
v -5.682497 0.000000 -3.502197
v -5.675725 0.000000 3.564921
v -3.710762 0.000000 0.027265
v -5.681534 0.000000 -2.746869
v -7.647460 0.000000 0.035459
v -5.676689 0.000000 2.809594
v -3.206588 0.000000 0.026582
v -3.710762 0.236803 0.027265
v -5.681534 0.236803 -2.746869
v -7.647460 0.236803 0.035459
v -5.676689 0.236803 2.809594
v -8.182603 0.000000 0.036142
v -5.682497 0.000000 -3.502197
v -5.675725 0.000000 3.564921
v -3.710762 0.000000 0.027265
v -5.681534 0.000000 -2.746869
v -7.647460 0.000000 0.035459
v -5.676689 0.000000 2.809594
v -3.206588 0.000000 0.026582
v -3.710762 0.236803 0.027265
v -5.681534 0.236803 -2.746869
v -7.647460 0.236803 0.035459
v -5.676689 0.236803 2.809594
v -8.182603 0.000000 0.036142
v -5.682497 0.000000 -3.502197
v -5.675725 0.000000 3.564921
v -3.710762 0.000000 0.027265
v -5.681534 0.000000 -2.746869
v -7.647460 0.000000 0.035459
v -5.676689 0.000000 2.809594
v -3.206588 0.000000 0.026582
v -3.710762 0.236803 0.027265
v -5.681534 0.236803 -2.746869
v -7.647460 0.236803 0.035459
v -5.676689 0.236803 2.809594
vn 0.0000 1.0000 0.0000
vn 0.8152 0.0000 -0.5791
vn 0.8167 0.0000 0.5771
vn -0.8167 0.0000 -0.5771
vn -0.8152 0.0000 0.5791
vn -0.3935 -0.8774 -0.2746
vn 0.3886 -0.8791 -0.2761
vn 0.3893 -0.8791 0.2751
vn -0.3928 -0.8774 0.2756
vn -0.4074 -0.8667 -0.2879
vn -0.4067 -0.8667 0.2889
g 3_Plane.000_None
usemtl None
s off
f 93//52 89//52 94//52
f 95//52 89//52 91//52
f 93//52 96//52 90//52
f 95//52 96//52 92//52
f 93//53 97//53 92//53
f 92//54 100//54 95//54
f 94//55 98//55 93//55
f 107//56 111//56 106//56
f 112//57 108//57 103//57
f 101//58 112//58 103//58
f 101//59 110//59 111//59
f 108//60 110//60 102//60
f 117//52 113//52 118//52
f 119//52 113//52 115//52
f 117//52 120//52 114//52
f 119//52 120//52 116//52
f 117//53 121//53 116//53
f 116//54 124//54 119//54
f 118//55 122//55 117//55
f 93//52 90//52 89//52
f 95//52 94//52 89//52
f 93//52 92//52 96//52
f 95//52 91//52 96//52
f 93//53 98//53 97//53
f 92//54 97//54 100//54
f 94//55 99//55 98//55
f 107//56 112//56 111//56
f 112//61 109//61 108//61
f 101//58 111//58 112//58
f 101//59 102//59 110//59
f 108//62 109//62 110//62
f 117//52 114//52 113//52
f 119//52 118//52 113//52
f 117//52 116//52 120//52
f 119//52 115//52 120//52
f 117//53 122//53 121//53
f 116//54 121//54 124//54
f 118//55 123//55 122//55
l 105 106
l 105 102
l 109 104
