# Blender v2.75 (sub 0) OBJ File: 'romb_lights.blend'
# www.blender.org
mtllib romb_lights.mtl
o 5_Plane.009
v 8.055625 0.000000 -0.034967
v 5.555520 0.000000 3.503371
v 5.548748 0.000000 -3.563746
v 3.599371 0.000000 -0.026111
v 5.554528 0.000000 2.726043
v 7.504896 0.000000 -0.034265
v 5.549740 0.000000 -2.786420
v 3.048642 0.000000 -0.025408
v 3.599371 0.236803 -0.026111
v 5.554528 0.236803 2.726043
v 7.504896 0.236803 -0.034265
v 5.549740 0.236803 -2.786420
vn 0.000000 1.000000 0.000000
vn -0.816700 0.000000 -0.577100
vn 0.816700 0.000000 0.577100
vn 0.815200 0.000000 -0.579100
vn -0.815200 0.000000 0.579100
vn -0.380700 -0.884700 -0.269000
vn 0.380100 -0.884700 -0.270000
vn 0.380700 -0.884700 0.269000
vn -0.380100 -0.884700 0.270000
usemtl None
s off
f 6//1 5//1 2//1 1//1
f 5//1 4//1 8//1 2//1
f 7//1 6//1 1//1 3//1
f 4//1 7//1 3//1 8//1
f 7//2 4//2 9//2 12//2
f 5//3 6//3 11//3 10//3
f 6//4 7//4 12//4 11//4
f 4//5 5//5 10//5 9//5
f 1//6 2//6 10//6 11//6
f 2//7 8//7 9//7 10//7
f 8//8 3//8 12//8 9//8
f 3//9 1//9 11//9 12//9
o 4_Plane.007
v 2.483902 0.000000 0.008116
v -0.016204 0.000000 3.546454
v -0.022977 0.000000 -3.520663
v -1.972353 0.000000 0.016972
v -0.017196 0.000000 2.769127
v 1.933173 0.000000 0.008819
v -0.021985 0.000000 -2.743336
v -2.523082 0.000000 0.017675
v -1.972353 0.236803 0.016972
v -0.017196 0.236803 2.769127
v 1.933173 0.236803 0.008819
v -0.021985 0.236803 -2.743336
v 2.483902 0.000000 0.008116
v -0.016204 0.000000 3.546454
v -0.022977 0.000000 -3.520663
v -1.972353 0.000000 0.016972
v -0.017196 0.000000 2.769127
v 1.933173 0.000000 0.008819
v -0.021985 0.000000 -2.743336
v -2.523082 0.000000 0.017675
v -1.972353 0.236803 0.016972
v -0.017196 0.236803 2.769127
v 1.933173 0.236803 0.008819
v -0.021985 0.236803 -2.743336
vn 0.000000 1.000000 0.000000
vn 0.815200 0.000000 -0.579100
vn -0.815200 0.000000 0.579100
vn -0.816700 0.000000 -0.577100
vn 0.816700 0.000000 0.577100
vn 0.380700 -0.884700 0.269000
vn -0.380100 -0.884700 0.270000
vn -0.380700 -0.884700 -0.269000
vn 0.380100 -0.884700 -0.270000
usemtl None
s off
f 18//10 17//10 14//10 13//10
f 17//10 16//10 20//10 14//10
f 19//10 18//10 13//10 15//10
f 16//10 19//10 15//10 20//10
f 18//11 19//11 24//11 23//11
f 16//12 17//12 22//12 21//12
f 19//13 16//13 21//13 24//13
f 17//14 18//14 23//14 22//14
f 20//15 15//15 24//15 21//15
f 15//16 13//16 23//16 24//16
f 13//17 14//17 22//17 23//17
f 14//18 20//18 21//18 22//18
f 30//10 29//10 26//10 25//10
f 29//10 28//10 32//10 26//10
f 31//10 30//10 25//10 27//10
f 28//10 31//10 27//10 32//10
f 30//11 31//11 36//11 35//11
f 28//12 29//12 34//12 33//12
f 31//13 28//13 33//13 36//13
f 29//14 30//14 35//14 34//14
f 32//15 27//15 36//15 33//15
f 27//16 25//16 35//16 36//16
f 25//17 26//17 34//17 35//17
f 26//18 32//18 33//18 34//18
o 6_Plane.004
v -2.847513 0.000000 7.506656
v -0.378376 0.000000 3.968318
v -5.354391 0.000000 3.977877
v -2.853336 0.000000 1.183755
v -4.827120 0.000000 3.977204
v -2.848463 0.000000 6.762440
v -0.874678 0.000000 3.968991
v -2.885254 0.000000 0.439539
v -5.354391 0.000000 3.977877
v -4.827120 0.000000 3.977204
v -2.853336 0.236803 1.183755
v -4.827120 0.236803 3.977204
v -2.848463 0.236803 6.762440
v -0.874678 0.236803 3.968991
v -2.847513 0.000000 7.506656
v -0.378376 0.000000 3.968318
v -5.354391 0.000000 3.977877
v -2.853336 0.000000 1.183755
v -4.827120 0.000000 3.977204
v -2.848463 0.000000 6.762440
v -0.874678 0.000000 3.968991
v -2.885254 0.000000 0.439539
v -5.354391 0.000000 3.977877
v -4.827120 0.000000 3.977204
v -2.853336 0.236803 1.183755
v -4.827120 0.236803 3.977204
v -2.848463 0.236803 6.762440
v -0.874678 0.236803 3.968991
vn 0.000000 1.000000 0.000000
vn 0.000000 0.000000 1.000000
vn 0.815200 0.000000 -0.579100
vn -0.816700 0.000000 -0.577100
vn -0.815200 0.000000 0.579100
vn 0.816700 0.000000 0.577100
vn -0.404200 -0.869600 -0.283600
vn -0.411500 -0.863300 0.292300
vn 0.386300 -0.881600 0.271100
usemtl None
s off
f 42//19 41//19 39//19 37//19
f 43//19 42//19 37//19 38//19
f 40//19 43//19 38//19 44//19
f 41//19 40//19 44//19 39//19
f 41//20 46//20 45//20 39//20
f 43//21 40//21 47//21 50//21
f 40//22 41//22 48//22 47//22
f 41//23 42//23 49//23 48//23
f 42//24 43//24 50//24 49//24
f 46//21 39//21 45//21 48//21 49//21 37//21 42//21
f 38//25 37//25 49//25 50//25
f 38//26 50//26 47//26 44//26
f 39//27 44//27 47//27 48//27
f 56//19 55//19 53//19 51//19
f 57//19 56//19 51//19 52//19
f 54//19 57//19 52//19 58//19
f 55//19 54//19 58//19 53//19
f 55//20 60//20 59//20 53//20
f 57//21 54//21 61//21 64//21
f 54//22 55//22 62//22 61//22
f 55//23 56//23 63//23 62//23
f 56//24 57//24 64//24 63//24
f 60//21 53//21 59//21 62//21 63//21 51//21 56//21
f 52//25 51//25 63//25 64//25
f 52//26 64//26 61//26 58//26
f 53//27 58//27 61//27 62//27
o 2_Plane.003
v 5.273436 0.000000 -3.897667
v 2.773330 0.000000 -0.359329
v 2.766558 0.000000 -7.426445
v 0.817182 0.000000 -3.888811
v 2.772339 0.000000 -1.136656
v 4.722706 0.000000 -3.896964
v 2.767549 0.000000 -6.649119
v 0.266452 0.000000 -3.888108
v 0.817182 0.236803 -3.888811
v 2.772339 0.236803 -1.136656
v 4.722706 0.236803 -3.896964
v 2.767549 0.236803 -6.649119
vn 0.000000 1.000000 0.000000
vn 0.815200 0.000000 -0.579100
vn -0.815200 0.000000 0.579100
vn -0.816700 0.000000 -0.577100
vn 0.816700 0.000000 0.577100
vn -0.380100 -0.884700 0.270000
vn -0.380700 -0.884700 -0.269000
vn 0.380700 -0.884700 0.269000
vn 0.380100 -0.884700 -0.270000
usemtl None
s off
f 70//28 69//28 66//28 65//28
f 69//28 68//28 72//28 66//28
f 71//28 70//28 65//28 67//28
f 68//28 71//28 67//28 72//28
f 70//29 71//29 76//29 75//29
f 68//30 69//30 74//30 73//30
f 71//31 68//31 73//31 76//31
f 69//32 70//32 75//32 74//32
f 67//33 65//33 75//33 76//33
f 65//34 66//34 74//34 75//34
f 72//35 67//35 76//35 73//35
f 66//36 72//36 73//36 74//36
o 1_Plane.001
v -2.861058 0.000000 -7.394496
v -5.361164 0.000000 -3.856158
v -0.385149 0.000000 -3.865717
v -2.855269 0.000000 -1.098131
v -0.900250 0.000000 -3.865021
v -2.860075 0.000000 -6.623745
v -4.815093 0.000000 -3.856855
v -2.885254 0.000000 -0.327379
v -2.855269 0.236803 -1.098131
v -0.900250 0.236803 -3.865021
v -2.860075 0.236803 -6.623745
v -4.815093 0.236803 -3.856855
vn 0.000000 1.000000 0.000000
vn -0.815200 0.000000 0.579100
vn 0.816700 0.000000 0.577100
vn 0.815200 0.000000 -0.579100
vn -0.816700 0.000000 -0.577100
vn 0.375500 -0.888200 -0.264900
vn 0.383300 -0.883000 0.270800
vn -0.392500 -0.877100 0.276900
vn -0.400900 -0.871200 -0.283300
usemtl None
s off
f 82//37 81//37 79//37 77//37
f 83//37 82//37 77//37 78//37
f 80//37 83//37 78//37 84//37
f 81//37 80//37 84//37 79//37
f 83//38 80//38 85//38 88//38
f 80//39 81//39 86//39 85//39
f 81//40 82//40 87//40 86//40
f 82//41 83//41 88//41 87//41
f 84//42 78//42 88//42 85//42
f 78//43 77//43 87//43 88//43
f 77//44 79//44 86//44 87//44
f 84//45 85//45 86//45 79//45
o 3_Plane.000
v -8.182603 0.000000 0.036142
v -5.682497 0.000000 -3.502197
v -5.675725 0.000000 3.564921
v -3.710762 0.000000 0.027265
v -5.681534 0.000000 -2.746869
v -7.647460 0.000000 0.035459
v -5.676689 0.000000 2.809594
v -3.206588 0.000000 0.026582
v -3.710762 0.236803 0.027265
v -5.681534 0.236803 -2.746869
v -7.647460 0.236803 0.035459
v -5.676689 0.236803 2.809594
v -8.182603 0.000000 0.036142
v -5.682497 0.000000 -3.502197
v -5.675725 0.000000 3.564921
v -3.710762 0.000000 0.027265
v -5.681534 0.000000 -2.746869
v -7.647460 0.000000 0.035459
v -5.676689 0.000000 2.809594
v -3.206588 0.000000 0.026582
v -3.710762 0.236803 0.027265
v -5.681534 0.236803 -2.746869
v -7.647460 0.236803 0.035459
v -5.676689 0.236803 2.809594
v -8.182603 0.000000 0.036142
v -5.682497 0.000000 -3.502197
v -5.675725 0.000000 3.564921
v -3.710762 0.000000 0.027265
v -5.681534 0.000000 -2.746869
v -7.647460 0.000000 0.035459
v -5.676689 0.000000 2.809594
v -3.206588 0.000000 0.026582
v -3.710762 0.236803 0.027265
v -5.681534 0.236803 -2.746869
v -7.647460 0.236803 0.035459
v -5.676689 0.236803 2.809594
vn 0.000000 1.000000 0.000000
vn 0.815200 0.000000 -0.579100
vn 0.816700 0.000000 0.577100
vn -0.816700 0.000000 -0.577100
vn -0.815200 0.000000 0.579100
vn -0.399500 -0.872800 -0.280300
vn 0.388600 -0.879100 -0.276100
vn 0.389300 -0.879100 0.275100
vn -0.398800 -0.872800 0.281300
usemtl None
s off
f 94//46 93//46 90//46 89//46
f 95//46 94//46 89//46 91//46
f 93//46 92//46 96//46 90//46
f 92//46 95//46 91//46 96//46
f 92//47 93//47 98//47 97//47
f 95//48 92//48 97//48 100//48
f 93//49 94//49 99//49 98//49
f 106//50 107//50 112//50 111//50
f 103//51 112//51 109//51 108//51
f 103//52 101//52 111//52 112//52
f 101//53 102//53 110//53 111//53
f 108//54 109//54 110//54 102//54
f 118//46 117//46 114//46 113//46
f 119//46 118//46 113//46 115//46
f 117//46 116//46 120//46 114//46
f 116//46 119//46 115//46 120//46
f 116//47 117//47 122//47 121//47
f 119//48 116//48 121//48 124//48
f 117//49 118//49 123//49 122//49
l 105 106
l 105 102
l 109 104
