# Blender v2.75 (sub 0) OBJ File: 'square_light.blend'
# www.blender.org
mtllib square_light.mtl
o Plane
v 3.013816 0.000000 -3.013816
v -3.013816 0.000000 -3.013816
v 3.013816 0.000000 3.013816
v -3.013816 0.000000 3.013816
v 1.998800 0.000000 -3.013816
v 1.998800 0.000000 3.013816
v -1.995628 0.000000 -3.013816
v -1.995628 0.000000 3.013816
v 3.013816 0.000000 -1.998800
v -3.013816 0.000000 -1.998800
v 1.998800 0.000000 -1.998800
v -1.995628 0.000000 -1.998800
v -3.013816 0.000000 1.995628
v 1.998800 0.000000 1.995628
v -1.995628 0.000000 1.995628
v 3.013816 0.000000 1.995628
v 3.013816 0.000000 -1.039146
v -3.013816 0.000000 -1.039145
v 1.998800 0.000000 -1.039145
v -1.995628 0.000000 -1.039145
v -3.013816 0.000000 1.006287
v 1.998800 0.000000 1.006287
v -1.995628 0.000000 1.006287
v 3.013816 0.000000 1.006287
v -0.995273 0.000000 3.013816
v -0.995273 0.000000 -3.013816
v -0.995273 0.000000 -1.998800
v -0.995273 0.000000 1.995628
v -0.995273 0.000000 -1.039145
v -0.995273 0.000000 1.006287
v 1.011189 0.000000 3.013816
v 1.011189 0.000000 -1.998800
v 1.011189 0.000000 1.995628
v 1.011189 0.000000 -1.039145
v 1.011189 0.000000 1.006287
v 1.011188 0.000000 -3.013816
v 3.013816 0.470055 -1.998800
v 3.013816 0.470055 -3.013816
v -1.995628 0.470055 -3.013816
v -3.013816 0.470055 -3.013816
v -3.013816 0.470055 1.995628
v -3.013816 0.470055 3.013816
v 1.998800 0.470055 3.013816
v 3.013816 0.470055 3.013816
v 1.998800 0.470055 -3.013816
v 1.011189 0.470055 3.013816
v 1.998800 0.470055 1.995628
v -0.995273 0.470055 -3.013816
v -1.995628 0.470055 3.013816
v -1.995628 0.470055 1.995628
v 3.013816 0.470055 -1.039146
v -3.013816 0.470055 -1.998800
v 1.998800 0.470055 -1.998800
v -1.995628 0.470055 -1.998800
v 1.011189 0.470055 -1.998800
v -3.013816 0.470055 1.006287
v 1.998800 0.470055 1.006287
v -1.995628 0.470055 1.006287
v 3.013816 0.470055 1.995628
v 1.011189 0.470055 1.995628
v -3.013816 0.470055 -1.039145
v 1.998800 0.470055 -1.039145
v -1.995628 0.470055 -1.039145
v 3.013816 0.470055 1.006287
v -0.995273 0.470055 3.013816
v -0.995273 0.470055 -1.998800
v -0.995273 0.470055 1.995628
v 1.011188 0.470055 -3.013816
v 3.013816 0.567455 -1.998800
v 3.013816 0.567455 -3.013816
v -1.995628 0.567455 -3.013816
v -3.013816 0.567455 -3.013816
v -3.013816 0.567455 1.995628
v -3.013816 0.567455 3.013816
v 1.998800 0.567455 3.013816
v 3.013816 0.567455 3.013816
v 1.998800 0.567455 -3.013816
v 1.998800 0.567455 1.995628
v -1.995628 0.567455 3.013816
v -1.995628 0.567455 1.995628
v -3.013816 0.567455 -1.998800
v 1.998800 0.567455 -1.998800
v -1.995628 0.567455 -1.998800
v 3.013816 0.567455 1.995628
v 1.998800 0.470055 -3.013816
v 1.998800 0.470055 -1.998800
v -1.995628 0.470055 -3.013816
v -1.995628 0.470055 -1.998800
v 1.998800 0.567455 -3.013816
v 1.998800 0.567455 -1.998800
v -1.995628 0.567455 -3.013816
v -1.995628 0.567455 -1.998800
v 1.998800 0.470055 -0.035587
v 3.013816 0.470055 -0.035587
v 1.998800 0.567455 -0.035587
v 3.013816 0.567455 -0.035587
v 1.998800 0.470055 -1.998800
v 3.013816 0.470055 -1.998800
v 1.998800 0.567455 -1.998800
v 3.013816 0.567455 -1.998800
v 1.998800 0.470055 -0.035587
v 3.013816 0.470055 -0.035587
v 1.998800 0.567455 -0.035587
v 3.013816 0.567455 -0.035587
v 1.998800 0.470055 -0.026833
v 3.013816 0.470055 -0.026833
v 1.998800 0.567455 -0.026833
v 3.013816 0.567455 -0.026833
v 1.998800 0.470055 -3.013816
v 1.998800 0.470055 -1.998800
v 1.998800 0.567455 -3.013816
v 1.998800 0.567455 -1.998800
v 1.998800 0.470055 -0.026833
v 3.013816 0.470055 -0.026833
v 1.998800 0.567455 -0.026833
v 3.013816 0.567455 -0.026833
v -0.041457 0.470055 -3.013816
v -0.041457 0.470055 -1.998800
v -0.041457 0.567455 -3.013816
v -0.041457 0.567455 -1.998800
v 0.017365 0.470055 -3.013816
v 0.017365 0.470055 -1.998800
v 0.017365 0.567455 -3.013816
v 0.017365 0.567455 -1.998800
v -3.013816 0.470055 0.233582
v -1.995628 0.470055 0.233582
v -3.013816 0.567455 0.233582
v -1.995628 0.567455 0.233582
v -3.013816 0.470055 0.202981
v -1.995628 0.470055 0.202981
v -3.013816 0.567455 0.202981
v -1.995628 0.567455 0.202981
v -1.995628 0.470055 1.995628
v -1.995628 0.470055 3.013816
v -1.995628 0.567455 1.995628
v -1.995628 0.567455 3.013816
v -3.013816 0.470055 0.202981
v -1.995628 0.470055 0.202981
v -3.013816 0.567455 0.202981
v -1.995628 0.567455 0.202981
v -1.995628 0.470055 1.995628
v -1.995628 0.470055 3.013816
v -1.995628 0.567455 1.995628
v -1.995628 0.567455 3.013816
v -3.013816 0.470055 0.202981
v -1.995628 0.470055 0.202981
v -3.013816 0.567455 0.202981
v -1.995628 0.567455 0.202981
v 0.013487 0.470055 1.995628
v 0.013487 0.470055 3.013816
v 0.013487 0.567455 1.995628
v 0.013487 0.567455 3.013816
v -0.027042 0.470055 1.995628
v -0.027042 0.470055 3.013816
v -0.027042 0.567455 1.995628
v -0.027042 0.567455 3.013816
v -1.783744 0.204988 1.925627
v -1.925627 0.204988 1.783744
v -1.783744 0.063105 1.783744
v -1.838040 0.204988 1.914827
v -1.884071 0.204988 1.884071
v -1.783744 0.150692 1.914827
v -1.840833 0.147899 1.903835
v -1.885129 0.146885 1.885129
v -1.873321 0.115411 1.873321
v -1.914827 0.150692 1.783744
v -1.884071 0.104662 1.783744
v -1.914827 0.204988 1.838040
v -1.903835 0.147899 1.840834
v -1.885129 0.103604 1.841848
v -1.783744 0.073905 1.838040
v -1.783744 0.104662 1.884071
v -1.838040 0.073905 1.783744
v -1.840834 0.084898 1.840833
v -1.841848 0.103604 1.885129
v -1.783744 0.544040 1.925627
v -1.783744 0.685923 1.783744
v -1.925627 0.544040 1.783744
v -1.783744 0.598336 1.914827
v -1.783744 0.644366 1.884071
v -1.838040 0.544040 1.914827
v -1.840834 0.601129 1.903835
v -1.841848 0.645424 1.885129
v -1.873321 0.633617 1.873321
v -1.838040 0.675123 1.783744
v -1.884071 0.644366 1.783744
v -1.783744 0.675123 1.838040
v -1.840833 0.664130 1.840834
v -1.885129 0.645424 1.841848
v -1.914827 0.544040 1.838040
v -1.884071 0.544040 1.884071
v -1.914827 0.598336 1.783744
v -1.903835 0.601129 1.840833
v -1.885129 0.602144 1.885129
v -1.783744 0.204988 -1.925627
v -1.783744 0.063105 -1.783744
v -1.925627 0.204988 -1.783744
v -1.783744 0.150692 -1.914827
v -1.783744 0.104662 -1.884071
v -1.838040 0.204988 -1.914827
v -1.840834 0.147899 -1.903835
v -1.841848 0.103604 -1.885129
v -1.873321 0.115411 -1.873321
v -1.838040 0.073905 -1.783744
v -1.884071 0.104662 -1.783744
v -1.783744 0.073905 -1.838040
v -1.840833 0.084898 -1.840834
v -1.885129 0.103604 -1.841848
v -1.914827 0.204988 -1.838040
v -1.884071 0.204988 -1.884071
v -1.914827 0.150692 -1.783744
v -1.903835 0.147899 -1.840833
v -1.885129 0.146885 -1.885129
v -1.783744 0.685923 -1.783744
v -1.783744 0.544040 -1.925627
v -1.925627 0.544040 -1.783744
v -1.783744 0.675123 -1.838040
v -1.783744 0.644366 -1.884071
v -1.838040 0.675123 -1.783744
v -1.840834 0.664130 -1.840833
v -1.841848 0.645424 -1.885129
v -1.873321 0.633617 -1.873321
v -1.838040 0.544040 -1.914827
v -1.884071 0.544040 -1.884071
v -1.783744 0.598336 -1.914827
v -1.840833 0.601129 -1.903835
v -1.885129 0.602144 -1.885129
v -1.914827 0.598336 -1.783744
v -1.884071 0.644366 -1.783744
v -1.914827 0.544040 -1.838040
v -1.903835 0.601129 -1.840834
v -1.885129 0.645424 -1.841848
v 1.783744 0.204988 1.925627
v 1.783744 0.063105 1.783744
v 1.925627 0.204988 1.783744
v 1.783744 0.150692 1.914827
v 1.783744 0.104662 1.884071
v 1.838040 0.204988 1.914827
v 1.840834 0.147899 1.903835
v 1.841848 0.103604 1.885129
v 1.873321 0.115411 1.873321
v 1.838040 0.073905 1.783744
v 1.884071 0.104662 1.783744
v 1.783744 0.073905 1.838040
v 1.840833 0.084898 1.840834
v 1.885129 0.103604 1.841848
v 1.914827 0.204988 1.838040
v 1.884071 0.204988 1.884071
v 1.914827 0.150692 1.783744
v 1.903835 0.147899 1.840833
v 1.885129 0.146885 1.885129
v 1.783744 0.685923 1.783744
v 1.783744 0.544040 1.925627
v 1.925627 0.544040 1.783744
v 1.783744 0.675123 1.838040
v 1.783744 0.644366 1.884071
v 1.838040 0.675123 1.783744
v 1.840834 0.664130 1.840833
v 1.841848 0.645424 1.885129
v 1.873321 0.633617 1.873321
v 1.838040 0.544040 1.914827
v 1.884071 0.544040 1.884071
v 1.783744 0.598336 1.914827
v 1.840833 0.601129 1.903835
v 1.885129 0.602144 1.885129
v 1.914827 0.598336 1.783744
v 1.884071 0.644366 1.783744
v 1.914827 0.544040 1.838040
v 1.903835 0.601129 1.840834
v 1.885129 0.645424 1.841848
v 1.925627 0.204988 -1.783744
v 1.783744 0.063105 -1.783744
v 1.783744 0.204988 -1.925627
v 1.914827 0.150692 -1.783744
v 1.884071 0.104662 -1.783744
v 1.914827 0.204988 -1.838040
v 1.903835 0.147899 -1.840834
v 1.885129 0.103604 -1.841848
v 1.873321 0.115411 -1.873321
v 1.783744 0.073905 -1.838040
v 1.783744 0.104662 -1.884071
v 1.838040 0.073905 -1.783744
v 1.840834 0.084898 -1.840833
v 1.841848 0.103604 -1.885129
v 1.838040 0.204988 -1.914827
v 1.884071 0.204988 -1.884071
v 1.783744 0.150692 -1.914827
v 1.840833 0.147899 -1.903835
v 1.885129 0.146885 -1.885129
v 1.783744 0.685923 -1.783744
v 1.925627 0.544040 -1.783744
v 1.783744 0.544040 -1.925627
v 1.838040 0.675123 -1.783744
v 1.884071 0.644366 -1.783744
v 1.783744 0.675123 -1.838040
v 1.840833 0.664130 -1.840834
v 1.885129 0.645424 -1.841848
v 1.873321 0.633617 -1.873321
v 1.914827 0.544040 -1.838040
v 1.884071 0.544040 -1.884071
v 1.914827 0.598336 -1.783744
v 1.903835 0.601129 -1.840833
v 1.885129 0.602144 -1.885129
v 1.783744 0.598336 -1.914827
v 1.783744 0.644366 -1.884071
v 1.838040 0.544040 -1.914827
v 1.840834 0.601129 -1.903835
v 1.841848 0.645424 -1.885129
vn 0.000000 0.000000 -1.000000
vn 0.000000 0.000000 1.000000
vn 1.000000 0.000000 0.000000
vn 0.000000 1.000000 0.000000
vn -1.000000 0.000000 0.000000
vn 0.000000 -1.000000 0.000000
vn -0.184300 -0.184300 0.965400
vn -0.478900 -0.059500 0.875800
vn -0.059500 -0.478900 0.875800
vn -0.391200 -0.391200 0.833000
vn -0.965400 -0.184300 0.184300
vn -0.875800 -0.478900 0.059500
vn -0.875800 -0.059500 0.478900
vn -0.833000 -0.391200 0.391200
vn -0.184300 -0.965400 0.184300
vn -0.059500 -0.875800 0.478900
vn -0.478900 -0.875800 0.059500
vn -0.391200 -0.833000 0.391200
vn -0.184300 0.184300 0.965400
vn -0.059500 0.478900 0.875800
vn -0.478900 0.059500 0.875800
vn -0.391200 0.391200 0.833000
vn -0.184300 0.965400 0.184300
vn -0.478900 0.875800 0.059500
vn -0.059500 0.875800 0.478900
vn -0.391200 0.833000 0.391200
vn -0.965400 0.184300 0.184300
vn -0.875800 0.059500 0.478900
vn -0.875800 0.478900 0.059500
vn -0.833000 0.391200 0.391200
vn -0.184300 -0.184300 -0.965400
vn -0.059500 -0.478900 -0.875800
vn -0.478900 -0.059500 -0.875800
vn -0.391200 -0.391200 -0.833000
vn -0.184300 -0.965400 -0.184300
vn -0.478900 -0.875800 -0.059500
vn -0.059500 -0.875800 -0.478900
vn -0.391200 -0.833000 -0.391200
vn -0.965400 -0.184300 -0.184300
vn -0.875800 -0.059500 -0.478900
vn -0.875800 -0.478900 -0.059500
vn -0.833000 -0.391200 -0.391200
vn -0.184300 0.965400 -0.184300
vn -0.059500 0.875800 -0.478900
vn -0.478900 0.875800 -0.059500
vn -0.391200 0.833000 -0.391200
vn -0.184300 0.184300 -0.965400
vn -0.478900 0.059500 -0.875800
vn -0.059500 0.478900 -0.875800
vn -0.391200 0.391200 -0.833000
vn -0.965400 0.184300 -0.184300
vn -0.875800 0.478900 -0.059500
vn -0.875800 0.059500 -0.478900
vn -0.833000 0.391200 -0.391200
vn 0.184300 -0.184300 0.965400
vn 0.059500 -0.478900 0.875800
vn 0.478900 -0.059500 0.875800
vn 0.391200 -0.391200 0.833000
vn 0.184300 -0.965400 0.184300
vn 0.478900 -0.875800 0.059500
vn 0.059500 -0.875800 0.478900
vn 0.391200 -0.833000 0.391200
vn 0.965400 -0.184300 0.184300
vn 0.875800 -0.059500 0.478900
vn 0.875800 -0.478900 0.059500
vn 0.833000 -0.391200 0.391200
vn 0.184300 0.965400 0.184300
vn 0.059500 0.875800 0.478900
vn 0.478900 0.875800 0.059500
vn 0.391200 0.833000 0.391200
vn 0.184300 0.184300 0.965400
vn 0.478900 0.059500 0.875800
vn 0.059500 0.478900 0.875800
vn 0.391200 0.391200 0.833000
vn 0.965400 0.184300 0.184300
vn 0.875800 0.478900 0.059500
vn 0.875800 0.059500 0.478900
vn 0.833000 0.391200 0.391200
vn 0.965400 -0.184300 -0.184300
vn 0.875800 -0.478900 -0.059500
vn 0.875800 -0.059500 -0.478900
vn 0.833000 -0.391200 -0.391200
vn 0.184300 -0.965400 -0.184300
vn 0.059500 -0.875800 -0.478900
vn 0.478900 -0.875800 -0.059500
vn 0.391200 -0.833000 -0.391200
vn 0.184300 -0.184300 -0.965400
vn 0.478900 -0.059500 -0.875800
vn 0.059500 -0.478900 -0.875800
vn 0.391200 -0.391200 -0.833000
vn 0.184300 0.965400 -0.184300
vn 0.478900 0.875800 -0.059500
vn 0.059500 0.875800 -0.478900
vn 0.391200 0.833000 -0.391200
vn 0.965400 0.184300 -0.184300
vn 0.875800 0.059500 -0.478900
vn 0.875800 0.478900 -0.059500
vn 0.833000 0.391200 -0.391200
vn 0.184300 0.184300 -0.965400
vn 0.059500 0.478900 -0.875800
vn 0.478900 0.059500 -0.875800
vn 0.391200 0.391200 -0.833000
vn -0.195100 0.000000 0.980800
vn -0.555600 0.000000 0.831500
vn -0.831500 0.000000 0.555600
vn -0.980800 0.000000 0.195100
vn -0.195100 0.980800 0.000000
vn -0.555600 0.831500 0.000000
vn -0.831500 0.555600 0.000000
vn -0.980800 0.195100 0.000000
vn -0.195100 0.000000 -0.980800
vn -0.555600 0.000000 -0.831500
vn -0.831500 0.000000 -0.555600
vn -0.980800 0.000000 -0.195100
vn -0.195100 -0.980800 0.000000
vn -0.555600 -0.831500 0.000000
vn -0.831500 -0.555600 -0.000000
vn -0.980800 -0.195100 -0.000000
vn 0.000000 0.980800 -0.195100
vn 0.000000 0.831500 -0.555600
vn 0.000000 0.555600 -0.831500
vn 0.000000 0.195100 -0.980800
vn 0.980800 0.000000 -0.195100
vn 0.831500 0.000000 -0.555600
vn 0.555600 0.000000 -0.831500
vn 0.195100 0.000000 -0.980800
vn 0.000000 -0.980800 -0.195100
vn 0.000000 -0.831500 -0.555600
vn -0.000000 -0.555600 -0.831500
vn -0.000000 -0.195100 -0.980800
vn 0.195100 0.980800 0.000000
vn 0.555600 0.831500 0.000000
vn 0.831500 0.555600 0.000000
vn 0.980800 0.195100 0.000000
vn 0.195100 0.000000 0.980800
vn 0.555600 0.000000 0.831500
vn 0.831500 0.000000 0.555600
vn 0.980800 0.000000 0.195100
vn 0.195100 -0.980800 0.000000
vn 0.555600 -0.831500 0.000000
vn 0.831500 -0.555600 0.000000
vn 0.980800 -0.195100 0.000000
vn 0.000000 0.980800 0.195100
vn 0.000000 0.831500 0.555600
vn 0.000000 0.555600 0.831500
vn 0.000000 0.195100 0.980800
vn 0.000000 -0.980800 0.195100
vn 0.000000 -0.831500 0.555600
vn 0.000000 -0.555600 0.831500
vn 0.000000 -0.195100 0.980800
usemtl None
s off
f 28//1 15//1 50//1 67//1
f 32//2 11//2 53//2 55//2
f 5//1 36//1 68//1 45//1
f 20//3 12//3 54//3 63//3
f 9//3 1//3 38//3 37//3
f 12//2 27//2 66//2 54//2
f 30//4 23//4 15//4 28//4
f 11//5 19//5 62//5 53//5
f 10//5 18//5 61//5 52//5
f 8//2 25//2 65//2 49//2
f 2//5 10//5 52//5 40//5
f 27//4 12//4 20//4 29//4
f 20//4 18//4 21//4 23//4
f 17//4 19//4 22//4 24//4
f 29//4 20//4 23//4 30//4
f 34//4 29//4 30//4 35//4
f 32//4 27//4 29//4 34//4
f 35//4 30//4 28//4 33//4
f 36//4 26//4 27//4 32//4
f 33//4 28//4 25//4 31//4
f 17//3 9//3 37//3 51//3
f 24//1 22//1 57//1 64//1
f 22//4 35//4 33//4 14//4
f 11//4 32//4 34//4 19//4
f 19//4 34//4 35//4 22//4
f 132//2 130//2 138//2 140//2
f 54//3 83//3 128//3 126//3
f 67//4 50//4 49//4 65//4
f 48//4 39//4 54//4 66//4
f 39//1 40//1 72//1 71//1
f 80//3 50//3 130//3 132//3
f 64//4 57//4 47//4 59//4
f 58//4 56//4 41//4 50//4
f 54//4 52//4 61//4 63//4
f 37//4 53//4 62//4 51//4
f 47//4 60//4 46//4 43//4
f 45//4 68//4 55//4 53//4
f 7//1 2//1 40//1 39//1
f 18//2 20//2 63//2 61//2
f 33//5 31//5 46//5 60//5
f 13//5 4//5 42//5 41//5
f 19//2 17//2 51//2 62//2
f 36//5 32//5 55//5 68//5
f 6//2 3//2 44//2 43//2
f 21//5 13//5 41//5 56//5
f 1//1 5//1 45//1 38//1
f 22//5 14//5 47//5 57//5
f 31//2 6//2 43//2 46//2
f 15//3 23//3 58//3 50//3
f 3//3 16//3 59//3 44//3
f 27//3 26//3 48//3 66//3
f 26//1 7//1 39//1 48//1
f 16//3 24//3 64//3 59//3
f 14//1 33//1 60//1 47//1
f 25//3 28//3 67//3 65//3
f 4//2 8//2 49//2 42//2
f 23//1 21//1 56//1 58//1
f 80//4 73//4 74//4 79//4
f 84//4 78//4 75//4 76//4
f 70//4 77//4 82//4 69//4
f 71//4 72//4 81//4 83//4
f 41//5 42//5 74//5 73//5
f 43//2 44//2 76//2 75//2
f 40//5 52//5 81//5 72//5
f 38//1 45//1 77//1 70//1
f 53//2 82//2 90//2 86//2
f 44//3 59//3 84//3 76//3
f 39//2 71//2 91//2 87//2
f 47//6 43//6 154//6 153//6
f 47//5 78//5 95//5 93//5
f 37//3 38//3 70//3 69//3
f 53//2 37//2 98//2 97//2
f 42//2 49//2 79//2 74//2
f 105//2 106//2 114//2 113//2
f 92//2 88//2 122//2 124//2
f 77//2 45//2 85//2 89//2
f 54//2 39//2 87//2 88//2
f 83//2 54//2 88//2 92//2
f 82//2 77//2 89//2 90//2
f 45//2 53//2 86//2 85//2
f 71//2 83//2 92//2 91//2
f 96//2 94//2 102//2 104//2
f 59//6 47//6 93//6 94//6
f 84//3 59//3 94//3 96//3
f 78//4 84//4 96//4 95//4
f 98//3 100//3 108//3 106//3
f 102//1 101//1 103//1 104//1
f 82//2 53//2 97//2 99//2
f 94//2 93//2 101//2 102//2
f 69//2 82//2 99//2 100//2
f 37//2 69//2 100//2 98//2
f 93//2 95//2 103//2 101//2
f 95//2 96//2 104//2 103//2
f 107//2 105//2 113//2 115//2
f 100//4 99//4 107//4 108//4
f 99//5 97//5 105//5 107//5
f 97//6 98//6 106//6 105//6
f 110//2 112//2 120//2 118//2
f 113//2 114//2 116//2 115//2
f 86//2 90//2 112//2 110//2
f 106//2 108//2 116//2 114//2
f 108//2 107//2 115//2 116//2
f 89//2 85//2 109//2 111//2
f 90//2 89//2 111//2 112//2
f 85//2 86//2 110//2 109//2
f 117//5 118//5 120//5 119//5
f 112//4 111//4 119//4 120//4
f 111//1 109//1 117//1 119//1
f 109//6 110//6 118//6 117//6
f 122//3 121//3 123//3 124//3
f 91//4 92//4 124//4 123//4
f 88//6 87//6 121//6 122//6
f 87//1 91//1 123//1 121//1
f 125//2 126//2 128//2 127//2
f 52//6 54//6 126//6 125//6
f 83//4 81//4 127//4 128//4
f 81//5 52//5 125//5 127//5
f 50//2 80//2 135//2 133//2
f 73//4 80//4 132//4 131//4
f 41//5 73//5 131//5 129//5
f 50//6 41//6 129//6 130//6
f 137//2 139//2 147//2 145//2
f 135//2 136//2 144//2 143//2
f 131//2 132//2 140//2 139//2
f 49//2 50//2 133//2 134//2
f 79//2 49//2 134//2 136//2
f 80//2 79//2 136//2 135//2
f 129//2 131//2 139//2 137//2
f 130//2 129//2 137//2 138//2
f 144//2 142//2 150//2 152//2
f 146//1 145//1 147//1 148//1
f 138//2 137//2 145//2 146//2
f 133//2 135//2 143//2 141//2
f 134//2 133//2 141//2 142//2
f 140//2 138//2 146//2 148//2
f 139//2 140//2 148//2 147//2
f 136//2 134//2 142//2 144//2
f 150//3 149//3 151//3 152//3
f 143//4 144//4 152//4 151//4
f 141//1 143//1 151//1 149//1
f 142//6 141//6 149//6 150//6
f 153//5 154//5 156//5 155//5
f 78//1 47//1 153//1 155//1
f 75//4 78//4 155//4 156//4
f 43//2 75//2 156//2 154//2
f 159//6 196//6 272//6 234//6
f 291//3 254//3 235//3 271//3
f 252//4 290//4 214//4 177//4
f 253//2 176//2 157//2 233//2
f 215//1 292//1 273//1 195//1
f 157//7 160//7 163//7 162//7
f 160//8 161//8 164//8 163//8
f 162//9 163//9 175//9 172//9
f 163//10 164//10 165//10 175//10
f 158//11 166//11 169//11 168//11
f 166//12 167//12 170//12 169//12
f 168//13 169//13 164//13 161//13
f 169//14 170//14 165//14 164//14
f 159//15 171//15 174//15 173//15
f 171//16 172//16 175//16 174//16
f 173//17 174//17 170//17 167//17
f 174//18 175//18 165//18 170//18
f 176//19 179//19 182//19 181//19
f 179//20 180//20 183//20 182//20
f 181//21 182//21 194//21 191//21
f 182//22 183//22 184//22 194//22
f 177//23 185//23 188//23 187//23
f 185//24 186//24 189//24 188//24
f 187//25 188//25 183//25 180//25
f 188//26 189//26 184//26 183//26
f 178//27 190//27 193//27 192//27
f 190//28 191//28 194//28 193//28
f 192//29 193//29 189//29 186//29
f 193//30 194//30 184//30 189//30
f 195//31 198//31 201//31 200//31
f 198//32 199//32 202//32 201//32
f 200//33 201//33 213//33 210//33
f 201//34 202//34 203//34 213//34
f 196//35 204//35 207//35 206//35
f 204//36 205//36 208//36 207//36
f 206//37 207//37 202//37 199//37
f 207//38 208//38 203//38 202//38
f 197//39 209//39 212//39 211//39
f 209//40 210//40 213//40 212//40
f 211//41 212//41 208//41 205//41
f 212//42 213//42 203//42 208//42
f 214//43 217//43 220//43 219//43
f 217//44 218//44 221//44 220//44
f 219//45 220//45 232//45 229//45
f 220//46 221//46 222//46 232//46
f 215//47 223//47 226//47 225//47
f 223//48 224//48 227//48 226//48
f 225//49 226//49 221//49 218//49
f 226//50 227//50 222//50 221//50
f 216//51 228//51 231//51 230//51
f 228//52 229//52 232//52 231//52
f 230//53 231//53 227//53 224//53
f 231//54 232//54 222//54 227//54
f 233//55 236//55 239//55 238//55
f 236//56 237//56 240//56 239//56
f 238//57 239//57 251//57 248//57
f 239//58 240//58 241//58 251//58
f 234//59 242//59 245//59 244//59
f 242//60 243//60 246//60 245//60
f 244//61 245//61 240//61 237//61
f 245//62 246//62 241//62 240//62
f 235//63 247//63 250//63 249//63
f 247//64 248//64 251//64 250//64
f 249//65 250//65 246//65 243//65
f 250//66 251//66 241//66 246//66
f 252//67 255//67 258//67 257//67
f 255//68 256//68 259//68 258//68
f 257//69 258//69 270//69 267//69
f 258//70 259//70 260//70 270//70
f 253//71 261//71 264//71 263//71
f 261//72 262//72 265//72 264//72
f 263//73 264//73 259//73 256//73
f 264//74 265//74 260//74 259//74
f 254//75 266//75 269//75 268//75
f 266//76 267//76 270//76 269//76
f 268//77 269//77 265//77 262//77
f 269//78 270//78 260//78 265//78
f 271//79 274//79 277//79 276//79
f 274//80 275//80 278//80 277//80
f 276//81 277//81 289//81 286//81
f 277//82 278//82 279//82 289//82
f 272//83 280//83 283//83 282//83
f 280//84 281//84 284//84 283//84
f 282//85 283//85 278//85 275//85
f 283//86 284//86 279//86 278//86
f 273//87 285//87 288//87 287//87
f 285//88 286//88 289//88 288//88
f 287//89 288//89 284//89 281//89
f 288//90 289//90 279//90 284//90
f 290//91 293//91 296//91 295//91
f 293//92 294//92 297//92 296//92
f 295//93 296//93 308//93 305//93
f 296//94 297//94 298//94 308//94
f 291//95 299//95 302//95 301//95
f 299//96 300//96 303//96 302//96
f 301//97 302//97 297//97 294//97
f 302//98 303//98 298//98 297//98
f 292//99 304//99 307//99 306//99
f 304//100 305//100 308//100 307//100
f 306//101 307//101 303//101 300//101
f 307//102 308//102 298//102 303//102
f 157//103 176//103 181//103 160//103
f 160//104 181//104 191//104 161//104
f 161//105 191//105 190//105 168//105
f 168//106 190//106 178//106 158//106
f 177//107 214//107 219//107 185//107
f 185//108 219//108 229//108 186//108
f 186//109 229//109 228//109 192//109
f 192//110 228//110 216//110 178//110
f 215//111 195//111 200//111 223//111
f 223//112 200//112 210//112 224//112
f 224//113 210//113 209//113 230//113
f 230//114 209//114 197//114 216//114
f 196//115 159//115 173//115 204//115
f 204//116 173//116 167//116 205//116
f 205//117 167//117 166//117 211//117
f 211//118 166//118 158//118 197//118
f 214//119 290//119 295//119 217//119
f 217//120 295//120 305//120 218//120
f 218//121 305//121 304//121 225//121
f 225//122 304//122 292//122 215//122
f 291//123 271//123 276//123 299//123
f 299//124 276//124 286//124 300//124
f 300//125 286//125 285//125 306//125
f 306//126 285//126 273//126 292//126
f 272//127 196//127 206//127 280//127
f 280//128 206//128 199//128 281//128
f 281//129 199//129 198//129 287//129
f 287//130 198//130 195//130 273//130
f 290//131 252//131 257//131 293//131
f 293//132 257//132 267//132 294//132
f 294//133 267//133 266//133 301//133
f 301//134 266//134 254//134 291//134
f 253//135 233//135 238//135 261//135
f 261//136 238//136 248//136 262//136
f 262//137 248//137 247//137 268//137
f 268//138 247//138 235//138 254//138
f 234//139 272//139 282//139 242//139
f 242//140 282//140 275//140 243//140
f 243//141 275//141 274//141 249//141
f 249//142 274//142 271//142 235//142
f 252//143 177//143 187//143 255//143
f 255//144 187//144 180//144 256//144
f 256//145 180//145 179//145 263//145
f 263//146 179//146 176//146 253//146
f 159//147 234//147 244//147 171//147
f 171//148 244//148 237//148 172//148
f 172//149 237//149 236//149 162//149
f 162//150 236//150 233//150 157//150
f 178//5 216//5 197//5 158//5
