# Blender v2.75 (sub 0) OBJ File: 'square_light.blend'
# www.blender.org
mtllib square_light.mtl
o Inside_Plane.001
v -1.783744 0.204988 1.925627
v -1.925627 0.204988 1.783744
v -1.783744 0.063105 1.783744
v -1.838040 0.204988 1.914827
v -1.884071 0.204988 1.884071
v -1.783744 0.150692 1.914827
v -1.840833 0.147899 1.903835
v -1.885129 0.146885 1.885129
v -1.873321 0.115411 1.873321
v -1.914827 0.150692 1.783744
v -1.884071 0.104662 1.783744
v -1.914827 0.204988 1.838040
v -1.903835 0.147899 1.840834
v -1.885129 0.103604 1.841848
v -1.783744 0.073905 1.838040
v -1.783744 0.104662 1.884071
v -1.838040 0.073905 1.783744
v -1.840834 0.084898 1.840833
v -1.841848 0.103604 1.885129
v -1.783744 0.544040 1.925627
v -1.783744 0.685923 1.783744
v -1.925627 0.544040 1.783744
v -1.783744 0.598336 1.914827
v -1.783744 0.644366 1.884071
v -1.838040 0.544040 1.914827
v -1.840834 0.601129 1.903835
v -1.841848 0.645424 1.885129
v -1.873321 0.633617 1.873321
v -1.838040 0.675123 1.783744
v -1.884071 0.644366 1.783744
v -1.783744 0.675123 1.838040
v -1.840833 0.664130 1.840834
v -1.885129 0.645424 1.841848
v -1.914827 0.544040 1.838040
v -1.884071 0.544040 1.884071
v -1.914827 0.598336 1.783744
v -1.903835 0.601129 1.840833
v -1.885129 0.602144 1.885129
v -1.783744 0.204988 -1.925627
v -1.783744 0.063105 -1.783744
v -1.925627 0.204988 -1.783744
v -1.783744 0.150692 -1.914827
v -1.783744 0.104662 -1.884071
v -1.838040 0.204988 -1.914827
v -1.840834 0.147899 -1.903835
v -1.841848 0.103604 -1.885129
v -1.873321 0.115411 -1.873321
v -1.838040 0.073905 -1.783744
v -1.884071 0.104662 -1.783744
v -1.783744 0.073905 -1.838040
v -1.840833 0.084898 -1.840834
v -1.885129 0.103604 -1.841848
v -1.914827 0.204988 -1.838040
v -1.884071 0.204988 -1.884071
v -1.914827 0.150692 -1.783744
v -1.903835 0.147899 -1.840833
v -1.885129 0.146885 -1.885129
v -1.783744 0.685923 -1.783744
v -1.783744 0.544040 -1.925627
v -1.925627 0.544040 -1.783744
v -1.783744 0.675123 -1.838040
v -1.783744 0.644366 -1.884071
v -1.838040 0.675123 -1.783744
v -1.840834 0.664130 -1.840833
v -1.841848 0.645424 -1.885129
v -1.873321 0.633617 -1.873321
v -1.838040 0.544040 -1.914827
v -1.884071 0.544040 -1.884071
v -1.783744 0.598336 -1.914827
v -1.840833 0.601129 -1.903835
v -1.885129 0.602144 -1.885129
v -1.914827 0.598336 -1.783744
v -1.884071 0.644366 -1.783744
v -1.914827 0.544040 -1.838040
v -1.903835 0.601129 -1.840834
v -1.885129 0.645424 -1.841848
v 1.783744 0.204988 1.925627
v 1.783744 0.063105 1.783744
v 1.925627 0.204988 1.783744
v 1.783744 0.150692 1.914827
v 1.783744 0.104662 1.884071
v 1.838040 0.204988 1.914827
v 1.840834 0.147899 1.903835
v 1.841848 0.103604 1.885129
v 1.873321 0.115411 1.873321
v 1.838040 0.073905 1.783744
v 1.884071 0.104662 1.783744
v 1.783744 0.073905 1.838040
v 1.840833 0.084898 1.840834
v 1.885129 0.103604 1.841848
v 1.914827 0.204988 1.838040
v 1.884071 0.204988 1.884071
v 1.914827 0.150692 1.783744
v 1.903835 0.147899 1.840833
v 1.885129 0.146885 1.885129
v 1.783744 0.685923 1.783744
v 1.783744 0.544040 1.925627
v 1.925627 0.544040 1.783744
v 1.783744 0.675123 1.838040
v 1.783744 0.644366 1.884071
v 1.838040 0.675123 1.783744
v 1.840834 0.664130 1.840833
v 1.841848 0.645424 1.885129
v 1.873321 0.633617 1.873321
v 1.838040 0.544040 1.914827
v 1.884071 0.544040 1.884071
v 1.783744 0.598336 1.914827
v 1.840833 0.601129 1.903835
v 1.885129 0.602144 1.885129
v 1.914827 0.598336 1.783744
v 1.884071 0.644366 1.783744
v 1.914827 0.544040 1.838040
v 1.903835 0.601129 1.840834
v 1.885129 0.645424 1.841848
v 1.925627 0.204988 -1.783744
v 1.783744 0.063105 -1.783744
v 1.783744 0.204988 -1.925627
v 1.914827 0.150692 -1.783744
v 1.884071 0.104662 -1.783744
v 1.914827 0.204988 -1.838040
v 1.903835 0.147899 -1.840834
v 1.885129 0.103604 -1.841848
v 1.873321 0.115411 -1.873321
v 1.783744 0.073905 -1.838040
v 1.783744 0.104662 -1.884071
v 1.838040 0.073905 -1.783744
v 1.840834 0.084898 -1.840833
v 1.841848 0.103604 -1.885129
v 1.838040 0.204988 -1.914827
v 1.884071 0.204988 -1.884071
v 1.783744 0.150692 -1.914827
v 1.840833 0.147899 -1.903835
v 1.885129 0.146885 -1.885129
v 1.783744 0.685923 -1.783744
v 1.925627 0.544040 -1.783744
v 1.783744 0.544040 -1.925627
v 1.838040 0.675123 -1.783744
v 1.884071 0.644366 -1.783744
v 1.783744 0.675123 -1.838040
v 1.840833 0.664130 -1.840834
v 1.885129 0.645424 -1.841848
v 1.873321 0.633617 -1.873321
v 1.914827 0.544040 -1.838040
v 1.884071 0.544040 -1.884071
v 1.914827 0.598336 -1.783744
v 1.903835 0.601129 -1.840833
v 1.885129 0.602144 -1.885129
v 1.783744 0.598336 -1.914827
v 1.783744 0.644366 -1.884071
v 1.838040 0.544040 -1.914827
v 1.840834 0.601129 -1.903835
v 1.841848 0.645424 -1.885129
vn 0.000000 -1.000000 0.000000
vn 1.000000 0.000000 0.000000
vn 0.000000 1.000000 0.000000
vn 0.000000 0.000000 1.000000
vn 0.000000 0.000000 -1.000000
vn -0.184300 -0.184300 0.965400
vn -0.478900 -0.059500 0.875800
vn -0.059500 -0.478900 0.875800
vn -0.391200 -0.391200 0.833000
vn -0.965400 -0.184300 0.184300
vn -0.875800 -0.478900 0.059500
vn -0.875800 -0.059500 0.478900
vn -0.833000 -0.391200 0.391200
vn -0.184300 -0.965400 0.184300
vn -0.059500 -0.875800 0.478900
vn -0.478900 -0.875800 0.059500
vn -0.391200 -0.833000 0.391200
vn -0.184300 0.184300 0.965400
vn -0.059500 0.478900 0.875800
vn -0.478900 0.059500 0.875800
vn -0.391200 0.391200 0.833000
vn -0.184300 0.965400 0.184300
vn -0.478900 0.875800 0.059500
vn -0.059500 0.875800 0.478900
vn -0.391200 0.833000 0.391200
vn -0.965400 0.184300 0.184300
vn -0.875800 0.059500 0.478900
vn -0.875800 0.478900 0.059500
vn -0.833000 0.391200 0.391200
vn -0.184300 -0.184300 -0.965400
vn -0.059500 -0.478900 -0.875800
vn -0.478900 -0.059500 -0.875800
vn -0.391200 -0.391200 -0.833000
vn -0.184300 -0.965400 -0.184300
vn -0.478900 -0.875800 -0.059500
vn -0.059500 -0.875800 -0.478900
vn -0.391200 -0.833000 -0.391200
vn -0.965400 -0.184300 -0.184300
vn -0.875800 -0.059500 -0.478900
vn -0.875800 -0.478900 -0.059500
vn -0.833000 -0.391200 -0.391200
vn -0.184300 0.965400 -0.184300
vn -0.059500 0.875800 -0.478900
vn -0.478900 0.875800 -0.059500
vn -0.391200 0.833000 -0.391200
vn -0.184300 0.184300 -0.965400
vn -0.478900 0.059500 -0.875800
vn -0.059500 0.478900 -0.875800
vn -0.391200 0.391200 -0.833000
vn -0.965400 0.184300 -0.184300
vn -0.875800 0.478900 -0.059500
vn -0.875800 0.059500 -0.478900
vn -0.833000 0.391200 -0.391200
vn 0.184300 -0.184300 0.965400
vn 0.059500 -0.478900 0.875800
vn 0.478900 -0.059500 0.875800
vn 0.391200 -0.391200 0.833000
vn 0.184300 -0.965400 0.184300
vn 0.478900 -0.875800 0.059500
vn 0.059500 -0.875800 0.478900
vn 0.391200 -0.833000 0.391200
vn 0.965400 -0.184300 0.184300
vn 0.875800 -0.059500 0.478900
vn 0.875800 -0.478900 0.059500
vn 0.833000 -0.391200 0.391200
vn 0.184300 0.965400 0.184300
vn 0.059500 0.875800 0.478900
vn 0.478900 0.875800 0.059500
vn 0.391200 0.833000 0.391200
vn 0.184300 0.184300 0.965400
vn 0.478900 0.059500 0.875800
vn 0.059500 0.478900 0.875800
vn 0.391200 0.391200 0.833000
vn 0.965400 0.184300 0.184300
vn 0.875800 0.478900 0.059500
vn 0.875800 0.059500 0.478900
vn 0.833000 0.391200 0.391200
vn 0.965400 -0.184300 -0.184300
vn 0.875800 -0.478900 -0.059500
vn 0.875800 -0.059500 -0.478900
vn 0.833000 -0.391200 -0.391200
vn 0.184300 -0.965400 -0.184300
vn 0.059500 -0.875800 -0.478900
vn 0.478900 -0.875800 -0.059500
vn 0.391200 -0.833000 -0.391200
vn 0.184300 -0.184300 -0.965400
vn 0.478900 -0.059500 -0.875800
vn 0.059500 -0.478900 -0.875800
vn 0.391200 -0.391200 -0.833000
vn 0.184300 0.965400 -0.184300
vn 0.478900 0.875800 -0.059500
vn 0.059500 0.875800 -0.478900
vn 0.391200 0.833000 -0.391200
vn 0.965400 0.184300 -0.184300
vn 0.875800 0.059500 -0.478900
vn 0.875800 0.478900 -0.059500
vn 0.833000 0.391200 -0.391200
vn 0.184300 0.184300 -0.965400
vn 0.059500 0.478900 -0.875800
vn 0.478900 0.059500 -0.875800
vn 0.391200 0.391200 -0.833000
vn -0.195100 0.000000 0.980800
vn -0.555600 0.000000 0.831500
vn -0.831500 0.000000 0.555600
vn -0.980800 0.000000 0.195100
vn -0.195100 0.980800 0.000000
vn -0.555600 0.831500 0.000000
vn -0.831500 0.555600 0.000000
vn -0.980800 0.195100 0.000000
vn -0.195100 0.000000 -0.980800
vn -0.555600 0.000000 -0.831500
vn -0.831500 0.000000 -0.555600
vn -0.980800 0.000000 -0.195100
vn -0.195100 -0.980800 0.000000
vn -0.555600 -0.831500 0.000000
vn -0.831500 -0.555600 -0.000000
vn -0.980800 -0.195100 -0.000000
vn 0.000000 0.980800 -0.195100
vn 0.000000 0.831500 -0.555600
vn 0.000000 0.555600 -0.831500
vn 0.000000 0.195100 -0.980800
vn 0.980800 0.000000 -0.195100
vn 0.831500 0.000000 -0.555600
vn 0.555600 0.000000 -0.831500
vn 0.195100 0.000000 -0.980800
vn 0.000000 -0.980800 -0.195100
vn 0.000000 -0.831500 -0.555600
vn -0.000000 -0.555600 -0.831500
vn -0.000000 -0.195100 -0.980800
vn 0.195100 0.980800 0.000000
vn 0.555600 0.831500 0.000000
vn 0.831500 0.555600 0.000000
vn 0.980800 0.195100 0.000000
vn 0.195100 0.000000 0.980800
vn 0.555600 0.000000 0.831500
vn 0.831500 0.000000 0.555600
vn 0.980800 0.000000 0.195100
vn 0.195100 -0.980800 0.000000
vn 0.555600 -0.831500 0.000000
vn 0.831500 -0.555600 0.000000
vn 0.980800 -0.195100 0.000000
vn 0.000000 0.980800 0.195100
vn 0.000000 0.831500 0.555600
vn 0.000000 0.555600 0.831500
vn 0.000000 0.195100 0.980800
vn 0.000000 -0.980800 0.195100
vn 0.000000 -0.831500 0.555600
vn 0.000000 -0.555600 0.831500
vn 0.000000 -0.195100 0.980800
vn -1.000000 0.000000 0.000000
usemtl None
s off
f 3//1 40//1 116//1 78//1
f 135//2 98//2 79//2 115//2
f 96//3 134//3 58//3 21//3
f 97//4 20//4 1//4 77//4
f 59//5 136//5 117//5 39//5
f 1//6 4//6 7//6 6//6
f 4//7 5//7 8//7 7//7
f 6//8 7//8 19//8 16//8
f 7//9 8//9 9//9 19//9
f 2//10 10//10 13//10 12//10
f 10//11 11//11 14//11 13//11
f 12//12 13//12 8//12 5//12
f 13//13 14//13 9//13 8//13
f 3//14 15//14 18//14 17//14
f 15//15 16//15 19//15 18//15
f 17//16 18//16 14//16 11//16
f 18//17 19//17 9//17 14//17
f 20//18 23//18 26//18 25//18
f 23//19 24//19 27//19 26//19
f 25//20 26//20 38//20 35//20
f 26//21 27//21 28//21 38//21
f 21//22 29//22 32//22 31//22
f 29//23 30//23 33//23 32//23
f 31//24 32//24 27//24 24//24
f 32//25 33//25 28//25 27//25
f 22//26 34//26 37//26 36//26
f 34//27 35//27 38//27 37//27
f 36//28 37//28 33//28 30//28
f 37//29 38//29 28//29 33//29
f 39//30 42//30 45//30 44//30
f 42//31 43//31 46//31 45//31
f 44//32 45//32 57//32 54//32
f 45//33 46//33 47//33 57//33
f 40//34 48//34 51//34 50//34
f 48//35 49//35 52//35 51//35
f 50//36 51//36 46//36 43//36
f 51//37 52//37 47//37 46//37
f 41//38 53//38 56//38 55//38
f 53//39 54//39 57//39 56//39
f 55//40 56//40 52//40 49//40
f 56//41 57//41 47//41 52//41
f 58//42 61//42 64//42 63//42
f 61//43 62//43 65//43 64//43
f 63//44 64//44 76//44 73//44
f 64//45 65//45 66//45 76//45
f 59//46 67//46 70//46 69//46
f 67//47 68//47 71//47 70//47
f 69//48 70//48 65//48 62//48
f 70//49 71//49 66//49 65//49
f 60//50 72//50 75//50 74//50
f 72//51 73//51 76//51 75//51
f 74//52 75//52 71//52 68//52
f 75//53 76//53 66//53 71//53
f 77//54 80//54 83//54 82//54
f 80//55 81//55 84//55 83//55
f 82//56 83//56 95//56 92//56
f 83//57 84//57 85//57 95//57
f 78//58 86//58 89//58 88//58
f 86//59 87//59 90//59 89//59
f 88//60 89//60 84//60 81//60
f 89//61 90//61 85//61 84//61
f 79//62 91//62 94//62 93//62
f 91//63 92//63 95//63 94//63
f 93//64 94//64 90//64 87//64
f 94//65 95//65 85//65 90//65
f 96//66 99//66 102//66 101//66
f 99//67 100//67 103//67 102//67
f 101//68 102//68 114//68 111//68
f 102//69 103//69 104//69 114//69
f 97//70 105//70 108//70 107//70
f 105//71 106//71 109//71 108//71
f 107//72 108//72 103//72 100//72
f 108//73 109//73 104//73 103//73
f 98//74 110//74 113//74 112//74
f 110//75 111//75 114//75 113//75
f 112//76 113//76 109//76 106//76
f 113//77 114//77 104//77 109//77
f 115//78 118//78 121//78 120//78
f 118//79 119//79 122//79 121//79
f 120//80 121//80 133//80 130//80
f 121//81 122//81 123//81 133//81
f 116//82 124//82 127//82 126//82
f 124//83 125//83 128//83 127//83
f 126//84 127//84 122//84 119//84
f 127//85 128//85 123//85 122//85
f 117//86 129//86 132//86 131//86
f 129//87 130//87 133//87 132//87
f 131//88 132//88 128//88 125//88
f 132//89 133//89 123//89 128//89
f 134//90 137//90 140//90 139//90
f 137//91 138//91 141//91 140//91
f 139//92 140//92 152//92 149//92
f 140//93 141//93 142//93 152//93
f 135//94 143//94 146//94 145//94
f 143//95 144//95 147//95 146//95
f 145//96 146//96 141//96 138//96
f 146//97 147//97 142//97 141//97
f 136//98 148//98 151//98 150//98
f 148//99 149//99 152//99 151//99
f 150//100 151//100 147//100 144//100
f 151//101 152//101 142//101 147//101
f 1//102 20//102 25//102 4//102
f 4//103 25//103 35//103 5//103
f 5//104 35//104 34//104 12//104
f 12//105 34//105 22//105 2//105
f 21//106 58//106 63//106 29//106
f 29//107 63//107 73//107 30//107
f 30//108 73//108 72//108 36//108
f 36//109 72//109 60//109 22//109
f 59//110 39//110 44//110 67//110
f 67//111 44//111 54//111 68//111
f 68//112 54//112 53//112 74//112
f 74//113 53//113 41//113 60//113
f 40//114 3//114 17//114 48//114
f 48//115 17//115 11//115 49//115
f 49//116 11//116 10//116 55//116
f 55//117 10//117 2//117 41//117
f 58//118 134//118 139//118 61//118
f 61//119 139//119 149//119 62//119
f 62//120 149//120 148//120 69//120
f 69//121 148//121 136//121 59//121
f 135//122 115//122 120//122 143//122
f 143//123 120//123 130//123 144//123
f 144//124 130//124 129//124 150//124
f 150//125 129//125 117//125 136//125
f 116//126 40//126 50//126 124//126
f 124//127 50//127 43//127 125//127
f 125//128 43//128 42//128 131//128
f 131//129 42//129 39//129 117//129
f 134//130 96//130 101//130 137//130
f 137//131 101//131 111//131 138//131
f 138//132 111//132 110//132 145//132
f 145//133 110//133 98//133 135//133
f 97//134 77//134 82//134 105//134
f 105//135 82//135 92//135 106//135
f 106//136 92//136 91//136 112//136
f 112//137 91//137 79//137 98//137
f 78//138 116//138 126//138 86//138
f 86//139 126//139 119//139 87//139
f 87//140 119//140 118//140 93//140
f 93//141 118//141 115//141 79//141
f 96//142 21//142 31//142 99//142
f 99//143 31//143 24//143 100//143
f 100//144 24//144 23//144 107//144
f 107//145 23//145 20//145 97//145
f 3//146 78//146 88//146 15//146
f 15//147 88//147 81//147 16//147
f 16//148 81//148 80//148 6//148
f 6//149 80//149 77//149 1//149
f 22//150 60//150 41//150 2//150
o Outside_Plane
v 3.013816 0.000000 -3.013816
v -3.013816 0.000000 -3.013816
v 3.013816 0.000000 3.013816
v -3.013816 0.000000 3.013816
v 1.998800 0.000000 -3.013816
v 1.998800 0.000000 3.013816
v -1.995628 0.000000 -3.013816
v -1.995628 0.000000 3.013816
v 3.013816 0.000000 -1.998800
v -3.013816 0.000000 -1.998800
v 1.998800 0.000000 -1.998800
v -1.995628 0.000000 -1.998800
v -3.013816 0.000000 1.995628
v 1.998800 0.000000 1.995628
v -1.995628 0.000000 1.995628
v 3.013816 0.000000 1.995628
v 3.013816 0.000000 -1.039146
v -3.013816 0.000000 -1.039145
v 1.998800 0.000000 -1.039145
v -1.995628 0.000000 -1.039145
v -3.013816 0.000000 1.006287
v 1.998800 0.000000 1.006287
v -1.995628 0.000000 1.006287
v 3.013816 0.000000 1.006287
v -0.995273 0.000000 3.013816
v -0.995273 0.000000 -3.013816
v -0.995273 0.000000 -1.998800
v -0.995273 0.000000 1.995628
v -0.995273 0.000000 -1.039145
v -0.995273 0.000000 1.006287
v 1.011189 0.000000 3.013816
v 1.011189 0.000000 -1.998800
v 1.011189 0.000000 1.995628
v 1.011189 0.000000 -1.039145
v 1.011189 0.000000 1.006287
v 1.011188 0.000000 -3.013816
v 3.013816 0.470055 -1.998800
v 3.013816 0.470055 -3.013816
v -1.995628 0.470055 -3.013816
v -3.013816 0.470055 -3.013816
v -3.013816 0.470055 1.995628
v -3.013816 0.470055 3.013816
v 1.998800 0.470055 3.013816
v 3.013816 0.470055 3.013816
v 1.998800 0.470055 -3.013816
v 1.011189 0.470055 3.013816
v 1.998800 0.470055 1.995628
v -0.995273 0.470055 -3.013816
v -1.995628 0.470055 3.013816
v -1.995628 0.470055 1.995628
v 3.013816 0.470055 -1.039146
v -3.013816 0.470055 -1.998800
v 1.998800 0.470055 -1.998800
v -1.995628 0.470055 -1.998800
v 1.011189 0.470055 -1.998800
v -3.013816 0.470055 1.006287
v 1.998800 0.470055 1.006287
v -1.995628 0.470055 1.006287
v 3.013816 0.470055 1.995628
v 1.011189 0.470055 1.995628
v -3.013816 0.470055 -1.039145
v 1.998800 0.470055 -1.039145
v -1.995628 0.470055 -1.039145
v 3.013816 0.470055 1.006287
v -0.995273 0.470055 3.013816
v -0.995273 0.470055 -1.998800
v -0.995273 0.470055 1.995628
v 1.011188 0.470055 -3.013816
v 3.013816 0.567455 -1.998800
v 3.013816 0.567455 -3.013816
v -1.995628 0.567455 -3.013816
v -3.013816 0.567455 -3.013816
v -3.013816 0.567455 1.995628
v -3.013816 0.567455 3.013816
v 1.998800 0.567455 3.013816
v 3.013816 0.567455 3.013816
v 1.998800 0.567455 -3.013816
v 1.998800 0.567455 1.995628
v -1.995628 0.567455 3.013816
v -1.995628 0.567455 1.995628
v -3.013816 0.567455 -1.998800
v 1.998800 0.567455 -1.998800
v -1.995628 0.567455 -1.998800
v 3.013816 0.567455 1.995628
v 1.998800 0.470055 -3.013816
v 1.998800 0.470055 -1.998800
v -1.995628 0.470055 -3.013816
v -1.995628 0.470055 -1.998800
v 1.998800 0.567455 -3.013816
v 1.998800 0.567455 -1.998800
v -1.995628 0.567455 -3.013816
v -1.995628 0.567455 -1.998800
v 1.998800 0.470055 -0.035587
v 3.013816 0.470055 -0.035587
v 1.998800 0.567455 -0.035587
v 3.013816 0.567455 -0.035587
v 1.998800 0.470055 -1.998800
v 3.013816 0.470055 -1.998800
v 1.998800 0.567455 -1.998800
v 3.013816 0.567455 -1.998800
v 1.998800 0.470055 -0.035587
v 3.013816 0.470055 -0.035587
v 1.998800 0.567455 -0.035587
v 3.013816 0.567455 -0.035587
v 1.998800 0.470055 -0.026833
v 3.013816 0.470055 -0.026833
v 1.998800 0.567455 -0.026833
v 3.013816 0.567455 -0.026833
v 1.998800 0.470055 -3.013816
v 1.998800 0.470055 -1.998800
v 1.998800 0.567455 -3.013816
v 1.998800 0.567455 -1.998800
v 1.998800 0.470055 -0.026833
v 3.013816 0.470055 -0.026833
v 1.998800 0.567455 -0.026833
v 3.013816 0.567455 -0.026833
v -0.041457 0.470055 -3.013816
v -0.041457 0.470055 -1.998800
v -0.041457 0.567455 -3.013816
v -0.041457 0.567455 -1.998800
v 0.017365 0.470055 -3.013816
v 0.017365 0.470055 -1.998800
v 0.017365 0.567455 -3.013816
v 0.017365 0.567455 -1.998800
v -3.013816 0.470055 0.233582
v -1.995628 0.470055 0.233582
v -3.013816 0.567455 0.233582
v -1.995628 0.567455 0.233582
v -3.013816 0.470055 0.202981
v -1.995628 0.470055 0.202981
v -3.013816 0.567455 0.202981
v -1.995628 0.567455 0.202981
v -1.995628 0.470055 1.995628
v -1.995628 0.470055 3.013816
v -1.995628 0.567455 1.995628
v -1.995628 0.567455 3.013816
v -3.013816 0.470055 0.202981
v -1.995628 0.470055 0.202981
v -3.013816 0.567455 0.202981
v -1.995628 0.567455 0.202981
v -1.995628 0.470055 1.995628
v -1.995628 0.470055 3.013816
v -1.995628 0.567455 1.995628
v -1.995628 0.567455 3.013816
v -3.013816 0.470055 0.202981
v -1.995628 0.470055 0.202981
v -3.013816 0.567455 0.202981
v -1.995628 0.567455 0.202981
v 0.013487 0.470055 1.995628
v 0.013487 0.470055 3.013816
v 0.013487 0.567455 1.995628
v 0.013487 0.567455 3.013816
v -0.027042 0.470055 1.995628
v -0.027042 0.470055 3.013816
v -0.027042 0.567455 1.995628
v -0.027042 0.567455 3.013816
vn 0.000000 0.000000 -1.000000
vn 0.000000 0.000000 1.000000
vn 1.000000 0.000000 0.000000
vn 0.000000 1.000000 0.000000
vn -1.000000 0.000000 0.000000
vn 0.000000 -1.000000 0.000000
usemtl None
s off
f 180//151 167//151 202//151 219//151
f 184//152 163//152 205//152 207//152
f 157//151 188//151 220//151 197//151
f 172//153 164//153 206//153 215//153
f 161//153 153//153 190//153 189//153
f 164//152 179//152 218//152 206//152
f 182//154 175//154 167//154 180//154
f 163//155 171//155 214//155 205//155
f 162//155 170//155 213//155 204//155
f 160//152 177//152 217//152 201//152
f 154//155 162//155 204//155 192//155
f 179//154 164//154 172//154 181//154
f 172//154 170//154 173//154 175//154
f 169//154 171//154 174//154 176//154
f 181//154 172//154 175//154 182//154
f 186//154 181//154 182//154 187//154
f 184//154 179//154 181//154 186//154
f 187//154 182//154 180//154 185//154
f 188//154 178//154 179//154 184//154
f 185//154 180//154 177//154 183//154
f 169//153 161//153 189//153 203//153
f 176//151 174//151 209//151 216//151
f 174//154 187//154 185//154 166//154
f 163//154 184//154 186//154 171//154
f 171//154 186//154 187//154 174//154
f 284//152 282//152 290//152 292//152
f 206//153 235//153 280//153 278//153
f 219//154 202//154 201//154 217//154
f 200//154 191//154 206//154 218//154
f 191//151 192//151 224//151 223//151
f 232//153 202//153 282//153 284//153
f 216//154 209//154 199//154 211//154
f 210//154 208//154 193//154 202//154
f 206//154 204//154 213//154 215//154
f 189//154 205//154 214//154 203//154
f 199//154 212//154 198//154 195//154
f 197//154 220//154 207//154 205//154
f 159//151 154//151 192//151 191//151
f 170//152 172//152 215//152 213//152
f 185//155 183//155 198//155 212//155
f 165//155 156//155 194//155 193//155
f 171//152 169//152 203//152 214//152
f 188//155 184//155 207//155 220//155
f 158//152 155//152 196//152 195//152
f 173//155 165//155 193//155 208//155
f 153//151 157//151 197//151 190//151
f 174//155 166//155 199//155 209//155
f 183//152 158//152 195//152 198//152
f 167//153 175//153 210//153 202//153
f 155//153 168//153 211//153 196//153
f 179//153 178//153 200//153 218//153
f 178//151 159//151 191//151 200//151
f 168//153 176//153 216//153 211//153
f 166//151 185//151 212//151 199//151
f 177//153 180//153 219//153 217//153
f 156//152 160//152 201//152 194//152
f 175//151 173//151 208//151 210//151
f 232//154 225//154 226//154 231//154
f 236//154 230//154 227//154 228//154
f 222//154 229//154 234//154 221//154
f 223//154 224//154 233//154 235//154
f 193//155 194//155 226//155 225//155
f 195//152 196//152 228//152 227//152
f 192//155 204//155 233//155 224//155
f 190//151 197//151 229//151 222//151
f 205//152 234//152 242//152 238//152
f 196//153 211//153 236//153 228//153
f 191//152 223//152 243//152 239//152
f 199//156 195//156 306//156 305//156
f 199//155 230//155 247//155 245//155
f 189//153 190//153 222//153 221//153
f 205//152 189//152 250//152 249//152
f 194//152 201//152 231//152 226//152
f 257//152 258//152 266//152 265//152
f 244//152 240//152 274//152 276//152
f 229//152 197//152 237//152 241//152
f 206//152 191//152 239//152 240//152
f 235//152 206//152 240//152 244//152
f 234//152 229//152 241//152 242//152
f 197//152 205//152 238//152 237//152
f 223//152 235//152 244//152 243//152
f 248//152 246//152 254//152 256//152
f 211//156 199//156 245//156 246//156
f 236//153 211//153 246//153 248//153
f 230//154 236//154 248//154 247//154
f 250//153 252//153 260//153 258//153
f 254//151 253//151 255//151 256//151
f 234//152 205//152 249//152 251//152
f 246//152 245//152 253//152 254//152
f 221//152 234//152 251//152 252//152
f 189//152 221//152 252//152 250//152
f 245//152 247//152 255//152 253//152
f 247//152 248//152 256//152 255//152
f 259//152 257//152 265//152 267//152
f 252//154 251//154 259//154 260//154
f 251//155 249//155 257//155 259//155
f 249//156 250//156 258//156 257//156
f 262//152 264//152 272//152 270//152
f 265//152 266//152 268//152 267//152
f 238//152 242//152 264//152 262//152
f 258//152 260//152 268//152 266//152
f 260//152 259//152 267//152 268//152
f 241//152 237//152 261//152 263//152
f 242//152 241//152 263//152 264//152
f 237//152 238//152 262//152 261//152
f 269//155 270//155 272//155 271//155
f 264//154 263//154 271//154 272//154
f 263//151 261//151 269//151 271//151
f 261//156 262//156 270//156 269//156
f 274//153 273//153 275//153 276//153
f 243//154 244//154 276//154 275//154
f 240//156 239//156 273//156 274//156
f 239//151 243//151 275//151 273//151
f 277//152 278//152 280//152 279//152
f 204//156 206//156 278//156 277//156
f 235//154 233//154 279//154 280//154
f 233//155 204//155 277//155 279//155
f 202//152 232//152 287//152 285//152
f 225//154 232//154 284//154 283//154
f 193//155 225//155 283//155 281//155
f 202//156 193//156 281//156 282//156
f 289//152 291//152 299//152 297//152
f 287//152 288//152 296//152 295//152
f 283//152 284//152 292//152 291//152
f 201//152 202//152 285//152 286//152
f 231//152 201//152 286//152 288//152
f 232//152 231//152 288//152 287//152
f 281//152 283//152 291//152 289//152
f 282//152 281//152 289//152 290//152
f 296//152 294//152 302//152 304//152
f 298//151 297//151 299//151 300//151
f 290//152 289//152 297//152 298//152
f 285//152 287//152 295//152 293//152
f 286//152 285//152 293//152 294//152
f 292//152 290//152 298//152 300//152
f 291//152 292//152 300//152 299//152
f 288//152 286//152 294//152 296//152
f 302//153 301//153 303//153 304//153
f 295//154 296//154 304//154 303//154
f 293//151 295//151 303//151 301//151
f 294//156 293//156 301//156 302//156
f 305//155 306//155 308//155 307//155
f 230//151 199//151 305//151 307//151
f 227//154 230//154 307//154 308//154
f 195//152 227//152 308//152 306//152
