# Blender v2.75 (sub 0) OBJ File: 'top_light.blend'
# www.blender.org
mtllib top_light.mtl
o Icosphere
v 0.840223 0.603023 2.585985
v -2.199775 0.603022 1.598212
v -2.199775 0.603022 -1.598212
v 0.840223 0.603023 -2.585985
v 2.719067 0.603019 0.000000
v 0.000000 1.141004 0.000000
v 2.891228 0.167776 0.939402
v 2.891228 0.167776 -0.939402
v 0.000000 0.167776 3.040013
v 1.786876 0.167776 2.459421
v -2.891228 0.167776 0.939402
v -1.786876 0.167776 2.459421
v -1.786876 0.167776 -2.459421
v -2.891228 0.167776 -0.939402
v 1.786876 0.167776 -2.459421
v 0.000000 0.167776 -3.040013
v 2.092105 0.679437 1.519997
v -0.799125 0.679438 2.459406
v -2.585980 0.679437 0.000000
v -0.799125 0.679438 -2.459406
v 2.092105 0.679437 -1.519997
v 0.493867 0.995656 1.519992
v 1.598225 0.995654 0.000000
v -1.292986 0.995656 0.939399
v -1.292986 0.995656 -0.939399
v 0.493867 0.995656 -1.519992
v 0.000000 -0.041708 -5.114291
v -1.749191 -0.041708 -4.805862
v -3.287403 -0.041708 -3.917774
v -4.429106 -0.041708 -2.557146
v -5.036594 -0.041708 -0.888087
v -5.036593 -0.041708 0.888088
v -4.429106 -0.041708 2.557146
v -3.287403 -0.041708 3.917774
v -1.749191 -0.041708 4.805862
v -0.000001 -0.041708 5.114291
v 1.749190 -0.041708 4.805862
v 3.287402 -0.041708 3.917775
v 4.429105 -0.041708 2.557147
v 5.036593 -0.041708 0.888090
v 5.036594 -0.041708 -0.888085
v 4.429108 -0.041708 -2.557143
v 3.287406 -0.041708 -3.917772
v 1.749194 -0.041708 -4.805861
v 0.000000 0.324533 3.618944
v 1.237752 0.324533 3.400695
v 2.326212 0.324533 2.772272
v 3.134097 0.324533 1.809472
v 3.563964 0.324533 0.628423
v 3.563964 0.324533 -0.628423
v 3.134097 0.324533 -1.809472
v 2.326212 0.324533 -2.772272
v 1.237752 0.324533 -3.400695
v 0.000001 0.324533 -3.618944
v -1.237751 0.324533 -3.400695
v -2.326211 0.324533 -2.772272
v -3.134097 0.324533 -1.809473
v -3.563963 0.324533 -0.628424
v -3.563964 0.324533 0.628421
v -3.134098 0.324533 1.809470
v -2.326214 0.324533 2.772270
v -1.237754 0.324533 3.400694
v 0.951595 0.324533 2.614487
v 0.000000 0.324533 2.782279
v 1.788414 0.324533 2.131349
v 2.409524 0.324533 1.391139
v 2.740010 0.324533 0.483137
v 2.740010 0.324533 -0.483138
v 2.409524 0.324533 -1.391139
v 1.788414 0.324533 -2.131349
v 0.951596 0.324533 -2.614487
v 0.000001 0.324533 -2.782279
v -0.951595 0.324533 -2.614487
v -1.788414 0.324533 -2.131350
v -2.409524 0.324533 -1.391140
v -2.740010 0.324533 -0.483139
v -2.740010 0.324533 0.483136
v -2.409525 0.324533 1.391138
v -1.788416 0.324533 2.131348
v -0.951597 0.324533 2.614486
v -1.537676 0.000000 -4.224730
v -0.000000 0.000000 -4.495864
v -2.889886 0.000000 -3.444032
v -3.893533 0.000000 -2.247932
v -4.427562 0.000000 -0.780698
v -4.427562 0.000000 0.780699
v -3.893533 0.000000 2.247933
v -2.889886 0.000000 3.444032
v -1.537676 0.000000 4.224730
v -0.000001 0.000000 4.495864
v 1.537675 0.000000 4.224730
v 2.889885 0.000000 3.444032
v 3.893532 0.000000 2.247933
v 4.427562 0.000000 0.780701
v 4.427563 0.000000 -0.780697
v 3.893534 0.000000 -2.247930
v 2.889888 0.000000 -3.444030
v 1.537679 0.000000 -4.224730
v -1.537676 0.253819 -4.224730
v -0.000000 0.253819 -4.495864
v -2.889886 0.253819 -3.444032
v -3.893533 0.253819 -2.247932
v -4.427562 0.253819 -0.780698
v -4.427562 0.253819 0.780699
v -3.893533 0.253819 2.247933
v -2.889886 0.253819 3.444032
v -1.537676 0.253819 4.224730
v -0.000001 0.253819 4.495864
v 1.537675 0.253819 4.224730
v 2.889885 0.253819 3.444032
v 3.893532 0.253819 2.247933
v 4.427562 0.253819 0.780701
v 4.427563 0.253819 -0.780697
v 3.893534 0.253819 -2.247930
v 2.889888 0.253819 -3.444030
v 1.537679 0.253819 -4.224730
v -1.749191 0.253819 -4.805862
v 0.000000 0.253819 -5.114291
v -3.287403 0.253819 -3.917774
v -4.429106 0.253819 -2.557146
v -5.036594 0.253819 -0.888087
v -5.036593 0.253819 0.888088
v -4.429106 0.253819 2.557146
v -3.287403 0.253819 3.917774
v -1.749191 0.253819 4.805862
v -0.000001 0.253819 5.114291
v 1.749190 0.253819 4.805862
v 3.287402 0.253819 3.917775
v 4.429105 0.253819 2.557147
v 5.036593 0.253819 0.888090
v 5.036594 0.253819 -0.888085
v 4.429108 0.253819 -2.557143
v 3.287406 0.253819 -3.917772
v 1.749194 0.253819 -4.805861
vn 0.186000 0.940100 0.285800
vn -0.214400 0.940100 0.265200
vn -0.318500 0.940100 -0.121900
vn 0.017500 0.940100 -0.340600
vn 0.329300 0.940100 -0.088600
vn 0.090400 0.993700 -0.065700
vn 0.192200 0.971400 -0.139600
vn 0.186000 0.940100 -0.285800
vn -0.034500 0.993700 -0.106200
vn -0.073400 0.971400 -0.225900
vn -0.214400 0.940100 -0.265200
vn -0.111700 0.993700 0.000000
vn -0.237600 0.971400 0.000000
vn -0.318500 0.940100 0.121900
vn -0.034500 0.993700 0.106200
vn -0.073400 0.971400 0.225900
vn 0.017500 0.940100 0.340600
vn 0.090400 0.993700 0.065700
vn 0.192200 0.971400 0.139600
vn 0.329300 0.940100 0.088600
vn 0.636200 0.737900 -0.225300
vn 0.694800 0.512300 -0.504800
vn 0.410900 0.737900 -0.535400
vn -0.017700 0.737900 -0.674700
vn -0.265400 0.512300 -0.816800
vn -0.382200 0.737900 -0.556200
vn -0.647100 0.737900 -0.191700
vn -0.858800 0.512300 0.000000
vn -0.647100 0.737900 0.191700
vn -0.382200 0.737900 0.556200
vn -0.265400 0.512300 0.816800
vn -0.017700 0.737900 0.674700
vn 0.410900 0.737900 0.535400
vn 0.694800 0.512300 0.504800
vn 0.636200 0.737900 0.225300
vn 0.287400 0.367800 -0.884400
vn -0.752300 0.367800 -0.546600
vn -0.752300 0.367800 0.546600
vn 0.287400 0.367800 0.884400
vn 0.929900 0.367800 0.000000
vn 0.000000 1.000000 0.000000
vn 0.766000 0.000000 0.642800
vn -0.766000 0.000000 0.642800
vn 0.500000 0.000000 0.866000
vn -0.939700 0.000000 0.342000
vn 0.173600 0.000000 0.984800
vn -1.000000 0.000000 -0.000000
vn -0.173600 0.000000 0.984800
vn -0.500000 0.000000 0.866000
vn -0.939700 0.000000 -0.342000
vn -0.766000 0.000000 -0.642800
vn -0.500000 0.000000 -0.866000
vn -0.173600 0.000000 -0.984800
vn 0.173600 0.000000 -0.984800
vn 0.061100 0.936100 0.346400
vn 0.175900 0.936100 0.304600
vn 0.269500 0.936100 0.226100
vn 0.330600 0.936100 0.120300
vn 0.351800 0.936100 0.000000
vn 0.330600 0.936100 -0.120300
vn 0.269500 0.936100 -0.226100
vn 0.175900 0.936100 -0.304600
vn 0.061100 0.936100 -0.346400
vn -0.061100 0.936100 -0.346400
vn -0.175900 0.936100 -0.304600
vn -0.269500 0.936100 -0.226100
vn -0.330600 0.936100 -0.120300
vn -0.351800 0.936100 -0.000000
vn -0.330600 0.936100 0.120300
vn -0.269500 0.936100 0.226100
vn -0.175900 0.936100 0.304600
vn -0.061100 0.936100 0.346400
vn 0.939700 0.000000 0.342000
vn 1.000000 0.000000 -0.000000
vn 0.939700 0.000000 -0.342000
vn 0.766000 0.000000 -0.642800
vn 0.500000 0.000000 -0.866000
vn 0.000000 -1.000000 -0.000000
usemtl None
s off
f 1//1 17//1 22//1
f 2//2 18//2 24//2
f 3//3 19//3 25//3
f 4//4 20//4 26//4
f 5//5 21//5 23//5
f 23//6 26//6 6//6
f 23//7 21//7 26//7
f 21//8 4//8 26//8
f 26//9 25//9 6//9
f 26//10 20//10 25//10
f 20//11 3//11 25//11
f 25//12 24//12 6//12
f 25//13 19//13 24//13
f 19//14 2//14 24//14
f 24//15 22//15 6//15
f 24//16 18//16 22//16
f 18//17 1//17 22//17
f 22//18 23//18 6//18
f 22//19 17//19 23//19
f 17//20 5//20 23//20
f 8//21 21//21 5//21
f 8//22 15//22 21//22
f 15//23 4//23 21//23
f 16//24 20//24 4//24
f 16//25 13//25 20//25
f 13//26 3//26 20//26
f 14//27 19//27 3//27
f 14//28 11//28 19//28
f 11//29 2//29 19//29
f 12//30 18//30 2//30
f 12//31 9//31 18//31
f 9//32 1//32 18//32
f 10//33 17//33 1//33
f 10//34 7//34 17//34
f 7//35 5//35 17//35
f 15//36 16//36 4//36
f 13//37 14//37 3//37
f 11//38 12//38 2//38
f 9//39 10//39 1//39
f 7//40 8//40 5//40
f 63//41 64//41 45//41 46//41
f 65//41 63//41 46//41 47//41
f 66//41 65//41 47//41 48//41
f 67//41 66//41 48//41 49//41
f 68//41 67//41 49//41 50//41
f 69//41 68//41 50//41 51//41
f 70//41 69//41 51//41 52//41
f 71//41 70//41 52//41 53//41
f 72//41 71//41 53//41 54//41
f 73//41 72//41 54//41 55//41
f 74//41 73//41 55//41 56//41
f 75//41 74//41 56//41 57//41
f 76//41 75//41 57//41 58//41
f 77//41 76//41 58//41 59//41
f 78//41 77//41 59//41 60//41
f 79//41 78//41 60//41 61//41
f 80//41 79//41 61//41 62//41
f 64//41 80//41 62//41 45//41
f 84//42 83//42 101//42 102//42
f 97//43 96//43 114//43 115//43
f 37//44 38//44 128//44 127//44
f 83//44 81//44 99//44 101//44
f 96//45 95//45 113//45 114//45
f 36//46 37//46 127//46 126//46
f 81//46 82//46 100//46 99//46
f 95//47 94//47 112//47 113//47
f 35//48 36//48 126//48 125//48
f 34//49 35//49 125//49 124//49
f 94//50 93//50 111//50 112//50
f 93//51 92//51 110//51 111//51
f 33//43 34//43 124//43 123//43
f 92//52 91//52 109//52 110//52
f 32//45 33//45 123//45 122//45
f 91//53 90//53 108//53 109//53
f 31//47 32//47 122//47 121//47
f 44//54 27//54 118//54 134//54
f 90//55 91//55 46//55 45//55
f 91//56 92//56 47//56 46//56
f 92//57 93//57 48//57 47//57
f 93//58 94//58 49//58 48//58
f 94//59 95//59 50//59 49//59
f 95//60 96//60 51//60 50//60
f 96//61 97//61 52//61 51//61
f 97//62 98//62 53//62 52//62
f 98//63 82//63 54//63 53//63
f 82//64 81//64 55//64 54//64
f 81//65 83//65 56//65 55//65
f 83//66 84//66 57//66 56//66
f 84//67 85//67 58//67 57//67
f 85//68 86//68 59//68 58//68
f 86//69 87//69 60//69 59//69
f 87//70 88//70 61//70 60//70
f 88//71 89//71 62//71 61//71
f 89//72 90//72 45//72 62//72
f 99//41 100//41 118//41 117//41
f 101//41 99//41 117//41 119//41
f 102//41 101//41 119//41 120//41
f 103//41 102//41 120//41 121//41
f 104//41 103//41 121//41 122//41
f 105//41 104//41 122//41 123//41
f 106//41 105//41 123//41 124//41
f 107//41 106//41 124//41 125//41
f 108//41 107//41 125//41 126//41
f 109//41 108//41 126//41 127//41
f 110//41 109//41 127//41 128//41
f 111//41 110//41 128//41 129//41
f 112//41 111//41 129//41 130//41
f 113//41 112//41 130//41 131//41
f 114//41 113//41 131//41 132//41
f 115//41 114//41 132//41 133//41
f 116//41 115//41 133//41 134//41
f 100//41 116//41 134//41 118//41
f 38//42 39//42 129//42 128//42
f 98//49 97//49 115//49 116//49
f 85//73 84//73 102//73 103//73
f 39//73 40//73 130//73 129//73
f 82//48 98//48 116//48 100//48
f 86//74 85//74 103//74 104//74
f 40//74 41//74 131//74 130//74
f 27//53 28//53 117//53 118//53
f 87//75 86//75 104//75 105//75
f 41//75 42//75 132//75 131//75
f 28//52 29//52 119//52 117//52
f 88//76 87//76 105//76 106//76
f 42//76 43//76 133//76 132//76
f 29//51 30//51 120//51 119//51
f 89//77 88//77 106//77 107//77
f 43//77 44//77 134//77 133//77
f 30//50 31//50 121//50 120//50
f 90//54 89//54 107//54 108//54
f 28//78 27//78 44//78 43//78 42//78 41//78 40//78 39//78 38//78 37//78 36//78 35//78 34//78 33//78 32//78 31//78 30//78 29//78
