# Blender v2.75 (sub 0) OBJ File: 'totem2.blend'
# www.blender.org
mtllib totem2.mtl
o Cylinder
v 0.000000 0.956328 -1.000000
v 0.000000 2.956328 -1.000000
v 0.587785 0.956328 -0.809017
v 0.587785 2.956328 -0.809017
v 0.951057 0.956328 -0.309017
v 0.951057 2.956328 -0.309017
v 0.951056 0.956328 0.309017
v 0.951056 2.956328 0.309017
v 0.587785 0.956328 0.809017
v 0.587785 2.956328 0.809017
v -0.000000 0.956328 1.000000
v -0.000000 2.956328 1.000000
v -0.587785 0.956328 0.809017
v -0.587785 2.956328 0.809017
v -0.951056 0.956328 0.309017
v -0.951056 2.956328 0.309017
v -0.951056 1.026297 -0.309017
v -0.951056 3.026297 -0.309017
v -0.587785 1.026297 -0.809017
v -0.587785 3.026297 -0.809017
v 0.000000 0.709030 -0.808312
v 0.475114 0.709030 -0.653938
v 0.768750 0.709030 -0.249782
v 0.768750 0.709030 0.249782
v 0.475114 0.709030 0.653938
v -0.000000 0.709030 0.808312
v -0.475114 0.709030 0.653938
v -0.768750 0.709030 0.249782
v -0.768750 0.709030 -0.249782
v -0.475113 0.709030 -0.653938
v 0.000000 0.506919 -0.261199
v 0.153529 0.506919 -0.211315
v 0.248415 0.506919 -0.080715
v 0.248415 0.506919 0.080715
v 0.153529 0.506919 0.211315
v -0.000000 0.506919 0.261199
v -0.153529 0.506919 0.211315
v -0.248415 0.506919 0.080715
v -0.248415 0.506919 -0.080715
v -0.153529 0.506919 -0.211315
v 0.000000 0.293359 -0.261199
v 0.153529 0.293359 -0.211315
v 0.248415 0.293359 -0.080715
v 0.248415 0.293359 0.080715
v 0.153529 0.293359 0.211315
v 0.000000 0.293359 0.261199
v -0.153529 0.293359 0.211315
v -0.248415 0.293359 0.080715
v -0.248415 0.293359 -0.080715
v -0.153529 0.293359 -0.211315
v 0.000000 0.293359 -0.261199
v 0.153529 0.293359 -0.211315
v 0.248415 0.293359 -0.080715
v 0.248415 0.293359 0.080715
v 0.153529 0.293359 0.211315
v 0.000000 0.293359 0.261199
v -0.153529 0.293359 0.211315
v -0.248415 0.293359 0.080715
v -0.248415 0.293359 -0.080715
v -0.153529 0.293359 -0.211315
v 0.000000 0.293359 -0.261199
v 0.153529 0.293359 -0.211315
v 0.248415 0.293359 -0.080715
v 0.248415 0.293359 0.080715
v 0.153529 0.293359 0.211315
v 0.000000 0.293359 0.261199
v -0.153529 0.293359 0.211315
v -0.248415 0.293359 0.080715
v -0.248415 0.293359 -0.080715
v -0.153529 0.293359 -0.211315
v -0.000000 0.199041 -0.602993
v 0.354430 0.199041 -0.487832
v 0.573480 0.199041 -0.186335
v 0.573480 0.199041 0.186335
v 0.354430 0.199041 0.487832
v -0.000000 0.199041 0.602993
v -0.354430 0.199041 0.487832
v -0.573480 0.199041 0.186335
v -0.573480 0.199041 -0.186335
v -0.354430 0.199041 -0.487832
v 0.000000 0.097313 -0.743045
v 0.436751 0.097313 -0.601136
v 0.706678 0.097313 -0.229613
v 0.706678 0.097313 0.229613
v 0.436751 0.097313 0.601136
v -0.000000 0.097313 0.743045
v -0.436751 0.097313 0.601136
v -0.706677 0.097313 0.229614
v -0.706677 0.097313 -0.229614
v -0.436751 0.097313 -0.601136
v -0.000000 -0.003619 -1.054138
v 0.619607 -0.003619 -0.852816
v 1.002545 -0.003619 -0.325747
v 1.002545 -0.003619 0.325747
v 0.619607 -0.003619 0.852816
v -0.000000 -0.003619 1.054138
v -0.619607 -0.003619 0.852816
v -1.002545 -0.003619 0.325747
v -1.002545 -0.003619 -0.325747
v -0.619607 -0.003619 -0.852816
v 0.706941 3.337428 -0.973021
v 0.000000 3.337428 -1.202720
v 1.143855 3.337428 -0.371661
v 1.143855 3.337428 0.371661
v 0.706941 3.337428 0.973021
v -0.000000 3.337428 1.202720
v -0.706941 3.337428 0.973021
v -1.143855 3.337428 0.371661
v -1.143855 3.337428 -0.371661
v -0.706941 3.337428 -0.973021
v 0.706941 3.469819 -0.973021
v 0.000000 3.469819 -1.202720
v 1.143855 3.469819 -0.371661
v 1.143855 3.469819 0.371661
v 0.706941 3.469819 0.973021
v -0.000000 3.469819 1.202720
v -0.706941 3.469819 0.973021
v -1.143855 3.469819 0.371661
v -1.143855 3.469819 -0.371661
v -0.706941 3.469819 -0.973021
v 1.176757 3.600452 -1.619667
v 0.000000 3.600452 -2.002018
v 1.904032 3.600452 -0.618658
v 1.904032 3.600452 0.618658
v 1.176757 3.600452 1.619667
v -0.000000 3.600452 2.002018
v -1.176757 3.600452 1.619667
v -1.904032 3.600452 0.618658
v -1.904032 3.600452 -0.618658
v -1.176756 3.600452 -1.619667
v 0.305282 4.127667 -0.420185
v 0.000000 4.127667 -0.519377
v 0.493957 4.127667 -0.160496
v 0.493957 4.127667 0.160496
v 0.305282 4.127667 0.420185
v -0.000000 4.127667 0.519377
v -0.305282 4.127667 0.420185
v -0.493957 4.127667 0.160496
v -0.493957 4.127667 -0.160497
v -0.305282 4.127667 -0.420185
v 0.000000 4.262706 -0.000000
v 1.752125 3.574347 -0.569300
v -0.000000 3.574347 1.842293
v -1.752125 3.574347 -0.569300
v 1.082873 3.574347 -1.490447
v 0.000000 3.574347 -1.842293
v 1.082873 3.574347 1.490447
v 1.752125 3.574347 0.569300
v -1.752125 3.574347 0.569300
v -1.082873 3.574347 1.490447
v -1.082872 3.574347 -1.490447
v 1.176757 3.600452 -1.619667
v 0.000000 3.600452 -2.002018
v 1.904032 3.600452 -0.618658
v 1.904032 3.600452 0.618658
v 1.176757 3.600452 1.619667
v -0.000000 3.600452 2.002018
v -1.176757 3.600452 1.619667
v -1.904032 3.600452 0.618658
v -1.904032 3.600452 -0.618658
v -1.176756 3.600452 -1.619667
v -1.082873 3.574347 1.490447
v 1.752125 3.574347 0.569300
v 0.000000 3.574347 -1.842293
v -1.752125 3.574347 0.569300
v 1.082873 3.574347 1.490447
v 1.082873 3.574347 -1.490447
v -1.752125 3.574347 -0.569300
v -0.000000 3.574347 1.842293
v 1.752125 3.574347 -0.569300
v -1.082872 3.574347 -1.490447
v -0.787524 3.082731 -0.190203
v -0.787524 3.082731 0.427831
v 0.163533 3.082731 -0.881186
v -0.424252 3.082731 -0.690204
v -0.980322 3.463830 -0.252847
v -0.980322 3.463830 0.490475
v 0.163533 3.463830 -1.083906
v -0.543408 3.463830 -0.854208
v -0.424252 3.082731 -0.690204
v 0.163533 3.082731 -0.881186
v -0.787524 3.082731 0.427831
v -0.787524 3.082731 -0.190203
v -0.698426 2.780064 -0.656732
v -0.843909 2.782642 -0.456493
v -0.980322 3.463830 -0.252847
v -0.980322 3.463830 0.490475
v 0.163533 3.463830 -1.083906
v -0.543408 3.463830 -0.854208
v -1.088495 2.842555 -0.816263
v -1.114298 2.842555 -0.780749
v -1.096354 2.825066 -0.805446
v -1.106687 2.825249 -0.791224
v 1.354497 3.285581 1.337905
v 1.690986 3.285581 0.874768
v 1.767362 3.298706 0.899585
v 1.401700 3.298706 1.402875
v 1.537329 2.963664 1.274712
v 1.517959 2.958278 1.248051
v 1.656041 2.958278 1.057996
v 1.687384 2.963664 1.068180
v 1.620695 2.641671 1.237013
v 1.613389 2.639639 1.226957
v 1.665470 2.639639 1.155274
v 1.677291 2.641671 1.159115
vn 0.309000 0.000000 -0.951100
vn 0.809000 0.000000 -0.587800
vn 1.000000 0.000000 0.000000
vn 0.809000 0.000000 0.587800
vn 0.309000 0.000000 0.951100
vn -0.309000 0.000000 0.951100
vn -0.809000 0.000000 0.587800
vn -1.000000 0.000000 0.000000
vn 0.275700 -0.451400 -0.848600
vn -0.309000 0.000000 -0.951100
vn -0.809000 -0.000000 -0.587800
vn -0.701500 -0.498200 -0.509600
vn -0.111900 -0.932200 0.344300
vn -0.861000 -0.505400 -0.057200
vn -0.651200 -0.593400 0.473100
vn -0.248700 -0.593400 0.765500
vn 0.248700 -0.593400 0.765500
vn 0.651200 -0.593400 0.473100
vn 0.248700 -0.593400 -0.765500
vn 0.804900 -0.593400 0.000000
vn 0.651200 -0.593400 -0.473100
vn -0.248700 -0.593400 -0.765500
vn 0.362100 -0.932200 0.000000
vn -0.111900 -0.932200 -0.344300
vn -0.292900 -0.932200 0.212800
vn 0.292900 -0.932200 0.212800
vn 0.111900 -0.932200 -0.344300
vn -0.362100 -0.932200 0.000000
vn 0.111900 -0.932200 0.344300
vn 0.292900 -0.932200 -0.212800
vn -0.292900 -0.932200 -0.212800
vn 0.000000 0.000000 1.000000
vn 0.086100 0.960400 -0.265000
vn -0.607000 0.794700 0.000000
vn -0.278700 0.960400 0.000000
vn 0.086100 0.960400 0.265000
vn 0.225400 0.960400 -0.163800
vn -0.225400 0.960400 -0.163800
vn -0.086100 0.960400 0.265000
vn 0.278700 0.960400 0.000000
vn -0.086100 0.960400 -0.265000
vn -0.225400 0.960400 0.163800
vn 0.225400 0.960400 0.163800
vn 0.099800 0.946400 0.307100
vn 0.187600 0.794700 0.577300
vn 0.491000 0.794700 -0.356800
vn -0.491000 0.794700 -0.356800
vn -0.187600 0.794700 0.577300
vn 0.607000 0.794700 0.000000
vn -0.187600 0.794700 -0.577300
vn -0.491000 0.794700 0.356800
vn 0.491000 0.794700 0.356800
vn 0.187600 0.794700 -0.577300
vn 0.000000 -1.000000 0.000000
vn 0.261200 0.946400 -0.189800
vn -0.261200 0.946400 -0.189800
vn -0.099800 0.946400 0.307100
vn 0.322900 0.946400 0.000000
vn -0.099800 0.946400 -0.307100
vn -0.261200 0.946400 0.189800
vn 0.261200 0.946400 0.189800
vn 0.099800 0.946400 -0.307100
vn -0.322900 0.946400 0.000000
vn 0.892300 -0.451400 0.000000
vn 0.721900 -0.451400 -0.524500
vn -0.708700 0.331300 0.622900
vn -0.687700 -0.526700 -0.499600
vn 0.651700 -0.143000 -0.744800
vn -0.721900 -0.451400 0.524500
vn -0.275700 -0.451400 0.848600
vn 0.275700 -0.451400 0.848600
vn 0.721900 -0.451400 0.524500
vn 0.350200 0.936700 0.000000
vn -0.052300 -0.985600 0.161100
vn -0.108200 0.936700 -0.333100
vn -0.283300 0.936700 0.205900
vn 0.283300 0.936700 0.205900
vn 0.108200 0.936700 -0.333100
vn -0.350200 0.936700 0.000000
vn 0.108200 0.936700 0.333100
vn 0.283300 0.936700 -0.205900
vn -0.283300 0.936700 -0.205900
vn -0.108200 0.936700 0.333100
vn -0.137000 -0.985600 -0.099600
vn 0.052300 -0.985600 0.161100
vn -0.169400 -0.985600 0.000000
vn 0.052300 -0.985600 -0.161100
vn 0.796100 0.177900 0.578400
vn -0.137000 -0.985600 0.099500
vn 0.137000 -0.985600 0.099600
vn 0.137000 -0.985600 -0.099500
vn -0.137000 -0.985600 -0.099500
vn 0.169400 -0.985600 0.000000
vn -0.052300 -0.985600 -0.161100
vn -0.213300 0.964600 0.155000
vn 0.213300 0.964600 0.155000
vn 0.081500 0.964600 -0.250800
vn -0.263700 0.964600 0.000000
vn 0.081500 0.964600 0.250800
vn 0.213300 0.964600 -0.155000
vn -0.213300 0.964600 -0.155000
vn -0.081500 0.964600 0.250800
vn 0.263700 0.964600 0.000000
vn -0.081500 0.964600 -0.250800
vn -0.549100 -0.142400 0.823500
vn -0.022300 0.914600 -0.403700
vn -0.611600 0.791200 0.000000
vn 0.189000 -0.791200 0.581600
vn 0.611600 -0.791200 0.000000
vn 0.373400 0.331300 -0.866500
vn -0.275700 -0.451400 -0.848600
vn -0.331300 0.912300 -0.240700
vn -0.892300 -0.451400 0.000000
vn -0.092200 -0.994300 -0.054200
vn -0.677300 -0.575400 0.458500
vn 0.225500 -0.583700 -0.780000
vn 0.344500 -0.486300 -0.803000
vn 0.323400 -0.719100 -0.615100
vn -0.485000 -0.719100 0.497700
vn -0.737600 -0.410700 -0.535900
vn 0.801100 0.139300 0.582100
vn -0.657300 -0.486300 0.575800
vn 0.804800 0.102100 0.584700
vn -0.786200 -0.235800 -0.571200
vn -0.792800 -0.199300 -0.576000
vn 0.338900 -0.265500 -0.902600
vn -0.753700 -0.265500 0.601200
vn -0.804900 -0.593400 0.000000
vn -0.320500 -0.505400 -0.801200
vn 0.613500 -0.142500 -0.776700
vn -0.283300 0.936700 0.205800
vn 0.283300 0.936700 0.205800
vn 0.283300 0.936700 -0.205800
vn -0.137000 -0.985600 0.099600
vn 0.137000 -0.985600 0.099500
vn -0.507000 -0.143000 0.850000
vn -0.189000 0.791200 -0.581600
vn -0.390900 0.914600 0.103500
g Cylinder_Cylinder_None
usemtl None
s off
f 2//1 4//1 3//1
f 4//2 6//2 5//2
f 6//3 8//3 7//3
f 8//4 10//4 9//4
f 10//5 12//5 11//5
f 12//6 14//6 13//6
f 14//7 16//7 15//7
f 16//8 18//8 17//8
f 2//9 102//9 101//9
f 19//10 20//10 2//10
f 17//11 185//11 184//11
f 19//12 30//12 29//12
f 26//13 27//13 37//13
f 15//14 17//14 29//14
f 15//15 28//15 27//15
f 13//16 27//16 26//16
f 11//17 26//17 25//17
f 9//18 25//18 24//18
f 1//19 3//19 22//19
f 5//20 7//20 24//20
f 5//21 23//21 22//21
f 1//22 21//22 30//22
f 34//3 44//3 43//3
f 24//23 34//23 33//23
f 21//24 31//24 40//24
f 28//25 38//25 37//25
f 25//26 35//26 34//26
f 21//27 22//27 32//27
f 28//28 29//28 39//28
f 25//29 26//29 36//29
f 23//30 33//30 32//30
f 30//31 40//31 39//31
f 47//32 48//32 58//32
f 31//10 41//10 50//10
f 37//7 38//7 48//7
f 34//4 35//4 45//4
f 39//8 49//8 48//8
f 36//5 46//5 45//5
f 32//2 33//2 43//2
f 40//11 50//11 49//11
f 37//6 47//6 46//6
f 54//32 55//32 65//32
f 44//32 45//32 55//32
f 41//32 42//32 52//32
f 48//32 49//32 59//32
f 45//32 46//32 56//32
f 42//32 43//32 53//32
f 49//32 50//32 60//32
f 46//32 47//32 57//32
f 43//32 44//32 54//32
f 50//32 41//32 51//32
f 62//33 72//33 71//33
f 51//32 52//32 62//32
f 58//32 59//32 69//32
f 55//32 56//32 66//32
f 52//32 53//32 63//32
f 59//32 60//32 70//32
f 56//32 57//32 67//32
f 53//32 54//32 64//32
f 60//32 51//32 61//32
f 57//32 58//32 68//32
f 78//34 79//34 89//34
f 69//35 79//35 78//35
f 66//36 76//36 75//36
f 62//37 63//37 73//37
f 70//38 80//38 79//38
f 67//39 77//39 76//39
f 63//40 64//40 74//40
f 61//41 71//41 80//41
f 67//42 68//42 78//42
f 65//43 75//43 74//43
f 86//44 96//44 95//44
f 76//45 86//45 85//45
f 73//46 83//46 82//46
f 80//47 90//47 89//47
f 77//48 87//48 86//48
f 73//49 74//49 84//49
f 71//50 81//50 90//50
f 77//51 78//51 88//51
f 75//52 85//52 84//52
f 72//53 82//53 81//53
f 99//54 93//54 97//54
f 82//55 83//55 93//55
f 90//56 100//56 99//56
f 87//57 97//57 96//57
f 84//58 94//58 93//58
f 90//59 81//59 91//59
f 87//60 88//60 98//60
f 85//61 95//61 94//61
f 82//62 92//62 91//62
f 89//63 99//63 98//63
f 103//3 113//3 114//3
f 6//64 103//64 104//64
f 4//65 101//65 103//65
f 102//66 2//66 174//66
f 18//67 109//67 110//67
f 20//68 110//68 179//68
f 16//69 14//69 107//69
f 12//70 106//70 107//70
f 10//71 105//71 106//71
f 10//72 8//72 104//72
f 123//32 124//32 155//32
f 110//10 120//10 112//10
f 107//7 117//7 118//7
f 104//4 114//4 115//4
f 102//1 112//1 111//1
f 108//8 118//8 119//8
f 105//5 115//5 116//5
f 101//2 111//2 113//2
f 109//11 119//11 120//11
f 106//6 116//6 117//6
f 124//73 123//73 133//73
f 130//32 122//32 153//32
f 149//32 150//32 162//32
f 150//32 143//32 169//32
f 121//32 123//32 154//32
f 129//32 130//32 161//32
f 151//32 144//32 168//32
f 122//32 121//32 152//32
f 128//32 129//32 160//32
f 142//32 145//32 167//32
f 169//74 157//74 158//74
f 122//75 130//75 140//75
f 127//76 137//76 138//76
f 124//77 134//77 135//77
f 122//78 132//78 131//78
f 128//79 138//79 139//79
f 125//80 135//80 136//80
f 121//81 131//81 133//81
f 129//82 139//82 140//82
f 126//83 136//83 137//83
f 168//84 160//84 161//84
f 169//85 166//85 156//85
f 165//86 159//86 160//86
f 164//87 153//87 152//87
f 156//88 197//88 196//88
f 117//89 150//89 149//89
f 115//90 114//90 148//90
f 112//87 146//87 145//87
f 118//86 149//86 144//86
f 115//85 147//85 143//85
f 111//91 145//91 142//91
f 119//92 144//92 151//92
f 117//74 116//74 143//74
f 114//93 113//93 142//93
f 120//94 151//94 146//94
f 138//95 137//95 141//95
f 135//96 134//96 141//96
f 131//97 132//97 141//97
f 139//98 138//98 141//98
f 136//99 135//99 141//99
f 133//100 131//100 141//100
f 140//101 139//101 141//101
f 137//102 136//102 141//102
f 134//103 133//103 141//103
f 132//104 140//104 141//104
f 170//93 154//93 155//93
f 164//94 171//94 161//94
f 148//32 142//32 170//32
f 147//32 148//32 163//32
f 124//32 125//32 156//32
f 145//32 146//32 164//32
f 125//32 126//32 157//32
f 146//32 151//32 171//32
f 144//32 149//32 165//32
f 126//32 127//32 158//32
f 143//32 147//32 166//32
f 127//32 128//32 159//32
f 175//32 179//32 189//32
f 173//32 177//32 187//32
f 18//105 172//105 176//105
f 2//106 20//106 175//106
f 16//107 173//107 172//107
f 102//108 178//108 179//108
f 108//109 109//109 176//109
f 108//110 177//110 173//110
f 181//111 180//111 189//111
f 18//112 20//112 190//112
f 182//113 187//113 186//113
f 179//32 178//32 188//32
f 174//32 175//32 180//32
f 176//32 172//32 183//32
f 178//32 174//32 181//32
f 177//32 176//32 186//32
f 172//32 173//32 182//32
f 190//11 192//11 193//11
f 184//114 185//114 193//114
f 185//115 18//115 191//115
f 184//116 192//116 190//116
f 195//117 196//117 201//117
f 163//118 155//118 196//118
f 166//119 194//119 197//119
f 163//120 195//120 194//120
f 198//121 202//121 205//121
f 194//122 199//122 198//122
f 197//123 198//123 201//123
f 194//124 195//124 200//124
f 204//90 205//90 202//90
f 200//125 204//125 203//125
f 200//126 201//126 205//126
f 199//127 203//127 202//127
f 1//1 2//1 3//1
f 3//2 4//2 5//2
f 5//3 6//3 7//3
f 7//4 8//4 9//4
f 9//5 10//5 11//5
f 11//6 12//6 13//6
f 13//7 14//7 15//7
f 15//8 16//8 17//8
f 4//9 2//9 101//9
f 1//10 19//10 2//10
f 184//11 19//11 17//11
f 17//11 18//11 185//11
f 184//11 20//11 19//11
f 17//12 19//12 29//12
f 36//13 26//13 37//13
f 28//128 15//128 29//128
f 13//15 15//15 27//15
f 11//16 13//16 26//16
f 9//17 11//17 25//17
f 7//18 9//18 24//18
f 21//19 1//19 22//19
f 23//20 5//20 24//20
f 3//21 5//21 22//21
f 19//129 1//129 30//129
f 33//3 34//3 43//3
f 23//23 24//23 33//23
f 30//24 21//24 40//24
f 27//25 28//25 37//25
f 24//26 25//26 34//26
f 31//27 21//27 32//27
f 38//28 28//28 39//28
f 35//29 25//29 36//29
f 22//30 23//30 32//30
f 29//31 30//31 39//31
f 57//32 47//32 58//32
f 40//10 31//10 50//10
f 47//7 37//7 48//7
f 44//4 34//4 45//4
f 38//8 39//8 48//8
f 35//5 36//5 45//5
f 42//2 32//2 43//2
f 39//11 40//11 49//11
f 36//6 37//6 46//6
f 64//32 54//32 65//32
f 54//32 44//32 55//32
f 51//32 41//32 52//32
f 58//32 48//32 59//32
f 55//32 45//32 56//32
f 52//32 42//32 53//32
f 59//32 49//32 60//32
f 56//32 46//32 57//32
f 53//32 43//32 54//32
f 60//32 50//32 51//32
f 61//33 62//33 71//33
f 61//32 51//32 62//32
f 68//32 58//32 69//32
f 65//32 55//32 66//32
f 62//32 52//32 63//32
f 69//32 59//32 70//32
f 66//32 56//32 67//32
f 63//32 53//32 64//32
f 70//32 60//32 61//32
f 67//32 57//32 68//32
f 88//34 78//34 89//34
f 68//35 69//35 78//35
f 65//36 66//36 75//36
f 72//37 62//37 73//37
f 69//38 70//38 79//38
f 66//39 67//39 76//39
f 73//40 63//40 74//40
f 70//41 61//41 80//41
f 77//42 67//42 78//42
f 64//43 65//43 74//43
f 85//44 86//44 95//44
f 75//45 76//45 85//45
f 72//46 73//46 82//46
f 79//47 80//47 89//47
f 76//48 77//48 86//48
f 83//49 73//49 84//49
f 80//50 71//50 90//50
f 87//51 77//51 88//51
f 74//52 75//52 84//52
f 71//53 72//53 81//53
f 99//54 100//54 91//54
f 97//54 98//54 99//54
f 93//54 96//54 97//54
f 93//54 94//54 95//54
f 91//54 92//54 93//54
f 93//54 99//54 91//54
f 93//54 95//54 96//54
f 92//55 82//55 93//55
f 89//56 90//56 99//56
f 86//57 87//57 96//57
f 83//58 84//58 93//58
f 100//59 90//59 91//59
f 97//60 87//60 98//60
f 84//61 85//61 94//61
f 81//62 82//62 91//62
f 88//63 89//63 98//63
f 104//3 103//3 114//3
f 8//64 6//64 104//64
f 6//65 4//65 103//65
f 178//66 102//66 174//66
f 20//67 18//67 110//67
f 175//130 20//130 179//130
f 108//69 16//69 107//69
f 14//70 12//70 107//70
f 12//71 10//71 106//71
f 105//72 10//72 104//72
f 154//32 123//32 155//32
f 102//10 110//10 112//10
f 108//7 107//7 118//7
f 105//4 104//4 115//4
f 101//1 102//1 111//1
f 109//8 108//8 119//8
f 106//5 105//5 116//5
f 103//2 101//2 113//2
f 110//11 109//11 120//11
f 107//6 106//6 117//6
f 134//73 124//73 133//73
f 161//32 130//32 153//32
f 165//32 149//32 162//32
f 162//32 150//32 169//32
f 152//32 121//32 154//32
f 160//32 129//32 161//32
f 171//32 151//32 168//32
f 153//32 122//32 152//32
f 159//32 128//32 160//32
f 170//32 142//32 167//32
f 162//74 169//74 158//74
f 132//75 122//75 140//75
f 128//131 127//131 138//131
f 125//132 124//132 135//132
f 121//78 122//78 131//78
f 129//79 128//79 139//79
f 126//80 125//80 136//80
f 123//133 121//133 133//133
f 130//82 129//82 140//82
f 127//83 126//83 137//83
f 171//92 168//92 161//92
f 157//85 169//85 156//85
f 168//86 165//86 160//86
f 167//87 164//87 152//87
f 155//88 156//88 196//88
f 118//134 117//134 149//134
f 147//135 115//135 148//135
f 111//87 112//87 145//87
f 119//86 118//86 144//86
f 116//85 115//85 143//85
f 113//91 111//91 142//91
f 120//92 119//92 151//92
f 150//74 117//74 143//74
f 148//93 114//93 142//93
f 112//94 120//94 146//94
f 163//93 170//93 155//93
f 153//94 164//94 161//94
f 163//32 148//32 170//32
f 166//32 147//32 163//32
f 155//32 124//32 156//32
f 167//32 145//32 164//32
f 156//32 125//32 157//32
f 164//32 146//32 171//32
f 168//32 144//32 165//32
f 157//32 126//32 158//32
f 169//32 143//32 166//32
f 158//32 127//32 159//32
f 180//32 175//32 189//32
f 182//32 173//32 187//32
f 109//136 18//136 176//136
f 174//137 2//137 175//137
f 18//138 16//138 172//138
f 110//108 102//108 179//108
f 177//109 108//109 176//109
f 16//110 108//110 173//110
f 188//111 181//111 189//111
f 191//112 18//112 190//112
f 183//113 182//113 186//113
f 189//32 179//32 188//32
f 181//32 174//32 180//32
f 186//32 176//32 183//32
f 188//32 178//32 181//32
f 187//32 177//32 186//32
f 183//32 172//32 182//32
f 191//11 190//11 193//11
f 192//114 184//114 193//114
f 193//115 185//115 191//115
f 20//116 184//116 190//116
f 200//117 195//117 201//117
f 195//118 163//118 196//118
f 156//119 166//119 197//119
f 166//120 163//120 194//120
f 201//121 198//121 205//121
f 197//122 194//122 198//122
f 196//123 197//123 201//123
f 199//124 194//124 200//124
f 203//135 204//135 202//135
f 199//125 200//125 203//125
f 204//126 200//126 205//126
f 198//127 199//127 202//127
